<?xml version="1.0" encoding="utf-8"?>
<!-- Generator: Adobe Illustrator 27.5.0, SVG Export Plug-In . SVG Version: 6.00 Build 0)  -->
<svg version="1.1" xmlns="http://www.w3.org/2000/svg" xmlns:xlink="http://www.w3.org/1999/xlink" x="0px" y="0px"
	 viewBox="0 0 1200 500" style="enable-background:new 0 0 1200 500;" xml:space="preserve">
<g id="BACKGROUND">
	<g>
		<g>
			<g>
				<g>
					<g>
						<rect style="fill:#E7E8FC;" width="1200" height="500"/>
					</g>
				</g>
			</g>
		</g>
	</g>
</g>
<g id="OBJECTS">
	<g>
		<polygon style="fill:#6D9FE7;" points="810.251,283.764 389.749,306.215 389.749,85.531 810.251,63.08 		"/>
		<polygon style="fill:#C0CCFE;" points="784.141,167.272 415.859,184.518 415.859,97.326 784.141,80.08 		"/>
		<g>
			<path style="fill:#FFFFFA;" d="M385.156,81.039c0,0,18.628,16.234,40.974,14.134c22.549-2.119,41.631-19.782,54.791-15.724
				c13.159,4.058,15.105,26.475,29.869,23.891c15.824-2.769,12.368-23.922,30.462-23.007c18.094,0.915,22.737,25.603,50.7,16.734
				c27.963-8.869,15.637-20.248,45.651-21.781c30.014-1.532,20.144,5.336,48.93,2.26c28.786-3.077,26.255-12.094,48.062-9.796
				c21.806,2.298,29.58,20.614,45.206,15.229c7.599-2.619,12.103-13.594,20.176-16.065c15.409-4.717,16.259-3.407,13.846-7.105
				c-1.621-2.483-22.154,0-59.341-5.362c-31.093-4.484-54.198,8.937-99.202,6.466c-64.879-3.562-137.58-4.7-157.087,2.58
				C473.602,72.67,385.691,63.486,385.156,81.039z"/>
		</g>
	</g>
	<g>
		<g>
			<g>
				<path style="fill:#420925;" d="M198.272,277.502c0,0,7.721,11.612,16.475,14.504c0,0-5.584-5.951-11.344-17.189
					c1.964,1.725,4.398,3.305,7.093,3.781c0,0-2.651-1.843-3.983-4.193c0,0,6.618,2.375,11.458,1.047c0,0-10.159-1.839-16.527-4.645
					c-0.899-1.951-1.788-4.03-2.645-6.237l-0.007-0.007c-0.537-1.386-1.059-2.834-1.567-4.317c2.343,0.353,4.134,0.369,4.134,0.369
					c-2.232-1.395-3.29-5.421-3.29-5.421c1.481,2.978,5.492,5.31,5.492,5.31c1.591,0.059,4.458-0.418,4.458-0.418
					c-3.576-0.75-6.526-4.116-6.526-4.116c4.407,1.042,8.914-0.835,8.914-0.835c-7.364-1.108-13.698-6.186-17.03-9.359
					c-0.759-3.747-1.425-7.689-2.028-11.885c1.097,0.519,2.284,0.887,3.318,0.761c0,0-1.479-0.568-2.589-1.583
					c0,0,3.119,0.277,4.61-1.091c0,0-2.843,0.329-5.59,0.169c-0.442-3.206-0.854-6.568-1.256-10.07
					c4.142,3.192,7.053,2.844,7.053,2.844c-6.54-2.949-9.1-22.519-9.656-27.572c-0.041-0.402-0.081-0.79-0.123-1.196
					c0,0-8.953,31.463-22.764,32.913c0,0,4.835,3.207,12.526,1.145c0,0-3.358,3.525-12.496,5.563c0,0,4.051,1.623,8.457,1.102
					c-0.844,2.092-3.358,6.181-10.394,7.504c0,0,3.77,0.941,6.792-0.135c-3.231,4.913-7.719,11.556-12.392,17.906
					c-1.332,0.498-2.73,0.829-4.145,0.836c0,0,1.158,0.594,2.946,0.781c-5.907,7.905-11.959,15.068-16.011,17.448
					c0,0,11.701,0.627,19.85-2.013c0.855,0.04,1.666,0.035,2.449,0.001c-2.621,4.305-11.294,17.547-19.831,19.307
					c0,0,1.452,4.638,6.639,7.359c0,0,3.777-0.68,8.193-3.775c0,0-3.059,7.927-10.106,10.263c0,0,4.86,0.569,10.028-2.779
					c0,0-7.391,13.116-31.69,19.864l105.287,8.379c-14.849-5.317-25.303-18.651-25.303-18.651
					c3.907,3.873,10.391,6.033,10.391,6.033c-2.701-3.143-5.604-8.528-6.11-9.486c1.726,2.983,7.071,6.499,7.071,6.499
					c6.143-1.566,8.074-3.994,8.074-3.994S193.577,292.789,198.272,277.502z"/>
				<path style="fill:#420925;" d="M61.679,285.794c0,0,5.907,7.846,12.728,10.067c0,0-4.302-4.085-8.677-11.611
					c1.517,1.198,3.405,2.319,5.51,2.733c0,0-2.054-1.301-3.069-2.88c0,0,5.155,1.802,8.962,1.128c0,0-7.935-1.592-12.889-3.663
					c-0.681-1.303-1.351-2.688-1.996-4.155l-0.006-0.005c-0.404-0.921-0.795-1.883-1.175-2.866c1.83,0.321,3.234,0.401,3.234,0.401
					c-1.732-0.993-2.512-3.651-2.512-3.651c1.124,1.993,4.238,3.665,4.238,3.665c1.245,0.101,3.497-0.097,3.497-0.097
					c-2.792-0.627-5.062-2.929-5.062-2.929c3.439,0.849,6.992-0.195,6.992-0.195c-5.755-1.007-10.654-4.554-13.225-6.746
					c-0.549-2.464-1.023-5.052-1.444-7.801c0.853,0.38,1.778,0.665,2.59,0.624c0,0-1.152-0.427-2.009-1.129
					c0,0,2.44,0.302,3.624-0.529c0,0-2.231,0.103-4.381-0.108c-0.307-2.1-0.59-4.3-0.862-6.592c3.206,2.235,5.49,2.123,5.49,2.123
					c-5.087-2.171-6.855-14.987-7.23-18.291c-0.028-0.263-0.054-0.517-0.082-0.782c0,0-7.393,20.093-18.229,20.496
					c0,0,3.748,2.272,9.797,1.233c0,0-2.673,2.159-9.855,3.127c0,0,3.153,1.212,6.61,1.046c-0.687,1.326-2.705,3.885-8.232,4.47
					c0,0,2.941,0.759,5.322,0.177c-2.59,3.066-6.186,7.207-9.923,11.15c-1.049,0.272-2.148,0.432-3.257,0.381
					c0,0,0.899,0.431,2.298,0.622c-4.723,4.906-9.549,9.324-12.752,10.712c0,0,9.157,0.864,15.572-0.533
					c0.669,0.06,1.305,0.088,1.918,0.096c-2.105,2.695-9.058,10.96-15.767,11.77c0,0,1.082,3.07,5.111,5.041
					c0,0,2.966-0.294,6.463-2.133c0,0-2.492,5.031-8.04,6.274c0,0,3.8,0.56,7.888-1.414c0,0-4.312,7.903-13.543,10.681l20.647,2.598
					c-0.226,0.234-0.466,0.463-0.74,0.675c0,0,0.957-0.111,1.98-0.519l34.572,4.349c-2.506-2.543-5.206-9.667-5.206-9.667
					c3.014,2.669,8.066,4.326,8.066,4.326c-2.077-2.148-4.286-5.76-4.671-6.402c1.316,2.005,5.46,4.498,5.46,4.498
					c4.83-0.778,6.372-2.28,6.372-2.28S57.817,295.543,61.679,285.794z M43.127,258.477c-0.021-0.046-0.039-0.091-0.063-0.137
					c0.063-0.007,0.125-0.011,0.188-0.019C43.24,258.335,43.196,258.391,43.127,258.477z"/>
			</g>
			<g>
				<path style="fill:#420925;" d="M819.217,341.519c0,0,1.931,2.428,8.074,3.994c0,0,5.346-3.516,7.071-6.499
					c-0.506,0.958-3.409,6.343-6.11,9.486c0,0,6.484-2.16,10.391-6.033c0,0-10.454,13.334-25.303,18.651l105.287-8.379
					c-24.299-6.748-31.69-19.864-31.69-19.864c5.168,3.348,10.028,2.779,10.028,2.779c-7.047-2.336-10.106-10.263-10.106-10.263
					c4.416,3.095,8.193,3.775,8.193,3.775c5.187-2.721,6.639-7.359,6.639-7.359c-8.538-1.76-17.211-15.002-19.831-19.307
					c0.783,0.035,1.594,0.04,2.449-0.001c8.149,2.641,19.85,2.013,19.85,2.013c-4.053-2.38-10.104-9.543-16.012-17.448
					c1.789-0.187,2.946-0.781,2.946-0.781c-1.415-0.007-2.813-0.338-4.145-0.836c-4.673-6.35-9.161-12.993-12.392-17.906
					c3.023,1.076,6.792,0.135,6.792,0.135c-7.036-1.323-9.549-5.412-10.394-7.504c4.406,0.521,8.457-1.102,8.457-1.102
					c-9.138-2.038-12.496-5.563-12.496-5.563c7.691,2.063,12.526-1.145,12.526-1.145c-13.811-1.45-22.765-32.913-22.765-32.913
					c-0.042,0.406-0.081,0.793-0.123,1.196c-0.556,5.053-3.116,24.623-9.656,27.572c0,0,2.911,0.347,7.054-2.844
					c-0.402,3.502-0.814,6.864-1.256,10.07c-2.747,0.16-5.59-0.169-5.59-0.169c1.492,1.368,4.611,1.091,4.611,1.091
					c-1.11,1.015-2.589,1.583-2.589,1.583c1.034,0.126,2.221-0.242,3.318-0.761c-0.603,4.196-1.268,8.139-2.028,11.885
					c-3.331,3.173-9.666,8.252-17.03,9.36c0,0,4.506,1.877,8.913,0.835c0,0-2.95,3.366-6.526,4.116c0,0,2.868,0.477,4.458,0.418
					c0,0,4.011-2.332,5.492-5.31c0,0-1.058,4.027-3.29,5.421c0,0,1.791-0.015,4.134-0.369c-0.508,1.483-1.03,2.931-1.566,4.317
					l-0.007,0.007c-0.857,2.207-1.745,4.285-2.645,6.237c-6.368,2.806-16.527,4.645-16.527,4.645
					c4.84,1.328,11.458-1.047,11.458-1.047c-1.332,2.35-3.983,4.193-3.983,4.193c2.695-0.476,5.129-2.056,7.093-3.781
					c-5.76,11.238-11.344,17.189-11.344,17.189c8.754-2.892,16.475-14.504,16.475-14.504
					C850.217,316.087,819.217,341.519,819.217,341.519z"/>
				<path style="fill:#420925;" d="M945.213,325.909c0,0,1.542,1.502,6.372,2.28c0,0,4.144-2.493,5.46-4.498
					c-0.385,0.642-2.593,4.254-4.671,6.402c0,0,5.052-1.656,8.066-4.326c0,0-2.7,7.124-5.206,9.667l34.572-4.35
					c1.023,0.408,1.98,0.519,1.98,0.519c-0.274-0.212-0.514-0.44-0.74-0.675l20.647-2.598c-9.231-2.778-13.543-10.681-13.543-10.681
					c4.088,1.974,7.888,1.414,7.888,1.414c-5.548-1.243-8.04-6.274-8.04-6.274c3.496,1.839,6.463,2.133,6.463,2.133
					c4.03-1.97,5.111-5.041,5.111-5.041c-6.708-0.81-13.662-9.076-15.767-11.77c0.614-0.008,1.249-0.036,1.918-0.096
					c6.415,1.397,15.572,0.533,15.572,0.533c-3.203-1.388-8.03-5.806-12.752-10.712c1.399-0.191,2.298-0.622,2.298-0.622
					c-1.108,0.051-2.208-0.11-3.257-0.382c-3.737-3.943-7.333-8.084-9.922-11.15c2.38,0.581,5.322-0.177,5.322-0.177
					c-5.527-0.585-7.545-3.143-8.232-4.47c3.457,0.167,6.61-1.046,6.61-1.046c-7.182-0.967-9.855-3.127-9.855-3.127
					c6.049,1.04,9.797-1.233,9.797-1.233c-10.835-0.403-18.229-20.496-18.229-20.496c-0.028,0.265-0.054,0.519-0.082,0.782
					c-0.375,3.305-2.143,16.12-7.23,18.291c0,0,2.285,0.112,5.49-2.123c-0.272,2.291-0.555,4.492-0.862,6.592
					c-2.15,0.211-4.381,0.108-4.381,0.108c1.185,0.831,3.624,0.529,3.624,0.529c-0.857,0.703-2.009,1.129-2.009,1.129
					c0.811,0.041,1.737-0.244,2.59-0.624c-0.422,2.75-0.895,5.337-1.444,7.801c-2.571,2.192-7.471,5.739-13.225,6.746
					c0,0,3.553,1.044,6.992,0.195c0,0-2.27,2.302-5.062,2.929c0,0,2.252,0.198,3.497,0.097c0,0,3.114-1.672,4.238-3.665
					c0,0-0.78,2.658-2.512,3.651c0,0,1.403-0.08,3.234-0.401c-0.38,0.983-0.771,1.944-1.175,2.866l-0.006,0.005
					c-0.644,1.467-1.315,2.852-1.996,4.155c-4.954,2.072-12.889,3.663-12.889,3.663c3.807,0.674,8.962-1.128,8.962-1.128
					c-1.015,1.579-3.069,2.88-3.069,2.88c2.105-0.414,3.993-1.536,5.51-2.733c-4.375,7.526-8.677,11.611-8.677,11.611
					c6.821-2.22,12.728-10.066,12.728-10.066C969.185,308.176,945.213,325.909,945.213,325.909z M983.75,270.953
					c0.063,0.008,0.125,0.012,0.188,0.019c-0.024,0.046-0.042,0.091-0.063,0.137C983.806,271.023,983.761,270.968,983.75,270.953z"
					/>
			</g>
		</g>
		<path style="fill:#C0CCFE;" d="M1200,303.06V500H0V314.04c0,0,60.81,4.71,146.54,10.88c18.15,1.31,37.43,2.69,57.48,4.09
			c45.78,3.23,95.61,6.63,145.44,9.85c15.68,1.01,31.35,2,46.9,2.97c83.1,5.15,162.57,9.46,219.12,11.18
			c55.82,1.7,131.15-2.17,209.15-8.41c15.28-1.22,30.67-2.53,46.03-3.92c41.7-3.74,83.23-7.97,122.03-12.21c0,0,0,0,0.01,0
			c15.34-1.68,30.23-3.36,44.56-5.01h0.01C1131.09,312.65,1200,303.06,1200,303.06z"/>
		<g>
			<g>
				<path style="fill:#9FADE6;" d="M204.02,329.01c-72.79,12.18-166.44,26.77-166.44,26.77L0,337.2
					c14.38-0.51,82.83-6.51,146.54-12.28C164.69,326.23,183.97,327.61,204.02,329.01z"/>
				<path style="fill:#9FADE6;" d="M396.36,341.83c-75.18,10.24-255.18,30.5-255.18,30.5l-42.69-10.72
					c18.93-1.7,169.63-15.37,250.97-22.75C365.14,339.87,380.81,340.86,396.36,341.83z"/>
			</g>
			<g>
				<path style="fill:#9FADE6;" d="M1200,337.2l-37.58,18.58c0,0-96.5-15.04-169.72-27.31c15.34-1.68,30.23-3.36,44.56-5.01h0.01
					C1105.08,329.63,1184.39,336.64,1200,337.2z"/>
				<path style="fill:#9FADE6;" d="M1101.51,361.61l-42.69,10.72c0,0-151.04-17-234.19-27.73c15.28-1.22,30.67-2.53,46.03-3.92
					C954.5,348.29,1084.05,360.04,1101.51,361.61z"/>
			</g>
		</g>
		<g>
			<g>
				<g>
					<g>
						<path style="fill:#C0CCFE;" d="M149.946,212.3c0,0-29.869-29.827-35.612-36.696l-0.936,1.431c0,0,29.816,42.069,34.945,49.796
							L149.946,212.3z"/>
					</g>
					<path style="fill:#C0CCFE;" d="M174.165,0c0,0-18.75,166.23-31.381,237.646c-10.573,59.778-44.298,123.966-44.298,123.966
						l14.912,13.528l27.778-2.805c0,0,44.378-335.875,42.443-372.334H174.165z"/>
				</g>
				<g>
					<path style="fill:#C0CCFE;" d="M46.286,0.705c0,0-21.534,248.527-30.857,283.791C6.106,319.76,0,337.202,0,337.202
						s27.033,14.51,37.582,18.573c0,0,6.857-153.944,8.703-184.631C48.132,140.457,57.346,0.7,57.346,0.7L46.286,0.705z"/>
					<path style="fill:#C0CCFE;" d="M45.494,120.026c0,0,33.233-30.726,56.968-119.326h3.543
						c-3.543,15.108-13.082,60.48-64.747,149.758L45.494,120.026z"/>
				</g>
			</g>
		</g>
		<g>
			<g>
				<path style="fill:#C0CCFE;" d="M1179.304,0.005c0,0-22.909,236.779-32.828,270.376c-9.918,33.597-16.414,50.214-16.414,50.214
					s28.759,13.824,39.982,17.695c0,0,7.295-146.667,9.259-175.903C1181.268,133.15,1191.071,0,1191.071,0L1179.304,0.005z"/>
				<path style="fill:#C0CCFE;" d="M1174.604,70.521c0,0-35.355-18.159-60.606-70.521h-3.77c3.77,8.929,13.917,35.743,68.882,88.506
					L1174.604,70.521z"/>
			</g>
		</g>
		<g>
			<path style="fill:#9FADE6;" d="M1155.43,445.414c0,0-302.3,17.071-490.67,24.378c-1,0.042-1.99,0.076-2.98,0.117
				c-22.52,0.864-43.35,1.585-61.78,2.122c-181.16,5.251-419.42-36.064-505.16-52.313c-20.68-3.917-32.49-6.384-32.49-6.384
				s32.09-5.755,78.58-13.145c12.36-1.963,25.75-4.052,39.82-6.174c46.77-7.047,101.13-14.521,150.87-19.588h0.01
				c8.99-0.923,17.82-1.753,26.43-2.5h0.03c2.16-0.185,4.3-0.361,6.42-0.537c58.17-4.74,164.29-5.478,269.92-4.069
				c54.68,0.721,109.21,2.022,156.91,3.641h0.01c1.35,0.05,2.68,0.092,4.02,0.143c0.01,0,0.01,0,0.01,0
				c56.38,1.938,102.76,4.32,127.8,6.703c16.45,1.569,34.94,4.949,54.14,9.404c0,0,0,0,0.01,0c2.69,0.621,5.4,1.267,8.11,1.929
				C1066.07,408.872,1155.43,445.414,1155.43,445.414z"/>
			<g>
				<path style="fill:#ABBAF5;" d="M985.44,389.142c-62.64,6.493-137.36,13.246-157.61,10.973c-1.89-0.21-4.95-0.478-9.07-0.78
					c-2.79-0.21-6.07-0.436-9.8-0.68c-24.13-1.585-66.94-3.934-117.6-6.568c-3.27-0.176-6.57-0.344-9.91-0.512h-0.02
					c-18.09-0.948-37.06-1.913-56.45-2.877l-0.1-0.008l-0.09-0.008c-10.84-0.545-21.79-1.099-32.8-1.644h-0.05
					c-107.21-5.344-218.94-10.654-260.31-12.608c8.99-0.923,17.82-1.753,26.43-2.5h0.03c65,3.053,262.6,12.407,380.85,19.001h0.01
					c1.91,0.101,3.79,0.21,5.66,0.319h0.01c42.18,2.357,73.34,4.337,83.21,5.495c22.53,2.634,90.15-3.288,149.49-9.53
					c0,0,0,0,0.01,0C980.02,387.833,982.73,388.479,985.44,389.142z"/>
				<path style="fill:#ABBAF5;" d="M624.98,388.697c-35.8,1.309-400.75,9.605-484.05,11.493c12.36-1.963,25.75-4.052,39.82-6.174
					c106.84-3.247,345.6-6.208,411.19-6.98c10.84-0.134,16.95-0.201,16.95-0.201l15.99,1.854L624.98,388.697z"/>
				<path style="fill:#ABBAF5;" d="M795.37,371.106c-17.7,7.181-39.41,15.905-50.75,20.142h-0.01c-1.28,0.47-2.42,0.889-3.41,1.242
					l-9.49,0.856c0,0,2.69-0.872,7.23-2.416h0.01c10.84-3.699,32.18-11.241,52.39-19.965c0.01-0.008,0.01,0,0.01,0
					C792.7,371.014,794.03,371.056,795.37,371.106z"/>
				<polygon style="fill:#ABBAF5;" points="407.528,437.56 689.775,390.177 691.362,392.087 407.528,440.274 				"/>
				<path style="fill:#ABBAF5;" d="M566.558,413.275c0,0,76.14,14.056,79.7,14.056c3.56,0,169.317-29.868,169.317-29.868
					l3.197,1.877c0,0-166.976,29.982-172.515,30.645c-5.538,0.664-85.025-15.806-85.025-15.806L566.558,413.275z"/>
				<path style="fill:#ABBAF5;" d="M664.76,469.792c-1,0.042-1.99,0.076-2.98,0.117l-15.82-39.914l-0.62-1.56h2.24l0.52,1.258
					L664.76,469.792z"/>
			</g>
			<path style="fill:#7282C4;" d="M150.424,406.488c12.36-1.963,25.75-4.052,39.82-6.174c46.77-7.047,101.13-14.521,150.87-19.588
				h0.01c8.99-0.923,17.82-1.753,26.43-2.5h0.03c2.16-0.184,4.3-0.361,6.42-0.537c58.17-4.74,164.29-5.478,269.92-4.069
				c54.68,0.721,109.21,2.022,156.91,3.641h0.01c1.35,0.05,2.68,0.092,4.02,0.143c0.01,0,0.01,0,0.01,0
				c56.38,1.938,102.76,4.32,127.8,6.703c16.45,1.569,34.94,4.949,54.14,9.404c0,0,0,0,0.01,0c2.69,0.621,5.4,1.267,8.11,1.929
				c60.54,14.814,125.999,39.105,154.862,50.291c3.678-0.206,5.634-0.316,5.634-0.316s-89.36-36.542-169.99-56.272
				c-2.71-0.663-5.42-1.309-8.11-1.929c-0.01,0-0.01,0-0.01,0c-19.2-4.454-37.69-7.835-54.14-9.404
				c-25.04-2.382-71.42-4.765-127.8-6.703c0,0,0,0-0.01,0c-1.34-0.05-2.67-0.092-4.02-0.143h-0.01
				c-47.7-1.619-102.23-2.919-156.91-3.641c-105.63-1.409-211.75-0.671-269.92,4.069c-2.12,0.176-4.26,0.352-6.42,0.537h-0.03
				c-8.61,0.747-17.44,1.577-26.43,2.5h-0.01c-49.74,5.067-104.1,12.541-150.87,19.588c-14.07,2.122-27.46,4.211-39.82,6.174
				c-46.49,7.391-78.58,13.145-78.58,13.145s7.596,1.586,21.26,4.233C96.948,415.255,120.742,411.207,150.424,406.488z"/>
		</g>
	</g>
	<g>
		<g>
			<path style="fill:#FAF8F4;" d="M0,351.136c0,0,157.192,46.643,233.148,57.182c75.956,10.539,484.004,14.716,634.339,9.447
				C1041.952,411.65,1200,353.967,1200,353.967V500H0V351.136z"/>
		</g>
		<g>
			<g>
				<g>
					<path style="fill:#59254D;" d="M314.952,344.189c0,0-12.562,40.625-13.065,50.788c0,0-2.991,18.455-17.82,16.532
						c-6.016-0.776-15.006-4.87-9.078-24.022c0,0,9.369-17.626,15.985-45.318l12.104,1.023L314.952,344.189z"/>
					<path style="fill:#B96D62;" d="M301.887,394.977c0,0,0.168-14.856,1.579-26.863c0,0-8.125,20.237-9.466,24.251
						c0,0,3.105-25.098,9.078-49.173l11.874,0.997C314.952,344.189,302.39,384.814,301.887,394.977z"/>
					<path style="fill:#B96D62;" d="M295.5,353.977c0.747-0.596,0.881,4.699,0.865,5.365c-0.016,0.667-5.04,12.846-5.702,13.497
						C290.002,373.491,293.525,355.551,295.5,353.977z"/>
					<path style="fill:#FAF8F4;" d="M332.513,417.764c0,0-28.037-6.115-30.623-22.791c0,0-2.79-8.109-2.94-9.98
						c-0.15-1.871-2.077,2.994-3.363,3.493c-1.286,0.499-2.305-12.475-1.926-13.473c0,0-2.768,3.368-3.996,5.364
						c-1.228,1.996,0.801,3.867,0.701,5.364c-0.099,1.497-11.738,11.275-16.034,12.897c0,0,10.331-11.899,10.995-13.645
						c0.664-1.747-0.832-3.992-0.832-3.992s-3.431,5.115-9.511,6.487c0,0-32.038,21.371-47.399,22.355
						c0,0,22.233,17.772,48.14,19.355C298.697,430.601,332.513,417.764,332.513,417.764z"/>
				</g>
				<g>
					<g>
						<path style="fill:#00782C;" d="M412.835,380.61c-6.65-7.28-17.46-19.69-22.35-28.5c0.11,0.69,3.12,17.42,10.36,30.44
							c-4.59,0.68-9.26,1.32-13.85,1.89c-9.19-10.04-20.53-26.97-25.39-42.24c-0.37,5.67,4.86,24.34,16.62,43.31
							c-3.37,0.39-6.66,0.75-9.81,1.08c-7.74,0.81-14.67,1.45-19.96,1.9c-6.56,0.57-10.61,0.85-10.61,0.85
							c-10.23-6.04-21.87-19.54-21.87-19.54c6.05,20.01,21.87,32.1,21.87,32.1c-4.19,0.94-8.37,4.66-8.37,4.66
							c-16.44-11.87-29.29-51.52-29.77-53c-0.01-0.03-0.02-0.05-0.02-0.05c0,0.01-0.01,0.02-0.02,0.02
							c-36.29,28.36-73.5,30.23-73.5,30.23c5.68-10.15,3.51-24.49,2.86-27.98c-0.1-0.51-0.16-0.78-0.16-0.78l-0.54,0.95
							l-13.41,23.66c-43.02-13.9-73.57-32.62-73.57-32.62c13.16-6.88,20.38-19.02,20.6-19.4c-15.36,8.03-40.48,7.68-40.48,7.68
							c31.16-6.79,81.91-51.8,82.7-52.51l-1.24,0.69c-14.4,7.51-31.21-0.7-31.21-0.7c8.26-0.72,31.71-18.92,32.44-19.49
							c-14.64,4.88-28.25-9.12-28.25-9.12c14.66,4.16,42.93-12.16,42.93-12.16c-11.52-6.94-15.7-29.48-15.7-29.48
							c75.38-21.76,73.28-64.32,73.28-64.32c-7.78,7.34-20.98,12.86-21.39,13.03c9.02-7.68,23.27-31.5,24.15-32.96
							c-5.66,7.9-25.09,18.65-25.09,18.65c1.35-5.97,12.1-18.61,12.1-18.61c13.14-9.64,23.75-20.4,32.23-31.03
							c24.31-30.39,31.4-59.83,31.4-59.83c36.42,68.99,38.74,121.46,38.74,121.46c-6.28-17.8-17.69-30.81-17.69-30.81
							c0,9.32,0.83,18.75,2.2,27.98c0,0,0,0,0.01,0c4.34,29.26,14.19,56.55,20.72,72.39c0.56,1.39,1.11,2.69,1.62,3.89
							c2.79,6.53,4.66,10.31,4.66,10.31c-2.1,9.42-1.05,20.75-1.05,20.75c-6.18-7.22-13.86-24.48-16.11-29.71
							c-0.41-0.96-0.64-1.51-0.64-1.51c0.02,0.48,0.05,0.97,0.09,1.45c4.05,61.62,67.62,143.38,67.62,143.38
							C424.885,378.3,419.055,379.5,412.835,380.61z"/>
						<path style="fill:#00782C;" d="M205.868,203.213c0,0-10.272,7.415-20.282,2.524
							C185.586,205.737,195.507,217.279,205.868,203.213z"/>
						<path style="fill:#00782C;" d="M386.837,262.623c0,0,0.026,14.86,8.043,20.625c0,0-1.979-4.253-1.767-8.451
							c0,0,6.826,7.392,14.415,8.358C407.528,283.156,391.024,271.161,386.837,262.623z"/>
					</g>
					<g>
						<path style="fill:#009436;" d="M380.514,341.692c0,0,13.717,15.274,31.294,17.445
							C411.808,359.136,387.144,371.466,380.514,341.692z"/>
						<path style="fill:#009436;" d="M339.643,175.658c0,0,15.727,26.381,37.39,36.406c0,0-11.834,4.402-24.028-7.369
							c0,0-4.091,6.385-10.971-0.09C338.036,200.844,333.487,185.76,339.643,175.658z"/>
						<path style="fill:#009436;" d="M271.516,181.637c0,0-8.985,10.298-26.342,10.636
							C245.174,192.273,269.284,204.152,271.516,181.637z"/>
						<path style="fill:#009436;" d="M203.656,309.565c0,0-11.868,13.954-27.045,15.285c0,0,15.669,6.601,23.575-2.54
							c0,0,1.833,6.515,1.095,10.044C201.28,332.354,209.767,326.93,203.656,309.565z"/>
					</g>
					<g>
						<path style="fill:#FAF8F4;" d="M353.063,156.062l-4.771-5.765c0.168,3.141-1.978,10.022-1.978,10.022
							c-2.505-8.308-10.813-24-17.149-29.117c3.041,7.365,7.466,24.897,7.466,24.897c-2.091,6.281-5.763,10.814-5.763,10.814
							c-4.887-21.64-32.447-69.649-32.447-69.649c24.304-30.392,31.397-59.83,31.397-59.83
							c36.417,68.987,38.737,121.451,38.737,121.451c-6.281-17.794-17.688-30.806-17.688-30.806
							C350.866,137.404,351.695,146.834,353.063,156.062z"/>
						<path style="fill:#FAF8F4;" d="M312.296,79.67c0,0-8.661,3.154-13.703,1.141c0,0,2.685,4.232,7.597,3.949
							c0,0-9.631,3.297-15.458,2.024c0,0,5.733,8.232,19.463-1.727L312.296,79.67z"/>
						<path style="fill:#FAF8F4;" d="M368.415,386.59c-7.74,0.81-14.67,1.45-19.96,1.9c-7.57-16.72-11.68-41.47-11.82-42.35
							C342.615,356.84,360.555,377.66,368.415,386.59z"/>
						<path style="fill:#FAF8F4;" d="M308.874,308.61c0,0,4.19,36.637,16.753,49.209c0,0-13.286,3.37-25.919-4.261
							c-0.009,0-0.026-0.009-0.044-0.026c-6.44-3.899-12.721-10.666-16.964-22.222c0,0-24.207,17.159-53.672,24.472
							c-0.229,0.062-0.468,0.115-0.697,0.168c-10.48,2.541-21.605,3.811-32.526,2.611c0,0,23.025-29.006,35.587-55.181
							c-0.45,0.3-14.856,10.11-28.257,14.962c0,0,16.92-28.177,21.111-48.3c0,0-5.408,6.458-20.079,12.721l-1.244,0.688
							c-14.397,7.507-31.203-0.697-31.203-0.697c8.381-0.732,32.456-19.505,32.456-19.505c-14.653,4.905-28.265-9.113-28.265-9.113
							c14.653,4.164,42.927-12.156,42.927-12.156s54.325-13.639,77.589-34.114c0,0,0.935,7.331-4.181,14.133
							c0,0,33.505-7.622,52.111-24.375c0,0,16.065,23.202,29.439,30.833c1.897,1.085,3.732,1.861,5.47,2.205
							c0,0-1.42,0.847-3.846,1.676c-2.929,1.006-7.34,1.967-12.501,1.359c-0.185-0.018-0.371-0.035-0.556-0.062
							c-3.837-0.529-8.072-1.941-12.421-4.834c0,0,10.339,57.933,34.485,75.039c0,0-43.086-15.553-65.079-46.747
							c0,0,7.305,63.279,24.772,74.21C343.2,331.053,314.035,323.034,308.874,308.61z"/>
					</g>
					<g>
						<path style="fill:#005920;" d="M281.096,349.373c0,0-0.273,15.703-9.345,25.766
							C271.751,375.139,292.185,369.905,281.096,349.373z"/>
						<path style="fill:#005920;" d="M264.383,337.69c0,0-7.032,19.285-29.725,27.412
							C234.658,365.102,269.963,363.892,264.383,337.69z"/>
						<path style="fill:#005920;" d="M355.551,313.826c0,0-6.892-4.32-9.075-9.866c0,0-6.116,28.256,22.523,37.66
							c0,0-6.911-9.154-7.49-17.216c0,0,6.637,2.543,10.658,0.984c0,0-11.129-8.967-13.595-19.418
							C358.571,305.97,354.76,309.663,355.551,313.826z"/>
						<path style="fill:#005920;" d="M269.038,149.938c0,0,11.921,4.364,19.386-2.103c0,0-0.066,7.161-6.029,9.968
							c0,0,11.552,1.73,12.374-14.194c0,0,4.038-6.053,0.853-13.294C295.623,130.315,290.166,146.896,269.038,149.938z"/>
						<path style="fill:#005920;" d="M299.417,175.658c0,0,1.377,17.856-17.253,19.418c0,0,14.36,10.917,17.383-2.623
							c0,0,1.692,2.43,1.127,5.578C300.673,198.031,314.081,186.646,299.417,175.658z"/>
					</g>
					<path style="fill:#00782C;" d="M369.08,303.059c0,0,5.28,5.804,12.147,6.157C381.227,309.216,373.882,317.038,369.08,303.059z"
						/>
				</g>
			</g>
		</g>
		<g>
			<g>
				<g>
					<path style="fill:#E9EBFC;" d="M87.4,397.047c0,0,3.207,24.027,20.045,30.833c11.579,4.68,39.824,5.256,58.813,4.747
						c29.539-0.791,41.521,14.107,41.521,14.107s-27.12-9.359-44.686-7.25c0,0,28.146,31.385,52.978,33.006
						c0,0-54.257,17.812-69.857-30.369c0,0-2.11,33.231,25.506,44.123c0,0-8.547,8.602-21.774,13.756
						c0,0-51.268-48.285-60.131-74.432c0,0-7.58,30.314-30.976,24.884C58.84,450.452,87.095,416.453,87.4,397.047z"/>
					<path style="fill:#E9EBFC;" d="M0,437.374c0,0,12.489,1.542,36.5-37.184c0,0-13.017,31.909-7.827,40.349
						c5.19,8.439,23.124-7.385,23.124-7.385s-16.352,30.33,0,42.198c0,0-32.703,1.055-14.769-24.791
						c0,0-18.494,24.626-37.028,27.429v-24.363c0,0,17.643-3.264,19.621-21c0,0-9.967,15.56-19.621,7.648V437.374z"/>
					<path style="fill:#E9EBFC;" d="M87.243,459.208c0,0,5.565,20.627,22.576,25.374C109.819,484.582,82.073,493.571,87.243,459.208
						z"/>
				</g>
			</g>
			<g>
				<g>
					<path style="fill:#E9EBFC;" d="M202.045,419.587c0,0,40.747,5.981,61.714-17.428c0,0-0.94,8.01-5.143,14.87
						c0,0,12.956-0.745,18.742-6.156c0,0,0.91,30.819-28.3,34.858c0,0,4.329-9.155,2.394-20.163
						C251.452,425.568,216.287,433.712,202.045,419.587z"/>
					<path style="fill:#E9EBFC;" d="M284.038,413.31c0,0,11.609,12.439,23.162,11.455c6.01-0.512,0-11.086,0-11.086
						s10.735,8.057,26.819,7.041c0,0-10.274,4.455-17.146,2.038c0,0,13.469,17.516,50.754,17.516c0,0-19.935,4.195-36.064,2.494
						c-16.129-1.702-18.353-18.515-18.353-18.515S304.111,445.73,284.038,413.31z"/>
				</g>
			</g>
		</g>
	</g>
	<g>
		<g>
			<g>
				<g>
					
						<ellipse transform="matrix(0.2011 -0.9796 0.9796 0.2011 -112.8605 694.587)" style="fill:#F84D4C;" cx="369.39" cy="416.483" rx="42.724" ry="42.724"/>
					
						<ellipse transform="matrix(0.9529 -0.3033 0.3033 0.9529 -108.9123 131.6427)" style="fill:#FEB555;" cx="369.39" cy="416.483" rx="37.222" ry="27.611"/>
					<path style="fill:#00782C;" d="M387.575,402.634c-4.883-4.892-5.236-11.226-5.236-11.226s-4.267,8.244-9.544,8.458
						c-4.649,0.189-11.135-7.81-11.135-7.81l-0.078,0.025c0,0-0.669,10.277-4.573,12.81c-4.431,2.875-12.677-1.386-12.677-1.386
						s3.373,5.373,2.216,12.187c-1.05,6.183-10.938,11.543-10.938,11.543s11.167-1.342,15.598,3.097
						c4.883,4.892,5.236,11.226,5.236,11.226s4.267-8.244,9.544-8.458c4.649-0.189,11.135,7.81,11.135,7.81l0.078-0.025
						c0,0,0.669-10.277,4.573-12.81c4.431-2.875,12.677,1.386,12.677,1.386s-3.373-5.373-2.216-12.187
						c1.05-6.183,10.938-11.543,10.938-11.543S392.006,407.073,387.575,402.634z"/>
					<path style="fill:#FAF8F4;" d="M376.527,377.428c0.295-2.491,19.18,3.763,17.766,9.147
						C392.88,391.958,375.637,384.947,376.527,377.428z"/>
				</g>
				<g>
					<path style="fill:#FEB555;" d="M365.522,355.845c2.578,8.099-1.898,16.753-9.997,19.331
						c-8.099,2.578-16.753-1.898-19.331-9.997c-2.578-8.099,1.898-16.753,9.997-19.331
						C354.29,343.271,362.945,347.747,365.522,355.845z M359.637,357.719c-1.543-4.848-6.724-7.527-11.572-5.984
						c-4.848,1.543-7.527,6.724-5.984,11.572s6.724,7.527,11.572,5.984C358.501,367.748,361.18,362.567,359.637,357.719z"/>
					<path style="fill:#FAF8F4;" d="M337.094,364.893c-2.53-7.948,1.736-16.427,9.551-19.177c-0.151,0.043-0.303,0.084-0.453,0.132
						c-8.099,2.578-12.574,11.232-9.997,19.331c2.577,8.099,11.232,12.574,19.331,9.997c0.151-0.048,0.298-0.102,0.446-0.155
						C348.006,377.295,339.624,372.841,337.094,364.893z"/>
					<path style="fill:#FECF66;" d="M352.65,346.538c0.127-1.187,8.943,1.875,8.308,4.439
						C360.322,353.54,352.267,350.123,352.65,346.538z"/>
				</g>
				<g>
					<g>
						<path style="fill:#420925;" d="M358.896,364.896l-6.032,1.92l-6.032,1.92c0,0-0.243,9.11-1.119,10.536
							c0,0,2.305,3.186,5.414,3.295c0,0-0.404-2.42,0.954-2.622c1.693-0.252,2.048,2.383,2.048,2.383s1.728,0.43,3.617-0.172
							c1.889-0.601,3.051-1.951,3.051-1.951s-1.233-2.356,0.294-3.128c1.225-0.62,2.294,1.588,2.294,1.588
							c2.474-1.887,2.513-5.818,2.513-5.818C364.361,372.19,358.896,364.896,358.896,364.896z"/>
						<path style="fill:#420925;" d="M358.896,364.896c-0.147-0.462-2.967,0.022-6.298,1.083c-3.331,1.06-5.912,2.294-5.765,2.757
							c0.147,0.462,2.967-0.023,6.298-1.083C356.462,366.592,359.043,365.358,358.896,364.896z"/>
					</g>
					<path style="fill:#FFFFFF;" d="M347.66,368.903c0,0,4.745,0.258,10.659-3.392c0,0,4.772,6.562,6.456,7.606
						c0,0-0.092,1.834-1.054,2.704c0,0-5.176-4.941-6.843-8.409C356.877,367.412,350.155,371.454,347.66,368.903z"/>
				</g>
			</g>
			<g>
				<g>
					<path style="fill:#FFFFFF;" d="M358.77,407.611c0.92-0.866,2.113-1.299,3.58-1.299c1.465,0,2.653,0.434,3.564,1.299
						c0.911,0.867,1.366,2.097,1.366,3.691s-0.455,2.824-1.366,3.691c-0.911,0.865-2.099,1.298-3.564,1.298
						c-1.467,0-2.66-0.433-3.58-1.298c-0.921-0.867-1.382-2.097-1.382-3.691S357.849,408.477,358.77,407.611z M360.894,411.302
						c0,1.339,0.476,2.008,1.426,2.008c0.456,0,0.812-0.167,1.069-0.502c0.258-0.334,0.387-0.836,0.387-1.506
						c0-1.359-0.486-2.037-1.456-2.037C361.369,409.264,360.894,409.943,360.894,411.302z M377.56,406.636l-11.439,20.786h-4.901
						l11.437-20.786H377.56z M372.896,419.067c0.91-0.867,2.098-1.299,3.564-1.299c1.465,0,2.653,0.433,3.564,1.299
						c0.911,0.866,1.367,2.095,1.367,3.69s-0.456,2.826-1.367,3.691c-0.911,0.867-2.099,1.299-3.564,1.299
						c-1.467,0-2.655-0.433-3.564-1.299c-0.912-0.866-1.367-2.097-1.367-3.691S371.984,419.932,372.896,419.067z M375.376,421.222
						c-0.248,0.335-0.372,0.846-0.372,1.535c0,1.339,0.476,2.008,1.426,2.008c0.456,0,0.812-0.167,1.071-0.502
						c0.257-0.334,0.386-0.836,0.386-1.506c0-0.668-0.129-1.176-0.386-1.52c-0.258-0.344-0.615-0.518-1.071-0.518
						C375.975,420.719,375.623,420.888,375.376,421.222z"/>
				</g>
			</g>
		</g>
	</g>
	<g>
		<g>
			<path style="fill:#E9EBFC;" d="M296.032,460.925c0,0,12.396-19.366,59.405-11.38c25.078,4.26,41.441-7.986,56.688-7.986
				c29.489,0,49.533,16.786,49.533,16.786s-36.923-13.224-55.988-1.942c0,0,46.929,5.297,43.856,23.736
				c-2.901,17.407-46.354,21.099-74.522-4.199c0,0-29.291,2.089-39.397-15.014C335.608,460.925,323.401,456.402,296.032,460.925z"/>
			<path style="fill:#E9EBFC;" d="M442.534,436.641c0,0,29.313-1.258,53.224,6.126C495.759,442.767,481.495,426.047,442.534,436.641
				z"/>
			<path style="fill:#E9EBFC;" d="M330.823,480.632c0,0,18.055,13.324,40.354,0.222c0,0-6.959,12.891-23.678,11.353
				C330.78,490.668,330.823,480.632,330.823,480.632z"/>
		</g>
	</g>
	<g>
		<g>
			<path style="fill:#FAF8F4;" d="M401.422,23.882c5.994,3.597,1.658,17.542-7.938,14.024
				C385.546,34.996,393.484,19.12,401.422,23.882z"/>
			<path style="fill:#FAF8F4;" d="M403.126,44.781c5.994,3.597,1.658,17.542-7.938,14.024
				C387.25,55.894,395.188,40.018,403.126,44.781z"/>
			<path style="fill:#FAF8F4;" d="M22.314,67.581c5.994,3.597,1.658,17.542-7.938,14.024C6.438,78.694,14.376,62.818,22.314,67.581z
				"/>
			<path style="fill:#FAF8F4;" d="M285.821,178.816c2.646,1.852,1.058,6.88-3.175,5.821
				C278.412,183.579,283.175,176.964,285.821,178.816z"/>
			<path style="fill:#FAF8F4;" d="M338.189,31.059c2.646,1.852,1.058,6.88-3.175,5.821C330.78,35.822,335.543,29.207,338.189,31.059
				z"/>
			<path style="fill:#FAF8F4;" d="M213.685,7.334c2.646,1.852,1.058,6.88-3.175,5.821C206.276,12.097,211.039,5.482,213.685,7.334z"
				/>
			<path style="fill:#FAF8F4;" d="M233.361,76.031c2.646,1.852,1.058,6.88-3.175,5.821
				C225.952,80.794,230.715,74.179,233.361,76.031z"/>
			<path style="fill:#FAF8F4;" d="M240.389,177.948c2.646,1.852,1.058,6.88-3.175,5.821
				C232.98,182.711,237.743,176.096,240.389,177.948z"/>
			<path style="fill:#FAF8F4;" d="M960.491,103.577c2.646,1.852,1.058,6.88-3.175,5.821
				C953.082,108.339,957.845,101.724,960.491,103.577z"/>
			<path style="fill:#FAF8F4;" d="M1125.955,115.568c2.646,1.852,1.058,6.88-3.175,5.821
				C1118.546,120.33,1123.309,113.715,1125.955,115.568z"/>
			<path style="fill:#FAF8F4;" d="M463.09,27.644c2.646,1.852,1.058,6.88-3.175,5.821C455.682,32.407,460.444,25.792,463.09,27.644z
				"/>
			<path style="fill:#FAF8F4;" d="M358.238,18.795c2.646,1.852,1.058,6.88-3.175,5.821C350.83,23.558,355.592,16.942,358.238,18.795
				z"/>
			<path style="fill:#FAF8F4;" d="M1129.032,300.992c2.646,1.852,1.058,6.88-3.175,5.821
				C1121.623,305.755,1126.386,299.14,1129.032,300.992z"/>
			<path style="fill:#FAF8F4;" d="M1148.791,328.197c2.646,1.852,1.058,6.88-3.175,5.821
				C1141.382,332.96,1146.145,326.345,1148.791,328.197z"/>
			<path style="fill:#FAF8F4;" d="M27.117,159.311c2.646,1.852,1.058,6.88-3.175,5.821S24.471,157.459,27.117,159.311z"/>
			<path style="fill:#FAF8F4;" d="M75.252,290.611c2.646,1.852,1.058,6.88-3.175,5.821
				C67.843,295.374,72.605,288.759,75.252,290.611z"/>
			<path style="fill:#FAF8F4;" d="M170.182,208.387c2.646,1.852,1.058,6.88-3.175,5.821
				C162.773,213.15,167.536,206.535,170.182,208.387z"/>
			<path style="fill:#FAF8F4;" d="M836.01,314.108c5.994,3.597,1.658,17.542-7.938,14.024
				C820.134,325.221,828.072,309.345,836.01,314.108z"/>
			<path style="fill:#FAF8F4;" d="M1041.619,352.164c5.994,3.597,1.658,17.542-7.938,14.024
				C1025.743,363.278,1033.681,347.402,1041.619,352.164z"/>
			<path style="fill:#FAF8F4;" d="M809.87,17.148c5.995,3.597,1.658,17.542-7.938,14.024
				C793.994,28.262,801.932,12.386,809.87,17.148z"/>
			<path style="fill:#FAF8F4;" d="M1086.895,27.037c5.995,3.597,1.658,17.542-7.938,14.024
				C1071.018,38.151,1078.957,22.274,1086.895,27.037z"/>
			<path style="fill:#FAF8F4;" d="M814.49,166.244c5.994,3.597,1.658,17.542-7.938,14.024
				C798.614,177.357,806.552,161.481,814.49,166.244z"/>
			<path style="fill:#FAF8F4;" d="M420.098,148.427c5.995,3.597,1.658,17.542-7.938,14.024
				C404.222,159.54,412.16,143.664,420.098,148.427z"/>
			<path style="fill:#FAF8F4;" d="M989.679,86.158c5.994,3.597,1.658,17.542-7.938,14.024
				C973.803,97.271,981.741,81.395,989.679,86.158z"/>
			<path style="fill:#FAF8F4;" d="M272.581,115.709c5.995,3.597,1.658,17.542-7.938,14.024
				C256.704,126.823,264.643,110.947,272.581,115.709z"/>
			<path style="fill:#FAF8F4;" d="M233.62,361.461c5.994,3.597,1.658,17.542-7.938,14.024
				C217.744,372.575,225.682,356.698,233.62,361.461z"/>
			<path style="fill:#FAF8F4;" d="M185.802,84.215c4.816,2.889,1.332,14.093-6.377,11.266
				C173.048,93.143,179.425,80.389,185.802,84.215z"/>
			<path style="fill:#FAF8F4;" d="M924.016,117.828c5.995,3.597,1.658,17.542-7.938,14.024
				C908.14,128.941,916.078,113.065,924.016,117.828z"/>
			<path style="fill:#FAF8F4;" d="M1160.531,75.807c5.995,3.597,1.658,17.542-7.938,14.024
				C1144.655,86.92,1152.593,71.044,1160.531,75.807z"/>
			<path style="fill:#FAF8F4;" d="M163.587,362.694c2.646,1.852,1.058,6.88-3.175,5.821
				C156.178,367.457,160.941,360.841,163.587,362.694z"/>
			<path style="fill:#FAF8F4;" d="M782.112,226.362c2.646,1.852,1.058,6.88-3.175,5.821
				C774.704,231.125,779.466,224.51,782.112,226.362z"/>
			<path style="fill:#FAF8F4;" d="M114.724,138.804c2.646,1.852,1.058,6.88-3.175,5.821
				C107.315,143.567,112.078,136.952,114.724,138.804z"/>
			<path style="fill:#FAF8F4;" d="M365.887,325.875c2.646,1.852,1.058,6.88-3.175,5.821
				C358.478,330.638,363.24,324.023,365.887,325.875z"/>
			<path style="fill:#FAF8F4;" d="M715.218,27.644c2.646,1.852,1.058,6.88-3.175,5.821
				C707.809,32.407,712.572,25.792,715.218,27.644z"/>
			<path style="fill:#FAF8F4;" d="M955.541,203.03c2.646,1.852,1.058,6.88-3.175,5.821
				C948.132,207.793,952.895,201.178,955.541,203.03z"/>
			<path style="fill:#FAF8F4;" d="M950.043,20.177c2.646,1.852,1.058,6.88-3.175,5.821C942.634,24.94,947.397,18.325,950.043,20.177
				z"/>
			<path style="fill:#FAF8F4;" d="M870.071,31.538c5.714,2.286,2.381,17.728-6.88,15.611
				C853.93,45.033,862.133,28.363,870.071,31.538z"/>
			<path style="fill:#FAF8F4;" d="M559.751,49.659c5.714,2.286,2.381,17.728-6.88,15.611
				C543.611,63.154,551.813,46.484,559.751,49.659z"/>
			<path style="fill:#FAF8F4;" d="M277.997,23.582c5.714,2.286,2.381,17.728-6.88,15.611
				C261.856,37.076,270.059,20.406,277.997,23.582z"/>
			<path style="fill:#FAF8F4;" d="M133.94,88.377c4.549,1.82,1.896,14.113-5.477,12.428C121.091,99.12,127.621,85.85,133.94,88.377z
				"/>
			<path style="fill:#FAF8F4;" d="M266.397,114.115c5.714,2.286,2.381,17.728-6.88,15.611
				C250.256,127.61,258.459,110.94,266.397,114.115z"/>
			<path style="fill:#FAF8F4;" d="M405.988,219.313c5.714,2.286,2.381,17.728-6.88,15.611
				C389.848,232.808,398.051,216.138,405.988,219.313z"/>
			<path style="fill:#FAF8F4;" d="M201.082,227.419c5.714,2.286,2.381,17.728-6.88,15.611
				C184.941,240.914,193.144,224.244,201.082,227.419z"/>
			<path style="fill:#FAF8F4;" d="M1165.709,206.251c5.714,2.286,2.381,17.728-6.88,15.611
				C1149.568,219.746,1157.771,203.076,1165.709,206.251z"/>
			<path style="fill:#FAF8F4;" d="M401.269,315.085c5.714,2.286,2.381,17.728-6.88,15.612
				C385.128,328.579,393.331,311.909,401.269,315.085z"/>
			<path style="fill:#FAF8F4;" d="M203.894,160.77c5.714,2.286,2.381,17.728-6.88,15.611
				C187.754,174.264,195.956,157.594,203.894,160.77z"/>
			<path style="fill:#FAF8F4;" d="M81.754,204.384c4.052,1.621,1.688,12.57-4.878,11.069
				C70.31,213.952,76.126,202.133,81.754,204.384z"/>
		</g>
	</g>
	<g>
		<g>
			<g>
				<ellipse style="fill:#F84D4C;" cx="600" cy="58.505" rx="78.778" ry="34.505"/>
			</g>
		</g>
		<path style="fill:#F84D4C;" d="M687.137,442.943H512.863c-21.936,0-39.718-17.782-39.718-39.718v0
			c0-21.936,17.782-39.718,39.718-39.718h174.274c21.936,0,39.718,17.782,39.718,39.718v0
			C726.855,425.161,709.072,442.943,687.137,442.943z"/>
	</g>
	<g>
		<g>
			<g>
				<g>
					<path style="fill:#59254D;" d="M775.147,32.345l43.071,36.224v0.017l6.217,5.206c0.017,0.017,0.017,0.033,0.017,0.033
						l7.891,6.631l8.687,7.311l2.57,2.155l1.575,1.326c0.365,2.321,0.713,4.642,1.078,6.946
						c7.858,50.631,15.335,97.068,19.695,119.797c9.616,50.034,15.766,99.289,19.613,138.05c4.592,46.205,5.919,77.505,5.919,77.505
						s30.488-9.665,56.848-4.476c7.842,1.558,15.319,4.41,21.536,9.234c0,0-18.054-56.682-36.738-113.696
						c-12.865-39.242-26.045-78.632-33.82-99.82C885.694,187.786,866.628,81.467,853.216,0h-21.934
						c3.133,20.872,6.532,43.353,9.98,65.817c0,0,0.05,0.332,0.149,0.895c0.033,0.332,0.083,0.663,0.149,0.995
						c0.481,3.266,0.978,6.515,1.492,9.765c0.017,0.199,0.05,0.381,0.083,0.58l-24.652-17.507l-4.476-3.183
						c-0.016-0.016-0.016-0.016-0.016-0.016l-37.219-26.46L775.147,32.345z"/>
					<path style="fill:#B96D62;" d="M840.799,0c1.094,8.041,1.84,13.86,1.973,15.932c0.713,10.544,23.177,115.868,23.873,127.108
						c0,0-0.696-37.932-2.802-48.459c-1.989-9.947-9.019-51.377-9.765-55.787c1.293,5.388,16.131,68.635,17.49,88.795
						c1.393,21.071,13.976,80.357,13.594,90.403c-0.249,6.499,13.081,19.132,15.186,25.465c1.326,3.962,17.789,64.64,31.698,118.952
						c6.648,25.979,12.732,50.482,16.28,66.663c0.033,0.182,0.083,0.365,0.116,0.547c5.968,5.454,14.705,10.03,21.42,8.687
						c0,0-18.054-56.682-36.738-113.696c-12.865-39.242-26.045-78.632-33.82-99.82C885.694,187.786,866.628,81.467,853.216,0
						H840.799z"/>
					<path style="fill:#B96D62;" d="M888.991,238.411c0,0,5.067,9.376,6.157,13.839c1.09,4.463,11.652,47.793,11.652,47.793
						s-4.563-8.18-7.451-19.223C896.461,269.777,888.991,238.411,888.991,238.411z"/>
					<path style="fill:#B96D62;" d="M867.702,165.856c0,0,4.213,38.269,8.426,44.589c0,0-2.809-29.843-4.213-35.461
						C870.511,169.367,867.702,165.856,867.702,165.856z"/>
				</g>
				<g>
					<path style="fill:#FAF8F4;" d="M987.896,438.543c-55.906,22.362-144.806-15.801-144.806-15.801s40.551-9.566,42.472-66.693
						c0,0,9.532,19.356,13.738,17.799c4.22-1.544-2.103-70.01,0-81.605c1.14-6.278,6.847,19.492,10.797,45.446
						c3.346,21.989,15.273,42.772,21.592,45.669c0,0,1.843-32.125-2.37-54.771c-1.964-10.557,3.808-3.982,3.808-3.982
						C951.817,381.622,987.896,438.543,987.896,438.543z"/>
					<path style="fill:#FAF8F4;" d="M914.19,316.825c-0.973-1.616,0.77,19.075,1.775,22.629c1.006,3.554,3.984,13.736,6.784,15.454
						C925.548,356.627,916.975,321.451,914.19,316.825z"/>
					<path style="fill:#FAF8F4;" d="M882.414,288.451c-0.857-1.638,0.313,20.763,1.967,23.089
						C886.035,313.865,884.884,293.173,882.414,288.451z"/>
					<path style="fill:#FAF8F4;" d="M829.268,68.198c0,0,3.15,17.785,7.89,20.944c4.74,3.16,4.563-6.32,4.563-6.32
						s6.32,27.034,11.586,25.805c4.974-1.161-7.15-37.797-12.045-42.817c0,0,1.544,9.499,1.879,12.246L829.268,68.198z"/>
					<path style="fill:#FAF8F4;" d="M813.999,57.347c0,0,3.186,6.467,4.219,11.231l6.242,5.25c0,0-4.776-9.834-5.97-13.29
						L813.999,57.347z"/>
				</g>
			</g>
		</g>
		<g>
			<path style="fill:#E9EBFC;" d="M889.837,406.207c0,0-39.051,46.896-120.678,32.476c0,0,35.375,50.246,94.079,1.473
				c0,0-15.102,39.409-57.91,59.844h67.819c0,0,34.369-23.009,43.667-52.745c0,0-21.524,1.484-43.508-8.692
				C873.307,438.563,894.302,428.435,889.837,406.207z"/>
			<path style="fill:#E9EBFC;" d="M779.492,479.888c0,0-45.21,2.43-59.253-15.105C720.239,464.783,707.516,500.546,779.492,479.888z
				"/>
			<path style="fill:#E9EBFC;" d="M968.126,499.995c0,0-26.45-11.763-38.731-35.714c0,0,42.856,25.104,66.584,21.148
				c23.728-3.956-39.082-26.11-39.082-26.11s57.062,0.791,72.689-8.703c0,0-0.247,8.218-23.499,13.666
				c0,0,144.93,40.957,193.912,7.909l-0.037,27.805h-119.158c0,0-51.45-15.753-61.092-15.753c-9.641,0,6.793,15.758,6.793,15.758
				L968.126,499.995z"/>
		</g>
	</g>
	<g>
		<g>
			<path style="fill:#00782C;" d="M1180.198,463.631c2.715,10.73,10.872,22.529,10.872,22.529h-109.469
				c-12.23-1.068-28.557-8.574-28.557-8.574c6.675-6.845,13.351-26.089,13.587-26.811c-3.45,5.381-29.653,18.359-29.653,18.359
				c-35.381-2.746-57.213-13.884-57.213-13.884c24.459-15.135,38.669-35.538,46.03-49.136h0.012
				c4.496-8.32,6.426-14.097,6.576-14.545c0.012-0.02,0.012-0.031,0.012-0.031l-0.012,0.01c-7.647,6.428-25.207,8.401-25.207,8.401
				c25.954-17.932,40.076-78.378,37.125-81.236c-3.288-3.173-7.236,6.398-7.236,6.398s-0.847-10.863-4.67-10.222
				c-3.861,0.651-15.131,22.6-15.131,22.6c3.362-13.955,9.826-35.884,9.826-35.884c-5.48,11.493-23.924,23.139-24.497,23.495
				c12.815-21.085,35.157-110.407,35.157-110.407c-4.944,7.801-15.156,13.324-15.792,13.66c6.115-7.252,11.707-26.933,11.707-26.933
				c-6.937,14.819-23.015,30.941-23.015,30.941c4.085-12.897,0-21.756,0-21.756c26.253-32.253,29.229-77.188,29.229-77.188
				c-9.079,13.68-16.638,14.484-16.638,14.484c5.741-9.225,11.096-39.769,14.92-66.875c3.499-24.868,5.704-46.858,5.704-46.858
				s28.831,48.16,39.441,72.693c9.851,22.804,39.429,49.096,39.429,49.096c-3.948,0-10.137-2.014-10.511-2.136
				c5.094,3.763,8.817,10.72,8.817,10.72c-15.978-8.584-23.114-9.398-23.114-9.398c29.229,45.068,61.871,74.046,61.871,74.046
				c0,4.821,6.115,16.63,6.115,16.63c-8.033-0.529-25.281-10.934-25.817-11.259c4.073,8.584,22.417,27.757,22.417,27.757
				c-12.23,1.475-30.599-10.059-30.599-10.059c12.927,22.529,68.085,79.395,68.085,79.395V474.9
				C1189.887,473.822,1180.198,463.631,1180.198,463.631z"/>
			<path style="fill:#00782C;" d="M1029.373,153.295c0,0-10.301,9.187-22.694,5.991
				C1006.678,159.286,1020.264,169.166,1029.373,153.295z"/>
			<path style="fill:#00782C;" d="M1021.72,261.691c0,0-8.67,13.062-20.065,14.044c0,0,4.459-2.732,6.688-6.534
				c0,0-11.147,3.021-19.322,0C989.022,269.201,1012.555,267.068,1021.72,261.691z"/>
			<path style="fill:#00782C;" d="M1154.238,267.691c0,0,7.165,4.919,15.083,4.101
				C1169.322,271.793,1162.447,280.889,1154.238,267.691z"/>
			<path style="fill:#00782C;" d="M1119.925,190.193c0,0,10.514,1.684,15.886-1.194c0,0-2.246,4.702-7.916,5.256
				c0,0,11.651,1.663,18.065-0.608c0,0-4.953,9.232-22.584,1.589L1119.925,190.193z"/>
			<path style="fill:#00782C;" d="M1020.667,421.524c0,0-7.939,5.454-36.13,2.573
				C984.536,424.097,1005.704,437.918,1020.667,421.524z"/>
			<path style="fill:#00782C;" d="M1012.272,430.46c0,0-9.48,3.886-22.219,3.115C990.053,433.575,999.969,441.986,1012.272,430.46z"
				/>
		</g>
		<g>
			<path style="fill:#005920;" d="M1083.697,416.398c0,0,3.108,17.901-6.429,31.093
				C1077.268,447.491,1102.593,437.59,1083.697,416.398z"/>
			<path style="fill:#005920;" d="M1123.462,223.149c0,0-3.102,11.041,2.096,19.452
				C1125.558,242.601,1110.158,235.867,1123.462,223.149z"/>
			<path style="fill:#005920;" d="M1062.221,410.586c0,0-4.86,23.279-32.474,36.905
				C1029.747,447.491,1075.229,439.289,1062.221,410.586z"/>
			<path style="fill:#005920;" d="M1139.687,292.404c0,0-10.344-2.37-15.268-7.716c0,0,3.464,33.193,43.082,33.639
				c0,0-12.273-7.68-16.175-16.347c0,0,9.324,0.503,13.752-2.601c0,0-17.489-6.017-24.698-16.659
				C1140.379,282.719,1137.055,288.099,1139.687,292.404z"/>
			<path style="fill:#005920;" d="M1097.938,217.472c0,0-11.711,18.838-29.259,24.642
				C1068.679,242.114,1105.043,247.303,1097.938,217.472z"/>
			<path style="fill:#005920;" d="M1049.154,193.999c0,0,16.409,2.655,24.657-6.139c0,0,1.493,8.152-5.615,12.495
				c0,0,15.35-0.268,12.905-18.526c0,0,3.898-7.66-1.825-15.274C1079.276,166.556,1075.861,186.457,1049.154,193.999z"/>
		</g>
		<g>
			<path style="fill:#009436;" d="M1127.074,401.958c0,0,33.825,34.792,72.926,44.096c0,0-18.548,9.416-42.303-4.815
				c0,0-4.102,5.539-16.576,0.202C1132.749,437.86,1123.878,416.626,1127.074,401.958z"/>
			<path style="fill:#009436;" d="M1120.691,363.517c0,0,10.079,14.821,32.16,17.214
				C1152.851,380.73,1120.705,386.609,1120.691,363.517z"/>
			<path style="fill:#009436;" d="M1112.364,291.584c0,0-6.61,14.651-27.966,21.702
				C1084.398,313.287,1119.483,316.912,1112.364,291.584z"/>
			<path style="fill:#009436;" d="M1126.262,311.149c0,0-8.48,19.767-26.663,27.127c0,0,22.317,1.055,28.034-11.945
				c0,0,5.162,6.354,5.818,10.471C1133.451,336.802,1141.539,327.608,1126.262,311.149z"/>
			<path style="fill:#009436;" d="M1105.01,183.279c0,0,1.96,20.577,26.461,18.926c0,0-16.342,15.068-23.106,0.213
				c0,0-1.685,3.077-0.292,6.556C1108.074,208.975,1088.289,198.484,1105.01,183.279z"/>
			<path style="fill:#009436;" d="M1094.902,380.034c0,0-17.749,20.893-36.119,22.687c0,0,11.211,4.869,24.325-3.202
				c0,0-0.118,3.581-3.412,6.046C1079.697,405.565,1100.113,399.501,1094.902,380.034z"/>
		</g>
		<g>
			<path style="fill:#FAF8F4;" d="M1070.901,105.386c9.267,22.074,17.016,31.998,3.941,34c-15.766,2.414-36.68-58.362-36.68-58.362
				c3.499-24.868,5.704-46.858,5.704-46.858s28.831,48.16,39.441,72.693C1083.307,106.86,1063.738,88.323,1070.901,105.386z"/>
			<path style="fill:#FAF8F4;" d="M1083.307,367.89c0,0,0.399-13.66-5.505-31.551c0,0-20.038,46.329-6.588,72.957
				c-0.573-0.59-19.054-19.6-21.01-32.191c0,0,0.448,23.322-24.397,29.008h-0.012c0,0,4.533-10.11,6.588-14.545
				c0-0.01,0-0.01,0-0.02c-7.647,6.428-25.207,8.401-25.207,8.401c25.954-17.932,40.076-78.378,37.125-81.236
				c-3.288-3.173-7.236,6.398-7.236,6.398s-0.847-10.863-4.67-10.222c-3.861,0.651-15.131,22.6-15.131,22.6
				c3.362-13.955,9.826-35.884,9.826-35.884c-5.48,11.493-23.924,23.139-24.497,23.495c12.815-21.085,35.157-110.407,35.157-110.407
				c-4.944,7.801-15.156,13.324-15.792,13.66c6.115-7.252,11.707-26.933,11.707-26.933c-6.937,14.819-23.015,30.941-23.015,30.941
				c4.085-12.897,0-21.756,0-21.756c26.253-32.253,29.229-77.188,29.229-77.188s13.338,29.598,2.64,51.771
				c0.486-0.539,15.966-17.932,18.22-29.557c2.279-11.819,25.144,17.159-10.436,83.952c0,0,33.924-11.259,39.578-35.009
				c0,0,9.888,57.344-19.964,97.948c0,0,23.65-4.821,32.517-19.803C1102.437,282.718,1105.562,327.206,1083.307,367.89z"/>
			<path style="fill:#FAF8F4;" d="M1200,331.651c0,0-40.417-13.836-57.168-27.605c0,0,17.72,31.064,37.444,45.263
				c0,0-39.414-11.076-47.297-19.362c0,0-2.922,78.948,67.021,117.013l-1.002-33.557c0,0-19.707-17.028-26.605-29.438
				c0,0,17.771,12.182,27.607,15.981V331.651z"/>
			<path style="fill:#FAF8F4;" d="M1191.071,486.16c0,0-26.56-21.737-39.37-39.2c0,0,7.882,25.859,14.78,39.205L1191.071,486.16z"/>
			<path style="fill:#FAF8F4;" d="M1151.016,486.165c0,0-25.92-26.087-42.694-67.934c0,0-1.058,38.483,7.238,67.929
				L1151.016,486.165z"/>
			<path style="fill:#FAF8F4;" d="M1110.875,252.932c0,0,1.07,22.622,30.737,27.53c0,0-20.666,11.718-27.893-6.072
				c0,0-2.227,2.843-0.765,6.958C1112.955,281.349,1089.743,264.693,1110.875,252.932z"/>
		</g>
	</g>
</g>
<g id="TEXT">
	<g>
		<g>
			<g>
				
					<text transform="matrix(1 -0.0499 0 1 429.9986 167.1857)" style="fill:#420925; font-family:'Poppins-ExtraBoldItalic'; font-size:77.0708px; letter-spacing:4.994;">WINTER</text>
				<g>
					
						<text transform="matrix(1 -0.0499 0 1 435.1216 289.351)" style="fill:#FFFFFF; font-family:'Poppins-ExtraBold'; font-size:134.2199px;">SALE</text>
				</g>
			</g>
		</g>
		<text transform="matrix(1.0062 -8.049600e-04 8.000000e-04 1 438.1207 336.8135)"><tspan x="0" y="0" style="fill:#420925; font-family:'Poppins-MediumItalic'; font-size:22.7868px;">UP TO</tspan><tspan x="71.389" y="0" style="fill:#FFFFFF; font-family:'Poppins-MediumItalic'; font-size:22.7868px;"> </tspan><tspan x="79.137" y="0" style="fill:#F84D4C; font-family:'Poppins-Black'; font-size:22.7868px;">80% OFF</tspan><tspan x="184.981" y="0" style="fill:#2B2B2B; font-family:'Poppins-BoldItalic'; font-size:22.7868px;"> </tspan><tspan x="191.156" y="0" style="fill:#2B2B2B; font-family:'Poppins-SemiBoldItalic'; font-size:22.7868px;"> </tspan><tspan x="198.174" y="0" style="fill:#420925; font-family:'Poppins-MediumItalic'; font-size:22.7868px;">DISCOUNT</tspan></text>
		<g>
			
				<text transform="matrix(0.9999 -0.0174 0.0174 0.9999 563.0587 74.5778)" style="fill:#FFFFFF; font-family:'Poppins-Black'; font-size:23.3956px;">OFFER</text>
			
				<text transform="matrix(0.9999 -0.0174 0.0174 0.9999 564.0679 55.2888)" style="fill:#FFFFFF; font-family:'Poppins-Medium'; font-size:18.7165px;">SPECIAL</text>
		</g>
		<g>
			
				<text transform="matrix(1.0062 0 0 1 501.7832 414.1455)" style="fill:#FFFFFF; font-family:'Poppins-ExtraBoldItalic'; font-size:32.9443px; letter-spacing:0.994;">SHOP NOW</text>
		</g>
	</g>
</g>
</svg>
