<?xml version="1.0" encoding="utf-8"?>
<!-- Generator: Adobe Illustrator 27.5.0, SVG Export Plug-In . SVG Version: 6.00 Build 0)  -->
<svg version="1.1" xmlns="http://www.w3.org/2000/svg" xmlns:xlink="http://www.w3.org/1999/xlink" x="0px" y="0px"
	 viewBox="0 0 800 800" style="enable-background:new 0 0 800 800;" xml:space="preserve">
<g id="Background">
	
		<radialGradient id="SVGID_1_" cx="362.9284" cy="173.2837" r="1273.1239" gradientTransform="matrix(1.1289 0 0 1.0079 -51.4803 -3.455)" gradientUnits="userSpaceOnUse">
		<stop  offset="0" style="stop-color:#FFFFFF"/>
		<stop  offset="0.0105" style="stop-color:#FFFFFF"/>
		<stop  offset="0.4323" style="stop-color:#FFFFFF"/>
		<stop  offset="0.7771" style="stop-color:#FFFFFF"/>
		<stop  offset="1" style="stop-color:#FFFFFF"/>
	</radialGradient>
	<rect style="fill:url(#SVGID_1_);" width="800" height="800"/>
</g>
<g id="Objects">
	<g id="Design">
		<g style="opacity:0.4;">
			<path style="opacity:0;fill:#FFFFFF;" d="M732.14,629.422c0,41.435-142.435,75.022-318.14,75.022
				c-175.704,0-318.14-33.588-318.14-75.022c0-41.43,142.436-75.018,318.14-75.018C589.704,554.404,732.14,587.992,732.14,629.422z"
				/>
			<path style="opacity:0.0476;fill:#F2F2F2;" d="M721.493,628.516c0,39.962-137.669,72.356-307.493,72.356
				c-169.824,0-307.493-32.394-307.493-72.356c0-39.957,137.669-72.351,307.493-72.351
				C583.824,556.165,721.493,588.559,721.493,628.516z"/>
			<path style="opacity:0.0952;fill:#E7E8E9;" d="M710.847,627.611c0,38.489-132.903,69.689-296.847,69.689
				c-163.944,0-296.847-31.2-296.847-69.689c0-38.484,132.903-69.684,296.847-69.684
				C577.945,557.927,710.847,589.126,710.847,627.611z"/>
			<path style="opacity:0.1429;fill:#DDDEDF;" d="M700.201,626.705c0,37.016-128.136,67.022-286.201,67.022
				c-158.065,0-286.201-30.006-286.201-67.022c0-37.012,128.137-67.018,286.201-67.018
				C572.065,559.688,700.201,589.694,700.201,626.705z"/>
			<path style="opacity:0.1905;fill:#D2D3D5;" d="M689.555,625.8c0,35.543-123.37,64.355-275.555,64.355
				c-152.185,0-275.555-28.812-275.555-64.355c0-35.539,123.37-64.351,275.555-64.351
				C566.185,561.449,689.555,590.261,689.555,625.8z"/>
			<path style="opacity:0.2381;fill:#C8C9CB;" d="M678.909,624.894c0,34.07-118.603,61.688-264.909,61.688
				c-146.305,0-264.909-27.618-264.909-61.688c0-34.066,118.604-61.684,264.909-61.684
				C560.305,563.21,678.909,590.828,678.909,624.894z"/>
			<path style="opacity:0.2857;fill:#BEBFC1;" d="M668.263,623.989c0,32.597-113.837,59.021-254.263,59.021
				c-140.425,0-254.263-26.424-254.263-59.021c0-32.594,113.837-59.018,254.263-59.018
				C554.426,564.971,668.263,591.395,668.263,623.989z"/>
			<path style="opacity:0.3333;fill:#B4B6B8;" d="M657.616,623.083c0,31.124-109.071,56.354-243.616,56.354
				c-134.546,0-243.616-25.23-243.616-56.354c0-31.121,109.071-56.351,243.616-56.351
				C548.546,566.732,657.616,591.962,657.616,623.083z"/>
			<path style="opacity:0.381;fill:#AAACAE;" d="M646.97,622.177c0,29.651-104.304,53.688-232.97,53.688
				s-232.97-24.036-232.97-53.688c0-29.648,104.304-53.684,232.97-53.684S646.97,592.529,646.97,622.177z"/>
			<path style="opacity:0.4286;fill:#A0A2A4;" d="M636.324,621.272c0,28.179-99.538,51.021-222.324,51.021
				s-222.324-22.842-222.324-51.021c0-28.175,99.538-51.018,222.324-51.018S636.324,593.097,636.324,621.272z"/>
			<path style="opacity:0.4762;fill:#97999B;" d="M625.678,620.366c0,26.706-94.771,48.354-211.678,48.354
				s-211.678-21.648-211.678-48.354c0-26.703,94.771-48.351,211.678-48.351S625.678,593.664,625.678,620.366z"/>
			<path style="opacity:0.5238;fill:#8D8F91;" d="M615.032,619.461c0,25.233-90.005,45.687-201.032,45.687
				s-201.032-20.454-201.032-45.687c0-25.23,90.005-45.684,201.032-45.684S615.032,594.231,615.032,619.461z"/>
			<path style="opacity:0.5714;fill:#848688;" d="M604.386,618.555c0,23.76-85.239,43.02-190.386,43.02
				s-190.385-19.26-190.385-43.02c0-23.757,85.238-43.018,190.385-43.018S604.386,594.798,604.386,618.555z"/>
			<path style="opacity:0.619;fill:#7B7D7F;" d="M593.74,617.65c0,22.287-80.472,40.353-179.74,40.353
				c-99.268,0-179.739-18.066-179.739-40.353c0-22.285,80.472-40.351,179.739-40.351C513.267,577.299,593.74,595.365,593.74,617.65z
				"/>
			<path style="opacity:0.6667;fill:#727376;" d="M583.093,616.744c0,20.814-75.706,37.686-169.093,37.686
				c-93.388,0-169.093-16.872-169.093-37.686c0-20.812,75.705-37.684,169.093-37.684
				C507.388,579.06,583.093,595.932,583.093,616.744z"/>
			<path style="opacity:0.7143;fill:#696A6C;" d="M572.447,615.839c0,19.341-70.939,35.02-158.447,35.02
				c-87.508,0-158.447-15.678-158.447-35.02c0-19.339,70.939-35.018,158.447-35.018
				C501.508,580.821,572.447,596.499,572.447,615.839z"/>
			<path style="opacity:0.7619;fill:#5F6062;" d="M561.801,614.933c0,17.868-66.173,32.353-147.801,32.353
				c-81.628,0-147.801-14.484-147.801-32.353c0-17.866,66.172-32.351,147.801-32.351
				C495.628,582.582,561.801,597.067,561.801,614.933z"/>
			<path style="opacity:0.8095;fill:#555557;" d="M551.155,614.028c0,16.395-61.406,29.686-137.155,29.686
				c-75.749,0-137.155-13.29-137.155-29.686c0-16.394,61.406-29.684,137.155-29.684
				C489.748,584.343,551.155,597.634,551.155,614.028z"/>
			<path style="opacity:0.8571;fill:#49494B;" d="M540.509,613.122c0,14.923-56.64,27.019-126.509,27.019
				c-69.869,0-126.508-12.096-126.508-27.019c0-14.921,56.639-27.018,126.508-27.018
				C483.869,586.104,540.509,598.201,540.509,613.122z"/>
			<path style="opacity:0.9048;fill:#3E3D3E;" d="M529.863,612.216c0,13.45-51.874,24.352-115.863,24.352
				c-63.989,0-115.862-10.903-115.862-24.352c0-13.448,51.873-24.351,115.862-24.351
				C477.989,587.865,529.863,598.768,529.863,612.216z"/>
			<path style="opacity:0.9524;fill:#262526;" d="M519.216,611.311c0,11.977-47.107,21.685-105.216,21.685
				c-58.11,0-105.216-9.709-105.216-21.685c0-11.976,47.106-21.684,105.216-21.684C472.109,589.627,519.216,599.335,519.216,611.311
				z"/>
			<path d="M508.57,610.405c0,10.504-42.341,19.019-94.57,19.019c-52.23,0-94.57-8.515-94.57-19.019
				c0-10.503,42.34-19.018,94.57-19.018C466.229,591.388,508.57,599.902,508.57,610.405z"/>
		</g>
		<g>
			<g>
				<path style="fill:#603813;" d="M444.5,233.023c2.398-111.107-28.673-151.224-56.012-151.818
					c-13.777-0.3-26.278,4.933-37.152,15.552c-23.646,23.094-37.824,70.324-37.93,126.34l-5.6-0.011
					c0.108-57.489,14.918-106.213,39.618-130.335c11.99-11.71,25.848-17.477,41.186-17.143
					c31.353,0.681,63.971,42.424,61.486,157.537L444.5,233.023z"/>
			</g>
			<path style="fill:#42210B;" d="M309.093,223.086c0.108-57.489,14.92-106.213,39.619-130.335
				c11.674-11.402,25.126-17.154,39.987-17.139c-0.029,0-0.059-0.003-0.088-0.004c-15.339-0.334-29.196,5.434-41.186,17.143
				c-24.7,24.122-39.511,72.847-39.618,130.335H309.093z M389.774,81.205c-0.4-0.008-0.797,0.003-1.197,0.004
				c27.318,0.68,58.319,40.83,55.923,151.814h1.287C448.185,121.916,417.114,81.799,389.774,81.205z"/>
			<path style="fill:#C69C6D;" d="M312.549,223.095l0.857,0.002c0.104-55.499,14.028-102.357,37.282-125.678
				c-0.071,0.069-0.145,0.134-0.217,0.204C326.948,120.595,312.8,167.46,312.549,223.095z M346.771,93.419
				c11.939-11.575,25.725-17.279,40.975-16.947c31.272,0.679,63.8,42.215,61.502,156.654l0.85,0.017
				c2.484-115.112-30.133-156.855-61.486-157.537c-15.339-0.334-29.196,5.434-41.186,17.143
				C347.205,92.967,346.989,93.199,346.771,93.419z"/>
		</g>
		
			<linearGradient id="SVGID_00000128447300937794777040000006469928880401162640_" gradientUnits="userSpaceOnUse" x1="200.4437" y1="447.9349" x2="542.4423" y2="424.935" gradientTransform="matrix(-1 0 0 1 797.96 0)">
			<stop  offset="0" style="stop-color:#C69C6D"/>
			<stop  offset="0.2387" style="stop-color:#C2986A"/>
			<stop  offset="0.4547" style="stop-color:#B78E60"/>
			<stop  offset="0.662" style="stop-color:#A57B4F"/>
			<stop  offset="0.8625" style="stop-color:#8B6238"/>
			<stop  offset="1" style="stop-color:#754C24"/>
		</linearGradient>
		<polygon style="fill:url(#SVGID_00000128447300937794777040000006469928880401162640_);" points="251.775,230.628 
			295.442,227.907 287.075,589.496 220.133,622.269 		"/>
		
			<linearGradient id="SVGID_00000068647136270406145040000014595060413513175690_" gradientUnits="userSpaceOnUse" x1="401.9741" y1="768.2991" x2="501.9743" y2="654.2989" gradientTransform="matrix(-1 0 0 1 797.96 0)">
			<stop  offset="0" style="stop-color:#C69C6D"/>
			<stop  offset="0.2387" style="stop-color:#C2986A"/>
			<stop  offset="0.4547" style="stop-color:#B78E60"/>
			<stop  offset="0.662" style="stop-color:#A57B4F"/>
			<stop  offset="0.8625" style="stop-color:#8B6238"/>
			<stop  offset="1" style="stop-color:#754C24"/>
		</linearGradient>
		<polygon style="fill:url(#SVGID_00000068647136270406145040000014595060413513175690_);" points="337.899,669.108 
			337.899,669.108 220.133,622.269 286.819,589.407 		"/>
		
			<linearGradient id="SVGID_00000047755533519821555890000009815309523231663544_" gradientUnits="userSpaceOnUse" x1="499.4037" y1="310.2617" x2="470.4036" y2="619.2612" gradientTransform="matrix(-1 0 0 1 797.96 0)">
			<stop  offset="0" style="stop-color:#C69C6D"/>
			<stop  offset="0.2387" style="stop-color:#C2986A"/>
			<stop  offset="0.4547" style="stop-color:#B78E60"/>
			<stop  offset="0.662" style="stop-color:#A57B4F"/>
			<stop  offset="0.8625" style="stop-color:#8B6238"/>
			<stop  offset="1" style="stop-color:#754C24"/>
		</linearGradient>
		<polygon style="fill:url(#SVGID_00000047755533519821555890000009815309523231663544_);" points="294.96,245.003 295.364,227.901 
			327.565,217.648 327.804,217.691 334.486,599.063 337.899,669.108 286.819,589.407 		"/>
		
			<linearGradient id="SVGID_00000054264346561336778680000017514968903510738363_" gradientUnits="userSpaceOnUse" x1="326.751" y1="650.0436" x2="332.7512" y2="-24.9561" gradientTransform="matrix(-1 -0.0048 -0.0048 1 799.3532 1.7053)">
			<stop  offset="0" style="stop-color:#C69C6D"/>
			<stop  offset="0.2387" style="stop-color:#C2986A"/>
			<stop  offset="0.4547" style="stop-color:#B78E60"/>
			<stop  offset="0.662" style="stop-color:#A57B4F"/>
			<stop  offset="0.8625" style="stop-color:#8B6238"/>
			<stop  offset="1" style="stop-color:#754C24"/>
		</linearGradient>
		<path style="fill:url(#SVGID_00000054264346561336778680000017514968903510738363_);" d="M590.016,236.79L327.56,217.655
			l6.926,381.408l3.413,70.045l271.56-61.927c0,0-2.809-18.222-5.039-70.3C604.021,527.567,590.016,236.79,590.016,236.79z"/>
		<g>
			<path style="fill:#A67C52;" d="M327.557,217.64l0.413,6.341l7.36,375.029c-0.006-0.073,2.605,68.111,2.605,68.111l-0.03,1.985
				l-0.485-1.969l-3.715-68.459c-0.728-10.771-2.054-43.83-3.828-133.019c-0.737-37.11-1.921-82.044-2.585-142.148
				c-0.512-46.313,0.9-35.273,0.074-99.474L327.557,217.64z"/>
		</g>
		<g style="opacity:0.8;">
			
				<text transform="matrix(1 -0.1763 0 1 368.3278 512.2083)" style="fill:#603813; font-family:'BebasNeue'; font-size:132.7151px;">SALE</text>
			
				<text transform="matrix(1 -0.1763 0 1 424.7533 379.1084)" style="fill:#603813; font-family:'Lobster1.4'; font-size:68.8579px;">Big</text>
			<polygon style="fill:#603813;" points="524,344.857 548,340.531 548,337.993 524,342.319 			"/>
			<polygon style="fill:#603813;" points="524,351.626 548,347.3 548,342.223 524,346.55 			"/>
			<polygon style="fill:#603813;" points="392,368.131 419,363.357 419,360.819 392,365.593 			"/>
			<polygon style="fill:#603813;" points="392,374.899 419,370.126 419,365.05 392,369.823 			"/>
		</g>
		<g>
			<g>
				<path style="fill:#9C9C9C;" d="M513.887,256.531c0.078,5.725,4.016,10.306,8.796,10.225c4.778-0.076,8.591-4.784,8.516-10.51
					c-0.077-5.725-4.017-10.305-8.796-10.228C517.623,246.098,513.81,250.804,513.887,256.531z"/>
				
					<radialGradient id="SVGID_00000158729837971409996120000003083827629775652739_" cx="274.7844" cy="255.8181" r="13.187" gradientTransform="matrix(-0.9388 -0.0043 -0.0049 1 782.1479 1.7205)" gradientUnits="userSpaceOnUse">
					<stop  offset="0.2131" style="stop-color:#000000"/>
					<stop  offset="0.3246" style="stop-color:#030303"/>
					<stop  offset="0.4046" style="stop-color:#0C0C0C"/>
					<stop  offset="0.4747" style="stop-color:#1C1C1C"/>
					<stop  offset="0.5392" style="stop-color:#323232"/>
					<stop  offset="0.5998" style="stop-color:#4F4F4F"/>
					<stop  offset="0.6576" style="stop-color:#727272"/>
					<stop  offset="0.7131" style="stop-color:#9C9C9C"/>
					<stop  offset="0.7654" style="stop-color:#CCCCCC"/>
					<stop  offset="0.8142" style="stop-color:#FFFFFF"/>
					<stop  offset="0.8332" style="stop-color:#F5F5F5"/>
					<stop  offset="0.8659" style="stop-color:#D9D9D9"/>
					<stop  offset="0.9082" style="stop-color:#ACACAC"/>
					<stop  offset="0.958" style="stop-color:#6F6F6F"/>
					<stop  offset="1" style="stop-color:#363636"/>
				</radialGradient>
				<path style="fill:url(#SVGID_00000158729837971409996120000003083827629775652739_);" d="M509.734,256.564
					c0.095,7.106,5.305,12.301,11.613,12.675c6.09,0.361,12.014-4.082,11.948-12.846c-0.05-6.785-4.518-12.648-11.807-12.848
					C515.174,243.372,509.639,249.461,509.734,256.564z M515.028,256.511c-0.067-4.97,3.243-9.091,7.394-9.125
					c3.586-0.03,6.93,3.903,6.996,8.874c0.066,4.974-3.014,8.956-7.162,9.023C518.105,265.353,515.095,261.485,515.028,256.511z"/>
			</g>
			<g>
				<path style="fill:#9C9C9C;" d="M388.087,249.712c0.085,6.044,4.241,10.882,9.289,10.796c5.043-0.08,9.07-5.052,8.99-11.097
					c-0.083-6.043-4.242-10.879-9.287-10.797C392.033,238.698,388.006,243.665,388.087,249.712z"/>
				
					<radialGradient id="SVGID_00000137846488260726267180000014524280788445614478_" cx="408.2783" cy="249.5645" r="13.922" gradientTransform="matrix(-0.9388 -0.0043 -0.0049 1 782.1479 1.7205)" gradientUnits="userSpaceOnUse">
					<stop  offset="0.2131" style="stop-color:#000000"/>
					<stop  offset="0.3246" style="stop-color:#030303"/>
					<stop  offset="0.4046" style="stop-color:#0C0C0C"/>
					<stop  offset="0.4747" style="stop-color:#1C1C1C"/>
					<stop  offset="0.5392" style="stop-color:#323232"/>
					<stop  offset="0.5998" style="stop-color:#4F4F4F"/>
					<stop  offset="0.6576" style="stop-color:#727272"/>
					<stop  offset="0.7131" style="stop-color:#9C9C9C"/>
					<stop  offset="0.7654" style="stop-color:#CCCCCC"/>
					<stop  offset="0.8142" style="stop-color:#FFFFFF"/>
					<stop  offset="0.8332" style="stop-color:#F5F5F5"/>
					<stop  offset="0.8659" style="stop-color:#D9D9D9"/>
					<stop  offset="0.9082" style="stop-color:#ACACAC"/>
					<stop  offset="0.958" style="stop-color:#6F6F6F"/>
					<stop  offset="1" style="stop-color:#363636"/>
				</radialGradient>
				<path style="fill:url(#SVGID_00000137846488260726267180000014524280788445614478_);" d="M383.706,249.746
					c0.099,7.503,5.6,12.989,12.262,13.384c6.429,0.381,12.681-4.309,12.612-13.564c-0.053-7.162-4.769-13.352-12.465-13.563
					C389.445,235.818,383.602,242.248,383.706,249.746z M389.293,249.691c-0.07-5.248,3.425-9.598,7.805-9.634
					c3.788-0.031,7.316,4.12,7.389,9.369c0.069,5.25-3.184,9.454-7.563,9.527C392.539,259.026,389.364,254.942,389.293,249.691z"/>
			</g>
		</g>
		<g>
			<path style="fill:#603813;" d="M390.347,244.776c0.872-1.59,1.463-2.22,1.463-2.22c0.247-0.036,0.499-0.089,0.753-0.173
				c0.554-0.184,1.391-0.46,1.073-2.55l-0.273-1.784c-4.683-30.669-18.932-124,8.309-155.083
				c6.344-7.236,14.52-10.807,24.304-10.612c10.127,0.202,36.201,3.974,59.543,34.565c23.393,30.66,36.631,78.208,39.347,141.325
				c0.093,2.172-0.86,4.204-2.616,5.573c-2.054,1.603-4.701,2.235-7.227,1.484c0,0,0.185-1.362,0.816-2.968
				c0.55-1.394,1.482-2.443,1.482-2.443c1.588-0.012,1.961-1.156,1.949-1.404c-5.359-124.605-53.668-169.741-93.407-170.532
				c-8.169-0.163-14.704,2.684-19.981,8.705c-25.521,29.122-11.568,120.515-6.984,150.548l0.273,1.787
				c0.645,4.233-1.167,7.489-4.849,8.707c-2.065,0.685-3.969,0.526-4.918,0.407C389.403,248.105,389.475,246.366,390.347,244.776z"
				/>
			<path style="fill:#42210B;" d="M433.449,78.637c38.06,6.1,80.798,53.079,85.82,169.847c0.012,0.249-0.361,1.393-1.949,1.404
				l1.184,0.17c1.586-0.012,1.959-1.156,1.949-1.405C515.377,130.674,471.802,83.945,433.449,78.637z M393.746,242.552
				c0.553-0.184,1.39-0.46,1.072-2.549c0-0.001-0.272-1.785-0.272-1.785c-4.684-30.669-18.931-124.002,8.309-155.083
				c6.342-7.236,14.518-10.807,24.302-10.612c1.662,0.033,3.762,0.167,6.201,0.495c-2.951-0.456-5.457-0.626-7.383-0.664
				c-9.783-0.194-17.96,3.376-24.304,10.612c-27.24,31.083-12.991,124.415-8.309,155.083l0.273,1.784
				c0.317,2.089-0.52,2.366-1.073,2.55c-0.254,0.084-0.506,0.138-0.753,0.173C391.81,242.556,393.492,242.637,393.746,242.552z"/>
			<path style="fill:#C69C6D;" d="M402.672,81.88c6.01-5.752,13.456-8.586,22.187-8.413c10.128,0.202,36.202,3.974,59.545,34.565
				c23.394,30.659,36.631,78.209,39.346,141.324c0.069,1.615-0.441,3.151-1.429,4.396c1.707-1.369,2.635-3.37,2.544-5.51
				c-2.716-63.117-15.954-110.665-39.347-141.325c-23.342-30.591-49.416-34.363-59.543-34.565
				C416.694,72.169,408.866,75.377,402.672,81.88z M396.663,246.463c2.072-1.626,2.996-4.267,2.507-7.472l-0.273-1.787
				c-4.584-30.033-18.537-121.425,6.984-150.548c0.275-0.313,0.556-0.613,0.836-0.908c-0.669,0.63-1.318,1.302-1.95,2.022
				c-25.523,29.122-11.569,120.516-6.983,150.548l0.272,1.787C398.445,242.659,397.934,244.853,396.663,246.463z"/>
		</g>
		<g style="opacity:0.3;">
			<polygon style="fill:#42210B;" points="295.303,227.9 295.911,232.617 287.666,581.963 286.785,589.443 286.355,581.922 
				294.695,232.672 			"/>
		</g>
		<g style="opacity:0.3;">
			<polygon style="fill:#42210B;" points="286.746,589.401 290.033,593.236 334.207,662.445 337.848,668.987 333.122,663.185 
				288.914,593.856 			"/>
		</g>
		<g style="opacity:0.3;">
			<polygon style="fill:#42210B;" points="286.814,589.414 281.574,591.318 226.342,618.469 220.197,622.283 226.993,619.778 
				282.167,592.363 			"/>
		</g>
	</g>
</g>
</svg>
