<?xml version="1.0" encoding="UTF-8"?>
<svg width="318px" height="198px" viewBox="0 0 318 198" version="1.1" xmlns="http://www.w3.org/2000/svg" xmlns:xlink="http://www.w3.org/1999/xlink">
    <!-- Generator: Sketch 59 (86127) - https://sketch.com -->
    <title>Group 29</title>
    <desc>Created with Sketch.</desc>
    <defs>
        <linearGradient x1="0%" y1="50%" x2="99.2634596%" y2="57.1419936%" id="linearGradient-1">
            <stop stop-color="#F82E94" offset="0%"></stop>
            <stop stop-color="#FF9E33" offset="100%"></stop>
        </linearGradient>
        <linearGradient x1="0%" y1="50%" x2="99.2634596%" y2="56.469078%" id="linearGradient-2">
            <stop stop-color="#F82E94" offset="0%"></stop>
            <stop stop-color="#FF9E33" offset="100%"></stop>
        </linearGradient>
        <linearGradient x1="0%" y1="50%" x2="99.2634596%" y2="57.1616137%" id="linearGradient-3">
            <stop stop-color="#F82E94" offset="0%"></stop>
            <stop stop-color="#FF9E33" offset="100%"></stop>
        </linearGradient>
        <linearGradient x1="13.708956%" y1="50%" x2="85.7564476%" y2="58.8948827%" id="linearGradient-4">
            <stop stop-color="#F82E94" offset="0%"></stop>
            <stop stop-color="#FF9E33" offset="100%"></stop>
        </linearGradient>
        <linearGradient x1="45.0159053%" y1="50%" x2="54.910675%" y2="58.8948827%" id="linearGradient-5">
            <stop stop-color="#F82E94" offset="0%"></stop>
            <stop stop-color="#FF9E33" offset="100%"></stop>
        </linearGradient>
        <linearGradient x1="18.8799443%" y1="50%" x2="80.6616321%" y2="58.8948827%" id="linearGradient-6">
            <stop stop-color="#F82E94" offset="0%"></stop>
            <stop stop-color="#FF9E33" offset="100%"></stop>
        </linearGradient>
        <linearGradient x1="6.75650373%" y1="50%" x2="92.6064846%" y2="58.8948827%" id="linearGradient-7">
            <stop stop-color="#F82E94" offset="0%"></stop>
            <stop stop-color="#FF9E33" offset="100%"></stop>
        </linearGradient>
        <linearGradient x1="2.02670646%" y1="50%" x2="97.2666081%" y2="58.8948827%" id="linearGradient-8">
            <stop stop-color="#F82E94" offset="0%"></stop>
            <stop stop-color="#FF9E33" offset="100%"></stop>
        </linearGradient>
        <linearGradient x1="13.2609174%" y1="50%" x2="86.1978862%" y2="58.8948827%" id="linearGradient-9">
            <stop stop-color="#F82E94" offset="0%"></stop>
            <stop stop-color="#FF9E33" offset="100%"></stop>
        </linearGradient>
        <linearGradient x1="0%" y1="50%" x2="99.2634596%" y2="58.0732495%" id="linearGradient-10">
            <stop stop-color="#F82E94" offset="0%"></stop>
            <stop stop-color="#FF9E33" offset="100%"></stop>
        </linearGradient>
        <linearGradient x1="7.9547164%" y1="50%" x2="91.4259226%" y2="58.8948827%" id="linearGradient-11">
            <stop stop-color="#F82E94" offset="0%"></stop>
            <stop stop-color="#FF9E33" offset="100%"></stop>
        </linearGradient>
        <linearGradient x1="13.3984629%" y1="50%" x2="86.0623669%" y2="58.8948827%" id="linearGradient-12">
            <stop stop-color="#F82E94" offset="0%"></stop>
            <stop stop-color="#FF9E33" offset="100%"></stop>
        </linearGradient>
    </defs>
    <g id="Page-1" stroke="none" stroke-width="1" fill="none" fill-rule="evenodd">
        <g id="About-" transform="translate(-1121.000000, -4380.000000)">
            <g id="Group-60" transform="translate(0.000000, 4380.000000)">
                <g id="Group-40">
                    <g id="Group-29" transform="translate(1121.000000, 0.000000)">
                        <g id="Combined-Shape-8" opacity="0.5" transform="translate(66.271443, 35.963285)" fill="url(#linearGradient-1)" fill-rule="nonzero">
                            <path d="M21.0898793,-2.85993451e-13 L22.9679919,0.895372983 C23.2759436,1.04225491 23.5490435,1.23901777 23.7798767,1.47297261 C25.1108809,0.717168366 26.6146886,0.538857314 27.9996087,0.859531209 L28.0114369,0.793383254 L45.6303616,4.02650065 C45.7687366,4.05167469 45.8863397,4.12266688 45.9712916,4.22054941 C46.0611719,4.22818093 46.1497871,4.27313002 46.2089574,4.36045147 L53.2814724,14.8447151 L45.2659811,27.255 L48.35151,32.598866 C48.736588,33.2658405 48.5441309,34.1078709 47.9293417,34.5457325 L47.8091574,34.6229538 L25.427606,47.5449485 C24.7189456,47.9540937 23.8126636,47.7112562 23.4035183,47.0025958 L23.4035183,47.0025958 L20.3169811,41.658 L5.64471903,42.3888478 L0.102109966,31.0233079 C0.0641373177,30.9467841 0.0600111288,30.8673111 0.0803269254,30.7964071 C-0.00369837465,30.6517791 -0.0266106042,30.4716945 0.0345372637,30.2999506 L0.0345372637,30.2999506 L6.04416813,13.4245905 L6.19022879,13.4761272 C6.57740052,12.0198852 7.5214862,10.7119153 8.92962989,9.89892316 L8.83231099,9.95665654 C8.77564061,9.68974172 8.75631766,9.41201882 8.77845994,9.13070785 L8.77845994,9.13070785 L8.9420977,7.05656348 L9.17436691,7.11851181 C9.20802171,7.06751703 9.25460515,7.02242169 9.31470824,6.98772116 L20.8127893,0.34930094 C20.8779745,0.311666243 20.9457973,0.293917172 21.0116668,0.292538369 L21.0898793,-2.85993451e-13 Z M31.3222204,3.89894439 C29.8408061,1.33305944 26.5594353,0.453818782 23.9935503,1.93523315 L24.1088855,1.87251711 C24.4673552,2.39742373 24.6508637,3.03787405 24.6047289,3.7002913 L23.975473,12.7820754 L18.9899811,10.387 L18.568928,15.946622 L10.3892998,11.9507086 C9.74112138,11.6343468 9.25086511,11.0963497 8.98731496,10.4573206 C6.57353063,11.9901129 5.77685937,15.1680822 7.21996057,17.6676068 L7.21996057,17.6676068 L17.0685764,34.7259099 L16.8299811,34.862 L21.6152781,36.1164139 L20.951419,41.6265214 L20.8879811,41.629 L23.8435318,46.7485539 C24.0916935,47.1783825 24.6182276,47.3474156 25.064009,47.159426 L25.1735641,47.104935 L47.5551154,34.1829403 C48.0207631,33.9140985 48.1803383,33.3185556 47.9114965,32.852908 L47.9114965,32.852908 L44.9409811,27.708 L39.8636756,25.5396669 L41.1349811,20.896 Z M0.739707689,31.1716128 L5.95439496,41.8647113 L20.4982315,41.1403781 L21.0578375,36.4955843 L8.56098108,33.221 L8.54862357,33.245315 L3.87198108,31.992 L0.739707689,31.1716128 Z M36.2374365,35.3822457 L37.0329739,36.7601568 L36.5929604,37.0141988 L35.797423,35.6362876 L36.2374365,35.3822457 Z M34.394318,35.0621606 C34.6173827,35.4485199 34.4848784,35.9430327 34.0985191,36.1660974 C33.7121597,36.389162 33.2176469,36.2566577 32.9945822,35.8702984 C32.7715176,35.4839391 32.9040219,34.9894262 33.2903812,34.7663616 C33.6767405,34.5432969 34.1712534,34.6758013 34.394318,35.0621606 Z M33.5444231,35.2063751 C33.4010766,35.2891363 33.3518346,35.4729099 33.4345958,35.6162565 C33.5173569,35.759603 33.7011306,35.808845 33.8444771,35.7260839 C33.9878237,35.6433227 34.0370657,35.459549 33.9543045,35.3162025 C33.8715433,35.1728559 33.6877697,35.1236139 33.5444231,35.2063751 Z M11.9079811,26.804 L8.80198108,32.759 L16.5129811,34.779 L11.9079811,26.804 Z M34.0211992,31.5436101 L35.3849775,33.9057434 L34.944964,34.1597853 L33.5811857,31.797652 L34.0211992,31.5436101 Z M5.99279733,15.0813318 L0.513182068,30.4703863 C0.496519436,30.5171861 0.523695374,30.5689448 0.571778168,30.5819186 L0.571778168,30.5819186 L4.08998108,31.524 L8.29798108,32.627 L11.571518,26.3510502 L11.6789811,26.407 L6.77994706,17.9216487 C6.26215406,17.0248049 6.00776844,16.0481711 5.99279733,15.0813318 Z M31.5814765,30.1901761 C31.8045411,30.5765354 31.6720368,31.0710482 31.2856775,31.2941129 C30.8993182,31.5171775 30.4048053,31.3846732 30.1817407,30.9983139 C29.958676,30.6119546 30.0911804,30.1174417 30.4775397,29.8943771 C30.863899,29.6713124 31.3584118,29.8038168 31.5814765,30.1901761 Z M30.7315816,30.3343906 C30.588235,30.4171518 30.538993,30.6009254 30.6217542,30.744272 C30.7045154,30.8876185 30.888289,30.9368605 31.0316356,30.8540994 C31.1749821,30.7713382 31.2242241,30.5875645 31.141463,30.444218 C31.0587018,30.3008714 30.8749281,30.2516294 30.7315816,30.3343906 Z M29.5735051,23.6127791 L33.4946117,30.4043349 L33.0545982,30.6583768 L29.1334916,23.866821 L29.5735051,23.6127791 Z M46.0319811,5.007 L43.9244601,12.8726675 L43.8599811,12.869 L40.4707826,25.2464643 L44.7735006,27.0840133 L52.6727189,14.8508341 L46.0319811,5.007 Z M28.7685374,25.3180226 C28.991602,25.7043819 28.8590977,26.1988948 28.4727384,26.4219594 C28.0863791,26.6450241 27.5918662,26.5125197 27.3688016,26.1261604 C27.1457369,25.7398011 27.2782412,25.2452883 27.6646005,25.0222236 C28.0509599,24.799159 28.5454727,24.9316633 28.7685374,25.3180226 Z M27.9186425,25.4622371 C27.7752959,25.5449983 27.7260539,25.728772 27.8088151,25.8721185 C27.8915763,26.0154651 28.0753499,26.0647071 28.2186965,25.9819459 C28.362043,25.8991847 28.411285,25.7154111 28.3285238,25.5720645 C28.2457627,25.428718 28.061989,25.379476 27.9186425,25.4622371 Z M25.9556958,20.4460381 C26.1787604,20.8323974 26.0462561,21.3269103 25.6598968,21.5499749 C25.2735375,21.7730396 24.7790247,21.6405352 24.55596,21.2541759 C24.3328954,20.8678166 24.4653997,20.3733038 24.851759,20.1502391 C25.2381183,19.9271745 25.7326311,20.0596788 25.9556958,20.4460381 Z M25.1058009,20.5902526 C24.9624543,20.6730138 24.9132123,20.8567875 24.9959735,21.000134 C25.0787347,21.1434806 25.2625083,21.1927226 25.4058549,21.1099614 C25.5492015,21.0272002 25.5984435,20.8434266 25.5156823,20.70008 C25.4329211,20.5567335 25.2491475,20.5074915 25.1058009,20.5902526 Z M32.9026765,10.6755837 L36.2620554,16.4941988 L33.7866487,20.2437962 L29.1758358,20.0725879 L26.1173882,14.5930717 L32.9026765,10.6755837 Z M36.9159811,12.572 L41.3239811,20.206 L43.3389811,12.847 L36.9159811,12.572 Z M32.7167049,11.3696392 L26.805104,14.7827035 L27.7709811,16.513 L28.6286317,16.0188815 L28.8826736,16.458895 L28.0189811,16.957 L29.4802278,19.5754566 L33.5200237,19.7254619 L35.6650445,16.4763132 L32.7167049,11.3696392 Z M23.1427323,15.5738424 C23.3657969,15.9602017 23.2332926,16.4547146 22.8469333,16.6777792 C22.460574,16.9008439 21.9660612,16.7683395 21.7429965,16.3819802 C21.5199319,15.9956209 21.6524362,15.5011081 22.0387955,15.2780434 C22.4251548,15.0549788 22.9196676,15.1874831 23.1427323,15.5738424 Z M22.2928374,15.7180569 C22.1494908,15.8008181 22.1002488,15.9845918 22.18301,16.1279383 C22.2657712,16.2712849 22.4495448,16.3205269 22.5928914,16.2377657 C22.736238,16.1550045 22.78548,15.9712309 22.7027188,15.8278843 C22.6199576,15.6845378 22.436184,15.6352958 22.2928374,15.7180569 Z M33.6588757,13.0819458 L33.9129176,13.5219593 L30.1479508,15.6956639 L29.8939089,15.2556504 L33.6588757,13.0819458 Z M9.39698108,7.741 L9.28497353,9.17062243 C9.2083346,10.1442968 9.73457248,11.0657783 10.612238,11.4941479 L10.612238,11.4941479 L18.1189271,15.1613169 L18.4968877,10.1806102 C18.4922133,10.179545 18.4875393,10.1783966 18.4828674,10.1771642 L9.41402569,7.74717461 L9.39698108,7.741 Z M29.8690997,1.65081854 C30.6257599,2.13993396 31.2808162,2.81106249 31.7622339,3.64490247 L31.7622339,3.64490247 L36.6149811,12.05 L43.4769811,12.344 L45.6048244,4.58380756 C45.5989793,4.56608328 45.587496,4.55057672 45.5720607,4.53992465 L45.5390393,4.52630989 Z M21.4206789,0.815630578 L19.0239811,9.758 L19.0378631,9.76171566 L19.0309811,9.842 L23.5203753,11.9997683 L24.0978665,3.66508112 C24.1657141,2.69090608 23.6308066,1.77442993 22.7493022,1.3539839 L21.4348364,0.726030078 C21.4333576,0.755265077 21.4287497,0.785217139 21.4206789,0.815630578 Z M20.8429811,0.918 L9.80898108,7.288 L18.5119811,9.62 L20.8429811,0.918 Z" id="Combined-Shape"></path>
                        </g>
                        <g id="Combined-Shape-4" opacity="0.300000012" transform="translate(227.984914, 70.205588)" fill="url(#linearGradient-2)" fill-rule="nonzero">
                            <path d="M36.1847634,1.03028697e-13 L45.7647976,2.56650342 L40.789,8.131 L49.651334,23.2029444 L35.956,38.645 L36.037132,38.7853919 L35.793,38.829 L35.6344535,39.0099466 L35.555,38.873 L16.4886502,42.3430367 L7.962,27.318 L4.97379915e-14,28.9812013 L3.17453493,18.9281074 L3.24273619,18.8195532 L17.152986,5.73623901 L17.253608,5.67814483 L36.0455698,0.0021976145 L36.1847634,1.03028697e-13 Z M22.72,16.736 L22.3351996,24.3164878 L8.484,27.209 L16.752521,41.7785853 L35.2364195,38.4146849 L22.72,16.736 Z M40.433,8.529 L30.5715173,19.5612476 L22.7791004,15.574866 L22.772,15.715 L35.7220027,38.1454185 L49.026179,23.1421413 L40.433,8.529 Z M31.5974535,34.9427746 L31.6387721,34.9984699 L32.2192616,36.0039071 C32.3022314,36.1476151 32.2529934,36.3313739 32.1092854,36.4143437 C31.9861071,36.4854608 31.8335038,36.4594455 31.7401674,36.3600628 L31.6988488,36.3043676 L31.1183593,35.2989303 C31.0353895,35.1552223 31.0846275,34.9714636 31.2283355,34.8884937 C31.3515138,34.8173767 31.5041171,34.843392 31.5974535,34.9427746 Z M30.3956116,32.8611234 L30.4369302,32.9168187 L31.0378512,33.9576443 C31.120821,34.1013523 31.071583,34.285111 30.927875,34.3680809 C30.8046967,34.4391979 30.6520934,34.4131826 30.558757,34.3138 L30.5174384,34.2581047 L29.9165175,33.2172792 C29.8335476,33.0735711 29.8827856,32.8898124 30.0264936,32.8068425 C30.1496719,32.7357255 30.3022752,32.7617408 30.3956116,32.8611234 Z M29.1937697,30.7794723 L29.2350884,30.8351675 L29.8360093,31.8759931 C29.9189792,32.0197011 29.8697412,32.2034599 29.7260332,32.2864297 C29.6028549,32.3575468 29.4502515,32.3315315 29.3569152,32.2321488 L29.3155965,32.1764536 L28.7146756,31.135628 C28.6317057,30.99192 28.6809437,30.8081612 28.8246518,30.7251914 C28.9478301,30.6540743 29.1004334,30.6800896 29.1937697,30.7794723 Z M24.6868627,22.9732804 L24.7281814,23.0289756 L28.333707,29.2739291 C28.4166769,29.4176372 28.3674388,29.6013959 28.2237308,29.6843658 C28.1005525,29.7554828 27.9479492,29.7294675 27.8546129,29.6300849 L27.8132942,29.5743896 L24.2077686,23.3294361 C24.1247988,23.1857281 24.1740368,23.0019693 24.3177448,22.9189995 C24.4409231,22.8478824 24.5935264,22.8738977 24.6868627,22.9732804 Z M22.1697505,15.7825502 L3.60547727,19.2940181 L3.6,19.267 L0.745909514,28.3063714 L8.1,26.77 L8.20272608,26.7129829 L8.221,26.745 L21.8476476,23.8992667 L22.252,15.925 L22.1697505,15.7825502 Z M46.2123016,20.9897375 L46.2536202,21.0454328 L46.8545412,22.0862584 C46.937511,22.2299664 46.888273,22.4137251 46.744565,22.496695 C46.6213867,22.567812 46.4687834,22.5417967 46.375447,22.4424141 L46.3341284,22.3867188 L45.7332075,21.3458932 C45.6502376,21.2021852 45.6994756,21.0184265 45.8431836,20.9354566 C45.9663619,20.8643396 46.1189652,20.8903549 46.2123016,20.9897375 Z M45.0104597,18.9080864 L45.0517784,18.9637816 L45.6526993,20.0046072 C45.7356692,20.1483152 45.6864312,20.332074 45.5427232,20.4150438 C45.4195449,20.4861608 45.2669415,20.4601456 45.1736052,20.3607629 L45.1322865,20.3050677 L44.5313656,19.2642421 C44.4483957,19.120534 44.4976337,18.9367753 44.6413418,18.8538054 C44.7645201,18.7826884 44.9171234,18.8087037 45.0104597,18.9080864 Z M36.1231934,0.50950612 L36.099,0.516 L36.1136015,0.52903511 L23.004,15.118 L30.4539692,18.9304046 L44.8355828,2.84356638 L36.1231934,0.50950612 Z M35.196,0.789 L17.457642,6.14727221 L4.137,18.676 L22.193,15.261 L35.196,0.789 Z M40.5035528,11.1018945 L40.5448714,11.1575897 L44.150397,17.4025432 C44.2333669,17.5462513 44.1841288,17.73001 44.0404208,17.8129799 C43.9172425,17.8840969 43.7646392,17.8580816 43.6713029,17.7586989 L43.6299842,17.7030037 L40.0244586,11.4580502 C39.9414888,11.3143422 39.9907268,11.1305834 40.1344348,11.0476136 C40.2576131,10.9764965 40.4102164,11.0025118 40.5035528,11.1018945 Z" id="Combined-Shape"></path>
                        </g>
                        <g id="Group-13" opacity="0.300000012" transform="translate(170.812160, 128.418058)">
                            <path d="M36.6338068,14.8432087 C36.1514117,15.2914606 35.6265814,15.7543453 35.1300412,16.2464956 C33.9730734,17.3932205 33.1146149,18.742366 32.699043,20.3144181 C32.0073986,22.9317408 32.6683141,25.2744545 34.4783932,27.2333006 C35.4670837,28.3039348 36.6406355,29.2038529 37.8029687,30.2461971 C37.4210522,31.5719301 36.6933136,32.8801037 35.9255786,34.1619383 C34.9700558,35.7578906 33.8365004,37.2240986 32.4922325,38.5156884 C32.1483614,38.84639 31.7737613,39.1541669 31.3767243,39.4175575 C30.0505035,40.2965019 28.6213653,40.5613559 27.0883341,40.0399399 C26.6659335,39.8965383 26.237192,39.7555755 25.840155,39.5565693 C23.5052456,38.3869196 21.1693606,38.5059332 18.8198183,39.4985258 C18.4379019,39.6599745 18.0447669,39.7950841 17.6545585,39.9355592 C15.4557342,40.7271944 13.5695644,40.1969988 11.9838551,38.5395886 C9.7533264,36.2085813 7.98860896,33.5688215 6.77701191,30.566168 C5.54931877,27.5259569 4.98254108,24.3657567 5.24837055,21.1045901 C5.51468777,17.8312294 6.69409263,14.9563691 9.46018235,12.9531368 C11.0766206,11.7820239 12.8803589,11.1601293 14.9055404,11.1323269 C16.629286,11.1084266 18.2725511,11.3747439 19.8416765,12.089313 C19.9865414,12.1556484 20.1411615,12.2010101 20.2865141,12.2658823 C21.3586117,12.7468141 22.4336358,12.7746165 23.5447542,12.3717263 C24.6524582,11.9698117 25.7577235,11.5074147 26.9049361,11.2801183 C30.4251036,10.5835964 33.5535993,11.3493803 36.0850763,14.0286487 C36.2167716,14.1681482 36.3470036,14.3095987 36.4635784,14.4612922 C36.5186953,14.532993 36.5411323,14.6300574 36.6338068,14.8432087" id="Fill-1" fill="#FDFDFD" transform="translate(21.493484, 25.671497) rotate(-30.000000) translate(-21.493484, -25.671497) "></path>
                            <path d="M36.6338068,14.8432087 C36.1514117,15.2914606 35.6265814,15.7543453 35.1300412,16.2464956 C33.9730734,17.3932205 33.1146149,18.742366 32.699043,20.3144181 C32.0073986,22.9317408 32.6683141,25.2744545 34.4783932,27.2333006 C35.4670837,28.3039348 36.6406355,29.2038529 37.8029687,30.2461971 C37.4210522,31.5719301 36.6933136,32.8801037 35.9255786,34.1619383 C34.9700558,35.7578906 33.8365004,37.2240986 32.4922325,38.5156884 C32.1483614,38.84639 31.7737613,39.1541669 31.3767243,39.4175575 C30.0505035,40.2965019 28.6213653,40.5613559 27.0883341,40.0399399 C26.6659335,39.8965383 26.237192,39.7555755 25.840155,39.5565693 C23.5052456,38.3869196 21.1693606,38.5059332 18.8198183,39.4985258 C18.4379019,39.6599745 18.0447669,39.7950841 17.6545585,39.9355592 C15.4557342,40.7271944 13.5695644,40.1969988 11.9838551,38.5395886 C9.7533264,36.2085813 7.98860896,33.5688215 6.77701191,30.566168 C5.54931877,27.5259569 4.98254108,24.3657567 5.24837055,21.1045901 C5.51468777,17.8312294 6.69409263,14.9563691 9.46018235,12.9531368 C11.0766206,11.7820239 12.8803589,11.1601293 14.9055404,11.1323269 C16.629286,11.1084266 18.2725511,11.3747439 19.8416765,12.089313 C19.9865414,12.1556484 20.1411615,12.2010101 20.2865141,12.2658823 C21.3586117,12.7468141 22.4336358,12.7746165 23.5447542,12.3717263 C24.6524582,11.9698117 25.7577235,11.5074147 26.9049361,11.2801183 C30.4251036,10.5835964 33.5535993,11.3493803 36.0850763,14.0286487 C36.2167716,14.1681482 36.3470036,14.3095987 36.4635784,14.4612922 C36.5186953,14.532993 36.5411323,14.6300574 36.6338068,14.8432087 Z" id="Stroke-3" stroke="url(#linearGradient-3)" stroke-width="0.50808384" transform="translate(21.493484, 25.671497) rotate(-30.000000) translate(-21.493484, -25.671497) "></path>
                            <path d="M11.407604,11.2212045 C11.0520266,7.08450777 13.7039804,2.65954463 19.0951971,1.944 C19.4751625,2.87074492 19.1742143,3.81114714 19.0264228,4.71447956 C18.7235236,6.56309181 17.8728693,8.15465427 16.4066613,9.35649611 C14.9589881,10.5427296 13.2562163,11.0748763 11.407604,11.2212045" id="Fill-5" fill="#FAFAFA" transform="translate(15.327882, 6.582602) rotate(-30.000000) translate(-15.327882, -6.582602) "></path>
                            <path d="M11.407604,11.2212045 C11.0520266,7.08450777 13.7039804,2.65954463 19.0951971,1.944 C19.4751625,2.87074492 19.1742143,3.81114714 19.0264228,4.71447956 C18.7235236,6.56309181 17.8728693,8.15465427 16.4066613,9.35649611 C14.9589881,10.5427296 13.2562163,11.0748763 11.407604,11.2212045 Z" id="Stroke-7" stroke="url(#linearGradient-4)" stroke-width="0.50808384" transform="translate(15.327882, 6.582602) rotate(-30.000000) translate(-15.327882, -6.582602) "></path>
                            <path d="M29.8728285,9.33537499 L29.7373816,9.46600804 L29.688076,9.51518872 C29.5443225,9.65948381 29.3844978,9.82802145 29.2126154,10.0194503 C28.7224116,10.5654002 28.2324898,11.1864513 27.775025,11.8719866 C27.2730174,12.6242716 26.8408374,13.4096328 26.4995939,14.2213944 C26.4452227,14.3507345 26.5059969,14.4996618 26.6353369,14.554033 C26.7646769,14.6084042 26.9136043,14.54763 26.9679755,14.41829 C27.2959947,13.6379868 27.7127404,12.8806728 28.1976507,12.1540091 C28.6408336,11.489876 29.1158914,10.8876673 29.5906673,10.3588998 C29.7150627,10.2203582 29.8326705,10.0944978 29.9417914,9.98191576 L30.1683737,9.75514621 C30.1889447,9.73533595 30.2052706,9.71993949 30.2170938,9.70904679 C30.3202804,9.61398056 30.3268633,9.45326487 30.231797,9.35007825 C30.1367308,9.24689164 29.9760151,9.24030876 29.8728285,9.33537499 Z M26.0065011,15.6475067 C25.9184397,15.9731014 25.8471733,16.2993623 25.793499,16.6260291 C25.7707508,16.7644762 25.8645434,16.8951507 26.0029904,16.9178988 C26.1414375,16.940647 26.272112,16.8468544 26.2948601,16.7084074 C26.3457084,16.39894 26.4133144,16.089437 26.4969628,15.7801586 C26.5335936,15.6447213 26.4534951,15.5052326 26.3180579,15.4686018 C26.1826206,15.431971 26.0431319,15.5120695 26.0065011,15.6475067 Z M25.6854572,17.6198803 C25.667874,17.9560376 25.6698622,18.2913256 25.6921139,18.6254769 C25.7014363,18.7654703 25.8224807,18.8714001 25.9624741,18.8620777 C26.1024676,18.8527553 26.2083974,18.7317109 26.199075,18.5917174 C26.1781736,18.2778447 26.1763048,17.962684 26.1928474,17.64642 C26.2001761,17.5063081 26.0925341,17.3867838 25.9524221,17.379455 C25.8123102,17.3721263 25.6927859,17.4797684 25.6854572,17.6198803 Z M25.8254672,19.6503401 C26.1775028,21.4557119 27.1431102,23.1795333 28.7917606,24.791468 C28.8920809,24.8895542 29.0529212,24.8877431 29.1510073,24.7874228 C29.2490935,24.6871024 29.2472824,24.5262622 29.1469621,24.428176 C27.5701093,22.88644 26.6558947,21.2543659 26.3241588,19.5530985 C26.2973063,19.4153887 26.1639021,19.325521 26.0261922,19.3523735 C25.8884824,19.3792261 25.7986147,19.5126302 25.8254672,19.6503401 Z M29.9014969,25.7754908 C30.1518989,25.977922 30.4137899,26.1781585 30.6872936,26.3761611 C30.8009415,26.4584364 30.9597686,26.4330038 31.0420438,26.3193559 C31.1243191,26.205708 31.0988865,26.0468809 30.9852386,25.9646057 C30.7189754,25.7718447 30.4642466,25.5770843 30.2209199,25.3803729 C30.1118111,25.2921667 29.9518557,25.3091116 29.8636494,25.4182204 C29.7754432,25.5273292 29.7923881,25.6872846 29.9014969,25.7754908 Z" id="Stroke-9" fill="url(#linearGradient-5)" fill-rule="nonzero" transform="translate(28.381999, 17.846306) rotate(-30.000000) translate(-28.381999, -17.846306) "></path>
                        </g>
                        <g id="Combined-Shape-7" opacity="0.5" transform="translate(0.000000, 23.760000)" fill="url(#linearGradient-6)" fill-rule="nonzero">
                            <path d="M29.8354468,7.59392549e-14 L53.0767887,13.418395 L50.938,17.121 L50.9496084,17.1275062 L50.809,17.344 L50.6848634,17.5613314 L50.674,17.555 L20.6865434,64.14007 C21.1617928,64.5138078 21.3027579,65.1898878 20.9916547,65.7287344 L20.454367,66.659344 C20.113157,67.250337 19.3570841,67.4529261 18.766091,67.1117161 L13.6452292,64.1551852 C13.0546852,63.8142345 12.8522673,63.0581156 13.1934147,62.4672312 L13.7307023,61.5366216 C14.0718496,60.9457371 14.8278767,60.7429768 15.4184207,61.0839275 L15.448,61.1 L31.1732382,26.257078 L7.92602724,56.7506864 C8.297809,57.1590926 8.38151285,57.7765622 8.09065673,58.2803398 L7.55336904,59.2109493 C7.1934145,59.8344089 6.39582683,60.0481218 5.77236727,59.6881673 L0.651505502,56.7316364 C0.0284890155,56.3719376 -0.185043308,55.5743016 0.174845103,54.9509565 L0.712132789,54.020347 C0.982948817,53.5512798 1.50158739,53.3140671 2.00719651,53.3786506 L27.453,4.148 L27.4435214,4.14293632 L27.562,3.936 L27.686881,3.69676428 L27.697,3.702 L29.8354468,7.59392549e-14 Z M14.1707159,61.7906635 L13.6334282,62.7212731 C13.4325586,63.0691894 13.5517845,63.5145502 13.8992712,63.7151717 L19.0201329,66.6717026 C19.3681132,66.8726091 19.8134469,66.7532823 20.0143535,66.405302 L20.5516412,65.4746925 C20.7525477,65.1267122 20.6332209,64.6813785 20.2852406,64.4804719 L15.1643788,61.523941 C14.8168922,61.3233195 14.3715854,61.4427472 14.1707159,61.7906635 Z M32.056,6.806 L31.890528,7.00082665 L31.7449342,7.16455555 L31.4280286,7.51047294 C30.7926058,8.19076893 30.1115379,8.84502024 29.410693,9.42017595 C27.4811647,11.0036635 25.7631282,11.7123868 24.4175999,11.1272529 L2.57734402,53.3815313 L7.63032569,56.2988716 L33.466119,22.4116309 L15.9004981,61.3338643 L20.266376,63.8545051 L46.0776747,23.7552945 C44.9736135,22.8571764 44.7505584,21.0461299 45.1468897,18.6454232 C45.2945667,17.7508958 45.520631,16.8339481 45.7920732,15.9435078 C45.8870301,15.6320107 45.9809182,15.3459313 46.0696308,15.0914723 L46.0696308,15.0914723 L46.127,14.929 L41.719,12.384 L39.5402285,16.1605763 C38.6623219,17.6811551 36.7176744,18.2025387 35.1972783,17.3247376 L34.9772716,17.1977166 L38.746,10.668 L32.056,6.806 Z M1.26971791,54.3422689 L0.732430226,55.2728785 C0.550301746,55.5883342 0.658413254,55.9921777 0.973427423,56.1740513 L6.0942892,59.1305822 C6.40980299,59.3127442 6.81362194,59.2045412 6.99578392,58.8890274 L7.5330716,57.9584178 C7.71523358,57.642904 7.60703061,57.2390851 7.29151682,57.0569231 L2.17065505,54.1003922 C1.85564088,53.9185187 1.45184639,54.0268131 1.26971791,54.3422689 Z M24.2846805,54.2737138 L24.700569,54.5655802 L22.9060739,57.1226065 L22.4901854,56.8307402 L24.2846805,54.2737138 Z M26.5948279,50.8439081 L27.0140844,51.1309154 L25.6327089,53.148811 L25.2134523,52.8618037 L26.5948279,50.8439081 Z M36.9573717,34.9220167 L37.3834255,35.1988332 L28.0527095,49.55992 L27.6266558,49.2831034 L36.9573717,34.9220167 Z M46.576,15.189 L46.4835426,15.4507805 L46.4161155,15.6540119 L46.278077,16.0916614 C46.012708,16.9621792 45.7918332,17.8580774 45.6481881,18.7281823 C45.2856638,20.924109 45.4765673,22.5484742 46.3563009,23.3226817 L50.2337482,17.3008889 L46.576,15.189 Z M39.1866689,10.9229944 L35.6772928,17.001412 L35.8019121,17.05471 C37.0139286,17.5370767 38.4286027,17.0698009 39.100215,15.9065344 L41.2797646,12.1314437 L39.1866689,10.9229944 Z M30.0214184,0.694055433 L28.1375768,3.95696472 L28.909,4.402 L39.0006973,10.2289389 L40.813,11.275 L50.4988918,16.8672759 L52.3827333,13.6043666 L30.0214184,0.694055433 Z M46.2409109,10.4894876 L46.6809244,10.7435295 L45.8368451,12.2055177 L45.3968316,11.9514758 L46.2409109,10.4894876 Z M27.8938188,4.40292458 L24.652422,10.6732895 C25.7720402,11.1258731 27.3141423,10.4834588 29.0883723,9.0274183 C29.7700827,8.46796553 30.4355159,7.82873333 31.0567219,7.1636581 C31.165489,7.04720994 31.2689631,6.93414027 31.3667182,6.82528851 L31.3667182,6.82528851 L31.61,6.548 L27.8938188,4.40292458 Z M40.9792031,7.45163921 L41.4192166,7.70568113 L40.5751374,9.16766933 L40.1351239,8.91362741 L40.9792031,7.45163921 Z M35.7172723,4.41366205 L36.1572858,4.66770397 L35.3132066,6.12969216 L34.8731931,5.87565024 L35.7172723,4.41366205 Z" id="Combined-Shape"></path>
                        </g>
                        <g id="Combined-Shape-3" opacity="0.300000012" transform="translate(264.585639, 0.216507)" fill="url(#linearGradient-7)" fill-rule="nonzero">
                            <path d="M18.7363936,0.470037244 C20.7771845,-0.321815558 22.4590806,-0.0773607808 23.7832991,0.934433551 C24.5940316,1.55388912 25.1613526,2.3649275 25.5208842,3.15963414 L25.502,3.122 L29.4095607,2.44603587 L29.4976923,2.51325088 L29.9791768,2.895313 C30.1083008,2.99995548 30.2437619,3.11107212 30.3853131,3.22861101 L30.3853131,3.22861101 L30.8279904,3.60044254 L31.305727,4.01049616 C32.7182051,5.2353809 34.252053,6.67085663 35.8539254,8.30573992 C43.3615774,15.9681072 49.5758081,25.0092557 53.0729459,35.1341111 L53.0729459,35.1341111 L53.1413819,35.3322459 L52.652,35.614 L53.4344414,36.9681142 L50.3864502,38.7278727 L49.604,37.373 L49.2413156,37.5839502 L38.508,26.032 L44.2842865,36.0369084 C45.2530611,37.7148752 44.7295955,39.8445108 43.1257814,40.8898149 L42.9560327,40.9940189 L26.5571163,50.4619377 C24.821429,51.4640372 22.6021865,50.8695117 21.6000059,49.1336839 L21.6000059,49.1336839 L16.048,39.515 L20.5146774,54.0272275 L20.151,54.237 L20.9943924,55.6973852 L17.9459788,57.4573876 L17.103,55.997 L16.6141845,56.2791781 L16.0743869,55.6520454 C9.27635103,47.6487669 4.6792291,37.9287827 1.85261589,27.7944112 C1.23765758,25.5895761 0.761383444,23.5433596 0.406806692,21.7075567 C0.282603183,21.0644995 0.182465342,20.4934978 0.104273179,20.0010274 L0.104273179,20.0010274 L0.0533700713,19.6709465 L2.13162821e-14,19.2831723 L2.58147104,16.184024 C2.11278743,15.496011 1.73393242,14.6447497 1.61041164,13.6913896 C1.39628132,12.0386855 2.02552529,10.4598934 3.73168541,9.08844304 L3.73168541,9.08844304 L3.832128,9.00770499 L6.904,9.83 L8.09436655,9.69385871 C11.3723543,9.20218989 14.3625724,7.55677682 16.5273511,5.06421402 L16.7734395,4.77286853 L17.7813227,3.49933605 L17.81,3.522 L18.6162511,0.51665406 Z M19.7588416,54.573516 L17.590455,55.8254346 L18.1319504,56.7633322 L20.300337,55.5114136 L19.7588416,54.573516 Z M0.582,19.762 L0.646561477,20.1713525 C0.660671462,20.2568449 0.675397967,20.3444869 0.690750755,20.4342485 L0.690750755,20.4342485 L0.790460987,20.9980122 L0.905670642,21.6112035 C1.25771985,23.4339202 1.73088844,25.4667943 2.34202016,27.6579097 C5.18664924,37.8568743 9.83528232,47.6317855 16.7235564,55.6293475 L16.7235564,55.6293475 L19.9099767,53.7896669 L14.911,37.545 L8.54246119,26.5110234 L8.29206774,26.1967993 C6.93621476,23.7994273 5.11645254,22.0566705 3.05396511,20.8631822 C2.34528689,20.4530953 1.65866976,20.1389693 1.02112352,19.9084888 C0.798927925,19.8281624 0.599096324,19.7640905 0.425018814,19.7147228 L0.582,19.762 Z M20.0853061,53.6884404 L19.9099767,53.7896669 L19.938,53.883 L19.9448131,53.8794606 L19.983,53.947 L20.0853061,53.6884404 Z M31.4634304,27.5672492 L20.535466,33.8765124 L21.2893404,35.1822613 C23.0403215,38.2150495 22.0950407,42.0647878 19.1973068,43.9555444 L22.0400194,48.879642 C22.9018908,50.3724472 24.81039,50.8837259 26.3030744,50.0219241 L26.3030744,50.0219241 L42.7019908,40.5540053 C44.1946752,39.6922036 44.7061445,37.7837555 43.844273,36.2909503 L43.844273,36.2909503 L41.0039722,31.3711622 C37.8742547,33.0213461 33.9732118,31.9143182 32.1887709,28.8235758 L32.1887709,28.8235758 L31.4634304,27.5672492 Z M28.8293239,3.06136439 L23.5906129,3.9679672 L21.355,5.258 L21.3117685,5.40473194 C20.8400228,6.95746264 20.0959041,8.35537313 19.1468157,9.56064986 L22.6738809,15.6714572 L22.2338674,15.9254991 L18.8017412,9.97996035 C16.9612095,12.1207731 14.4487734,13.589332 11.6889934,14.1474576 L15.0952008,20.0470102 L14.6551873,20.3010521 L11.1571763,14.2432117 C9.48927086,14.5067818 7.74264183,14.4394571 6.00803053,13.9903316 L6.00803053,13.9903316 L6.013,13.972 L4.2259785,14.998682 L0.677530913,19.2591661 C0.834087821,19.306143 1.00677554,19.3630362 1.19386078,19.4306698 C1.85874713,19.6710341 2.57264828,19.9976424 3.30844038,20.4234192 C5.44570586,21.6601789 7.33139604,23.4660738 8.71047338,25.9116812 L8.71047338,25.9116812 L8.9597464,26.2239446 L15.348,37.289 L15.362744,37.2853762 L15.38,37.345 L18.9429252,43.5147567 C21.5321619,41.8081751 22.4162467,38.3998024 20.96421,35.6444495 L20.8493269,35.4363032 L19.8414105,33.6905408 L31.649402,26.8731938 L32.6287844,28.5695339 C34.2727992,31.4170511 37.8628,32.4407857 40.7491838,30.931073 L30.167247,12.6009219 L29.9070856,12.2007652 C28.4561654,9.73851147 27.9934607,7.38817544 28.2615161,5.23552011 C28.3541376,4.49171056 28.5292024,3.82484203 28.755228,3.24410768 C28.7798727,3.18078734 28.80461,3.11986185 28.8293239,3.06136439 Z M52.212,35.868 L50.044,37.119 L50.5724218,38.0338173 L52.740386,36.7821426 L52.212,35.868 Z M29.3820126,3.0663504 C29.3352275,3.1672345 29.2832868,3.28817512 29.2287137,3.42839145 C29.0173736,3.97139388 28.8529385,4.59777107 28.765706,5.29830343 C28.5112993,7.34135117 28.9517763,9.57878036 30.3388668,11.9332089 L30.3388668,11.9332089 L30.600166,12.3353165 L37.611,24.478 L37.6906348,24.4054859 L49.3379324,36.9414838 L49.35,36.933 L49.336871,36.9099481 L52.3848622,35.1501895 L52.398,35.174 L52.5239346,35.1020446 C49.129191,25.386699 43.206599,16.6705621 36.0443743,9.23107256 L35.4910106,8.66132686 C33.8991068,7.03661763 32.3752615,5.61050285 30.972853,4.39435042 C30.8093737,4.25258303 30.6514895,4.11711888 30.4994477,3.98801047 L30.4994477,3.98801047 L30.0610963,3.61980492 L29.6592817,3.29004877 Z M18.1306807,25.3046155 L18.926218,26.6825266 L18.4862045,26.9365685 L17.6906672,25.5586574 L18.1306807,25.3046155 Z M15.9239547,21.4824539 L17.3587021,23.9675094 L16.9186886,24.2215514 L15.4839412,21.7364958 L15.9239547,21.4824539 Z M25.7093608,20.9290625 L26.5048981,22.3069736 L26.0648846,22.5610155 L25.2693473,21.1831044 L25.7093608,20.9290625 Z M23.5026348,17.1069009 L24.9373822,19.5919564 L24.4973687,19.8459984 L23.0626213,17.3609429 L23.5026348,17.1069009 Z M3.95078194,9.56551516 C2.45873276,10.8046789 1.92692122,12.1800004 2.1142839,13.6261061 C2.21892094,14.4337174 2.53054577,15.1701291 2.92072508,15.7761231 L3.85778584,14.6500781 L3.93410275,14.5879189 L6.37564973,13.1782911 L6.477488,13.1455072 C8.41117727,12.9528755 10.300182,12.4804872 12.0870978,11.7474022 Z M10.3769982,12.8907344 C9.14249766,13.2602169 7.8721364,13.5136372 6.58214852,13.6456068 L6.7046555,13.6315889 C8.11446627,13.9262008 9.5254328,13.9625298 10.8848252,13.7701603 Z M12.8798215,11.9601304 C12.2244467,12.2537156 11.5544793,12.5124813 10.8727205,12.7354976 L11.4206782,13.6820297 C12.623444,13.4564122 13.7793865,13.0509929 14.8507852,12.486935 Z M17.503,4.667 L17.1689568,5.09176342 C14.9049484,7.84818712 11.6981678,9.66708808 8.16104474,10.1974721 L8.23,10.186 L12.837,11.42 L12.887812,11.3982774 L12.906,11.439 L15.4831585,12.1296443 C15.4918403,12.1243931 15.5005157,12.1191311 15.5091846,12.1138582 L17.503,4.667 Z M18.0926045,8.75109074 C17.6194917,9.16804914 17.127366,9.56297715 16.617698,9.93465611 L16.619,9.933 L16.1469227,11.6982253 C17.0294698,11.083067 17.8329667,10.3498585 18.5310237,9.51340594 Z M23.4748258,1.33815797 C22.3161429,0.452844317 20.8591738,0.225745862 19.0400022,0.898315277 L19.0400022,0.898315277 L16.8343351,9.13489921 C18.0119619,8.21633712 19.085722,7.16648213 20.0350756,6.00235115 L20.0350756,6.00235115 L20.8807817,4.96494567 L20.9506645,4.9054574 L23.3757374,3.50534092 L23.4594679,3.47502142 L24.9843533,3.21272488 C24.6541121,2.53820155 24.1559639,1.85859445 23.4748258,1.33815797 Z M20.4650861,6.27986009 L20.4288552,6.32342258 C19.8258034,7.06290604 19.1737888,7.75742563 18.47782,8.40283058 L18.8714049,9.08630072 C19.5141909,8.24127255 20.0534653,7.30127738 20.4650861,6.27986009 Z" id="Combined-Shape"></path>
                        </g>
                        <g id="Combined-Shape-2" opacity="0.300000012" transform="translate(164.666432, 31.213020)" fill="url(#linearGradient-8)" fill-rule="nonzero">
                            <path d="M24.8646425,-3.06421555e-14 L30.9747411,2.17855072 L30.804106,2.65712449 L25.3234124,0.702987636 L24.6830982,9.5936445 L28.6715026,8.95193935 C29.6481769,7.17615875 30.5353857,4.90680428 31.2990554,2.07907419 L31.2990554,2.07907419 L31.3754836,1.79607438 L35.665117,3.6423115 L35.478,4.077 L36.0075871,4.71660912 C38.5166503,7.74496064 41.9814901,9.82286743 45.8259709,10.6139852 L46.2393061,10.6938086 L47.9024189,10.9942933 L47.7218254,11.3070904 C45.7672547,14.6925062 41.3084313,15.7714358 37.7647519,13.7254915 C34.2207175,11.6793423 32.9255814,7.27844887 34.8801894,3.89296844 L34.8801894,3.89296844 L34.896,3.864 L31.7123141,2.49418899 C30.9510698,5.24625555 30.0665822,7.47729498 29.088859,9.24255364 L29.1130226,9.39552795 L28.9915809,9.41611191 C27.5400064,11.9752138 25.8876373,13.5243855 24.1308465,14.2410574 C23.2206459,14.6123681 22.4716178,14.6901517 21.9697996,14.6334494 L21.9697996,14.6334494 L21.1459608,16.06038 C28.4545057,18.5672709 35.050333,22.4759259 40.5980849,26.8809456 C41.4810478,27.5820348 42.2577439,28.2355056 42.9216969,28.8239959 L42.9216969,28.8239959 L43.4890286,29.3369737 L44.227239,27.9255804 C43.2547903,25.5868619 43.6191996,23.0375374 45.0249174,20.3908031 C45.2610366,19.9462298 45.522526,19.5061331 45.806295,19.0716006 L45.7276098,18.8643858 L46.0189919,18.7530025 C46.8021526,17.6049174 47.7375038,16.4980654 48.7669285,15.4529 C49.2433206,14.9692235 49.7055587,14.5345103 50.1359121,14.1552703 L50.1359121,14.1552703 L50.4685834,13.8681152 L47.8219288,11.3358993 L48.1731738,10.9687805 L51.011,13.684 L51.0468361,13.6436017 L55.9885657,17.8458269 L47.5247262,23.580455 L46.0306716,19.6644921 C45.8317126,19.9836344 45.6456016,20.3053496 45.4736395,20.6291257 C44.1116033,23.1936147 43.7794861,25.6273891 44.7409983,27.8353321 L44.7409983,27.8353321 L44.7895335,27.9467846 L43.8480608,29.7484617 C44.7082996,32.6219158 44.1728051,37.4356986 42.6014284,43.6012261 C41.8305629,46.6258304 40.8586171,49.7804969 39.7891435,52.8786256 C39.4148746,53.9628349 39.0551207,54.9626188 38.7228281,55.8545875 L38.7228281,55.8545875 L38.3796448,56.7618554 L38.224505,57.158994 L37.4710808,57.055624 C31.4870958,56.1956045 25.9346323,54.3970786 20.8382454,51.8891941 L20.6651353,51.815458 L20.6690277,51.8055801 C14.6464364,48.8174512 9.26367311,44.8383185 4.56150306,40.2486036 C3.28010818,38.997854 2.16869337,37.8085971 1.23142142,36.7196203 L1.23142142,36.7196203 L1.07095352,36.5321334 L0.634810064,36.0106487 L0.381909803,35.6984854 L0.202138837,35.4708104 L1.77635684e-14,35.2037486 L0.0681659081,35.0644159 C1.09745969,32.9605161 2.62972758,30.8157145 4.59558928,28.6482033 C6.8760437,26.1338298 9.66564519,23.6665702 12.7852326,21.2980819 C14.6604389,19.8743666 16.5398002,18.5734846 18.3329874,17.4220398 C18.96079,17.0189139 19.5330948,16.6631948 20.0386023,16.3582228 L20.0386023,16.3582228 L20.1674927,16.2807019 L20.568,16.044 L21.7083104,14.0701942 L21.9325432,14.1146318 C22.0000224,14.1244977 22.097981,14.1321511 22.2236305,14.1324845 L22.2236305,14.1324845 L22.4325244,14.1268563 C22.8878429,14.1022079 23.3946046,13.9926679 23.9389316,13.7706131 C25.5079236,13.1305525 27.0046777,11.766501 28.3459646,9.52017195 L24.1302287,10.1972141 L24.8646425,-3.06421555e-14 Z M33.6351829,22.5961406 L21.3253157,51.5610225 C26.4051725,54.0286363 31.9374411,55.7853277 37.8966244,56.602307 L37.8966244,56.602307 L37.9922028,56.352966 L38.3901723,55.2900089 C38.4868843,55.027567 38.5856871,54.7566078 38.6862783,54.4776783 L38.6862783,54.4776783 L38.9931154,53.6175262 L39.3088699,52.7128353 C40.3740988,49.6270029 41.3420669,46.485247 42.1090835,43.4757446 C43.6704248,37.3495925 44.1944342,32.5752246 43.3417545,29.8300173 L43.367,29.919 L42.9649772,29.5456416 L42.3329593,28.9827531 C41.7333592,28.4590358 41.0482926,27.8871897 40.2821408,27.2788507 C38.2082166,25.6321158 35.986467,24.0551329 33.6351829,22.5961406 Z M35.711153,53.8880582 C36.1621024,53.9557081 36.5824277,54.0047425 36.970133,54.0343297 L36.970133,54.0343297 L36.9314717,54.5409405 C36.5308188,54.5103652 36.0983725,54.4599168 35.6357754,54.3905195 L35.6357754,54.3905195 Z M30.0328281,52.546997 C31.3327758,52.9337244 32.1046492,53.1518931 33.0161934,53.3747507 L33.0161934,53.3747507 L33.6777829,53.531915 L34.551694,53.7297533 L34.4413536,54.2257112 C33.2603823,53.9629693 32.5192331,53.7846246 31.6139189,53.5340111 L31.6139189,53.5340111 L31.1002001,53.389204 L29.887951,53.0339876 Z M24.0710711,50.5981546 L25.2786258,51.0322677 L26.1858109,51.3452664 C27.0995582,51.6556448 28.0529276,51.9647702 29.0199774,52.2598725 L29.0199774,52.2598725 L28.871683,52.7458334 C27.6561878,52.3749162 26.4626861,51.9821311 25.3414974,51.592358 C24.9490149,51.4559143 24.5935486,51.329572 24.2813999,51.2164426 L24.2813999,51.2164426 L23.8928886,51.0739699 L24.0710711,50.5981546 Z M32.4144647,21.8563535 L13.9002805,47.2549019 C16.1166471,48.7612931 18.440542,50.1304332 20.8691339,51.3369162 L33.1984589,22.327424 C32.938666,22.1689222 32.6773266,22.0118775 32.4144647,21.8563535 Z M20.817,16.486 L20.0447802,16.9487628 C19.6085459,17.2149046 19.1272731,17.5158239 18.6075151,17.8495719 C16.8249534,18.9941938 14.9563844,20.2876055 13.0924684,21.7027489 C9.99599541,24.053688 7.22902239,26.5009339 4.97193842,28.9895397 C3.08002839,31.0755136 1.59950779,33.13508 0.594062892,35.1471365 L0.594062892,35.1471365 L0.899592854,35.5313948 C0.941100713,35.5826346 0.983870061,35.6350876 1.02789841,35.6887314 L1.02789841,35.6887314 L1.30715664,36.0247038 L1.61651157,36.3881769 C2.54444899,37.4663082 3.64584989,38.6448499 4.91639854,39.8850126 C7.55745458,42.4629063 10.4148219,44.8465128 13.4808652,46.9673189 L31.9733833,21.5976514 C28.4596052,19.5547677 24.6796375,17.7864312 20.6901304,16.4420458 L20.817,16.486 Z M47.770998,22.7998711 L47.5053651,22.9798492 L47.8852524,23.0997025 L47.770998,22.7998711 Z M50.89,14.177 L50.6480822,14.3826691 L50.215119,14.7659801 C49.8681193,15.0806493 49.5030088,15.4296179 49.1289136,15.8094333 C48.0906285,16.8635945 47.1508222,17.9809242 46.3730275,19.1364185 L47.770998,22.7998711 L55.1503756,17.8000143 L50.89,14.177 Z M42.3810082,17.6046687 L43.0861357,20.2362401 L40.4545643,20.9413676 L39.7494368,18.3097962 L42.3810082,17.6046687 Z M42.0217387,18.2269418 L40.3717099,18.6690657 L40.8138338,20.3190945 L42.4638626,19.8769706 L42.0217387,18.2269418 Z M36.5203851,15.9926364 L37.2255125,18.6242078 L34.5939411,19.3293352 L33.8888137,16.6977638 L36.5203851,15.9926364 Z M36.1611155,16.6149095 L34.5110867,17.0570333 L34.9532106,18.7070621 L36.6032394,18.2649383 L36.1611155,16.6149095 Z M32.4153147,11.8509729 L33.1204421,14.4825443 L30.4888707,15.1876717 L29.7837433,12.5561003 L32.4153147,11.8509729 Z M32.0560451,12.473246 L30.4060163,12.9153698 L30.8481402,14.5653986 L32.498169,14.1232748 L32.0560451,12.473246 Z M35.1449405,4.47205217 L35.0644892,4.63831608 C33.6382037,7.6997628 34.8831301,11.4751017 38.0187938,13.285478 C41.2124054,15.1293105 45.1910482,14.2550202 47.0902419,11.3638625 L47.0902419,11.3638625 L46.1490074,11.1938039 C42.0220217,10.4487929 38.291474,8.26955476 35.616378,5.04080756 L35.616378,5.04080756 L35.1449405,4.47205217 Z" id="Combined-Shape"></path>
                        </g>
                        <g id="Combined-Shape-6" opacity="0.400000006" transform="translate(75.168000, 145.584000)" fill="url(#linearGradient-9)" fill-rule="nonzero">
                            <path d="M35.9206626,0.154206192 L36.0216193,0.21249357 C36.5714524,0.529939876 36.7598374,1.2330025 36.4423911,1.78283563 L34.6464907,4.893 L40.1644907,8.079 L41.9611462,4.96909036 C42.2785925,4.41925723 42.9816551,4.23087217 43.5314883,4.54831847 L43.632445,4.60660585 C44.1822781,4.92405216 44.3706632,5.62711478 44.0532169,6.17694791 L42.2574907,9.287 L42.3510711,9.34109106 C44.7632626,10.7337705 45.4897147,13.6114298 43.7658725,15.1786998 L35.982787,22.2531175 C35.6781204,22.5299158 35.6046092,22.9158286 35.6707511,23.5197434 L35.73259,24.0130352 L35.7420265,24.1258758 C35.7503643,24.2666587 35.7408873,24.3710357 35.7035443,24.4663497 C35.5586368,24.8362103 35.2212028,24.8016775 34.6839383,24.5033815 L34.9049099,52.1606619 L29.3281854,51.2072992 C19.3821562,49.5063887 10.3788802,44.3055951 3.93868178,36.554592 L3.57689049,36.1131387 L3.55271368e-15,31.6887763 L24.0738416,18.3630303 C23.7086822,18.1046878 23.5826827,17.8679985 23.7345662,17.5930063 C23.8002553,17.4740731 23.907512,17.3864664 24.0784184,17.2855813 L24.3735091,17.1237575 L24.628407,16.9814309 C25.058018,16.7234108 25.2931254,16.467051 25.3776879,16.096371 L27.7096803,5.87533665 C28.1571725,3.91573317 30.3586252,3.06028553 32.5015951,3.77584038 L34.3503205,0.574978079 C34.6677668,0.0251449487 35.3708294,-0.163240114 35.9206626,0.154206192 Z M24.575,18.667 L0.775730376,31.8401442 L3.9720145,35.7937233 C10.2386914,43.5463238 19.067841,48.7970598 28.8586063,50.607676 L29.4138168,50.7064834 L34.3919819,51.5575201 L34.172,24.208 L24.575,18.667 Z M32.5888812,43.1625165 C32.7090153,43.1680223 32.8058268,43.2561099 32.8269905,43.3694272 L32.8310261,43.4279227 L32.6178846,48.074766 C32.611454,48.214922 32.492622,48.3233279 32.352466,48.3168973 C32.2323323,48.3113853 32.1355252,48.2232928 32.1143673,48.1099745 L32.1103347,48.0514787 L32.323475,43.4046613 C32.3298984,43.2645049 32.4487249,43.156093 32.5888812,43.1625165 Z M33.1287818,27.6807277 C33.2489719,27.6848323 33.3468041,27.771785 33.3692876,27.8848477 L33.374005,27.9432923 L32.8865234,42.2176325 C32.8817347,42.3578542 32.7641805,42.4676444 32.6239588,42.4628557 C32.5037687,42.4587511 32.4059366,42.3717983 32.383453,42.2587356 L32.3787356,42.200291 L32.8662172,27.9259509 C32.8710059,27.7857291 32.9885601,27.675939 33.1287818,27.6807277 Z M33.2050242,25.4457432 C33.3252143,25.4498483 33.4230461,25.5368014 33.4455292,25.6498643 L33.4502464,25.7083088 L33.3954257,27.3133675 C33.3906364,27.4535893 33.2730818,27.5633789 33.1328601,27.5585897 C33.01267,27.5544846 32.9148382,27.4675315 32.8923551,27.3544686 L32.8876379,27.2960241 L32.9424586,25.6909654 C32.9472479,25.5507436 33.0648025,25.440954 33.2050242,25.4457432 Z M28.2050239,5.98840249 L25.8730439,16.2093826 C25.7512623,16.7432125 25.4300889,17.0925398 24.8925796,17.4154871 L24.513338,17.6257251 C24.4625039,17.6532475 24.4137722,17.6797867 24.3783786,17.6994709 L24.28806,17.7529046 L24.2179261,17.8015963 L24.1827696,17.8336322 L24.1830613,17.8355479 C24.2009914,17.8307079 24.2692843,17.8984256 24.5232649,18.0503303 L34.8710675,24.0254605 C35.0318245,24.1182737 35.1539002,24.176181 35.2364133,24.202839 L35.2350718,24.1641576 L35.227201,24.065296 C35.2214077,24.0092722 35.1880762,23.759641 35.1720504,23.6290103 L35.1517629,23.4279304 C35.0986919,22.7545022 35.2156526,22.2636177 35.6410855,21.8770999 L43.4241046,14.8027424 C44.8634143,13.4941616 44.2381348,11.0172725 42.0970292,9.78110457 L42.0034907,9.727 L41.9895429,9.75133608 L39.8974722,8.54347853 L39.9104907,8.519 L34.3924907,5.333 L34.3787172,5.3572238 L32.754819,4.41831303 C30.7450475,3.52466267 28.6048036,4.23773599 28.2050239,5.98840249 Z M42.4011597,5.22313228 L40.6054907,8.333 L41.8174907,9.033 L43.6132034,5.92290599 C43.7903462,5.61608561 43.6852234,5.22376219 43.3784031,5.04661936 L43.2774464,4.98833199 C42.970626,4.81118916 42.5783026,4.9163119 42.4011597,5.22313228 Z M34.790334,0.829019999 L32.980702,3.96339465 C33.149055,4.0388193 33.3087126,4.12048296 33.4664591,4.2115579 L34.2064907,4.639 L36.0023776,1.52879371 C36.1795205,1.22197333 36.0743977,0.82964991 35.7675773,0.652507083 L35.6666206,0.594219705 C35.3598003,0.417076877 34.9674768,0.522199621 34.790334,0.829019999 Z" id="Combined-Shape"></path>
                        </g>
                        <g id="Group-47" opacity="0.5" transform="translate(16.200000, 96.984000)" fill="url(#linearGradient-10)" fill-rule="nonzero">
                            <g id="Group-43" transform="translate(31.828956, 31.638708) rotate(-330.000000) translate(-31.828956, -31.638708) translate(8.328956, 9.138708)">
                                <path d="M32.9752961,40.59533 L31.0877961,44.171915 L2.29429547,44.171915 C1.30626426,44.171915 0.505759057,43.3714098 0.505759057,42.3833786 C0.505759057,41.3957473 1.30635217,40.59533 2.29429547,40.59533 L32.9752961,40.59533 Z M28.4607591,41.10333 L28.4607591,43.66333 L30.7814353,43.6638312 L32.1326649,41.1034138 L28.4607591,41.10333 Z M23.9457591,41.10333 L2.29429547,41.1034138 C1.58693415,41.1034138 1.0138429,41.6763792 1.0138429,42.3833786 C1.0138429,43.0908029 1.58687122,43.6638312 2.29429547,43.6638312 L23.9457591,43.66333 L23.9457591,41.10333 Z M27.9527591,41.10333 L24.4537591,41.10333 L24.4537591,43.66333 L27.9527591,43.66333 L27.9527591,41.10333 Z M43.6093365,30.3728507 L44.4540735,31.4319851 C46.8207378,34.401696 46.993889,38.5479497 44.9133375,41.6968927 L44.7444001,41.9433819 L43.7011409,43.4112758 L36.3145332,38.6308507 L10.2638628,38.6312486 C9.20552411,38.6312486 8.34753317,37.7736054 8.34753317,36.7154067 C8.34753317,35.657138 9.20559412,34.799077 10.2638628,34.799077 L36.3165332,34.7988507 L43.6093365,30.3728507 Z M43.3955332,31.0958507 L36.6435332,35.1958507 L36.6435332,36.2528507 L39.7265267,38.0149566 L39.4743956,38.4560678 L36.6435332,36.8378507 L36.6435332,38.2378507 L43.5688031,42.7204304 L44.3302442,41.6490622 C46.3986485,38.7381964 46.348922,34.836884 44.2375167,31.9839876 L44.09425,31.798332 L44.1597178,32.0868039 C44.2025722,32.2836432 44.2447243,32.4881018 44.2857499,32.699623 C44.5834523,34.2345269 44.7648637,35.830415 44.7763516,37.4180076 L44.7725896,38.0128307 L44.2646083,38.0026254 C44.2996272,36.2595073 44.1155083,34.490299 43.7869613,32.7963656 C43.7026445,32.3616422 43.6135421,31.9576081 43.5235372,31.5894504 L43.4559249,31.32014 L43.3955332,31.0958507 Z M44.2365908,38.730789 L44.7438317,38.760045 C44.7164707,39.2344303 44.6722758,39.698818 44.6102829,40.1526118 L44.5423216,40.6028522 L44.0410639,40.5198465 C44.136642,39.9426659 44.2011186,39.3458073 44.2365908,38.730789 Z M36.1357358,35.3071608 L10.2638628,35.3071608 C9.48620107,35.3071608 8.85561701,35.9377449 8.85561701,36.7154067 C8.85561701,37.4929523 9.48608496,38.1231647 10.2638628,38.1231647 L32.6405332,38.1228507 L32.6408832,35.4792265 L33.148967,35.4792265 L33.1485332,38.1228507 L36.1357358,38.1231647 L36.1357358,35.3071608 Z M33.3405431,10.761411 C35.2119085,10.761411 36.7289339,12.2784364 36.7289339,14.1498019 L36.7289339,28.5089828 C36.7289339,30.3803483 35.2119085,31.8973736 33.3405431,31.8973736 L6.87758565,31.8973736 C5.00622021,31.8973736 3.48919485,30.3803483 3.48919485,28.5089828 L3.48919485,14.1498019 C3.48919485,12.2784364 5.00622021,10.761411 6.87758565,10.761411 L33.3405431,10.761411 Z M44.056795,31.7487168 L44.09425,31.798332 L44.0949626,31.7973289 L44.056795,31.7487168 L44.056795,31.7487168 Z M33.3405431,11.2694949 L6.87758565,11.2694949 C5.28682717,11.2694949 3.99727869,12.5590434 3.99727869,14.1498019 L3.99727869,28.5089828 C3.99727869,30.0997413 5.28682717,31.3892898 6.87758565,31.3892898 L33.3405431,31.3892898 C34.9313016,31.3892898 36.22085,30.0997413 36.22085,28.5089828 L36.22085,14.1498019 C36.22085,12.5590434 34.9313016,11.2694949 33.3405431,11.2694949 Z M10.8462489,22.2689491 C12.9482442,22.2689491 14.6521626,23.9727059 14.6521626,26.0743751 C14.6521626,28.1761266 12.948162,29.8802889 10.8462489,29.8802889 C8.74474268,29.8802889 7.04082283,28.1760458 7.04082283,26.0743751 C7.04082283,23.9727867 8.74466046,22.2689491 10.8462489,22.2689491 Z M20.0520452,22.2689491 C22.1540405,22.2689491 23.8579589,23.9727059 23.8579589,26.0743751 C23.8579589,28.1761266 22.1539583,29.8802889 20.0520452,29.8802889 C17.950539,29.8802889 16.2466191,28.1760458 16.2466191,26.0743751 C16.2466191,23.9727867 17.9504568,22.2689491 20.0520452,22.2689491 Z M29.2580366,22.2689491 C31.3600319,22.2689491 33.0639504,23.9727059 33.0639504,26.0743751 C33.0639504,28.1761266 31.3599497,29.8802889 29.2580366,29.8802889 C27.1565304,29.8802889 25.4526106,28.1760458 25.4526106,26.0743751 C25.4526106,23.9727867 27.1564482,22.2689491 29.2580366,22.2689491 Z M10.8462489,22.7770329 C9.02526741,22.7770329 7.54890667,24.2533937 7.54890667,26.0743751 C7.54890667,27.8954604 9.02537122,29.3722051 10.8462489,29.3722051 C12.6675442,29.3722051 14.1440788,27.8955304 14.1440788,26.0743751 C14.1440788,24.2533237 12.667648,22.7770329 10.8462489,22.7770329 Z M20.0520452,22.7770329 C18.2310637,22.7770329 16.754703,24.2533937 16.754703,26.0743751 C16.754703,27.8954604 18.2311675,29.3722051 20.0520452,29.3722051 C21.8733405,29.3722051 23.3498751,27.8955304 23.3498751,26.0743751 C23.3498751,24.2533237 21.8734443,22.7770329 20.0520452,22.7770329 Z M29.2580366,22.7770329 C27.4370552,22.7770329 25.9606944,24.2533937 25.9606944,26.0743751 C25.9606944,27.8954604 27.437159,29.3722051 29.2580366,29.3722051 C31.0793319,29.3722051 32.5558665,27.8955304 32.5558665,26.0743751 C32.5558665,24.2533237 31.0794358,22.7770329 29.2580366,22.7770329 Z M20.0520452,13.1479256 C22.1539583,13.1479256 23.8579589,14.8520879 23.8579589,16.9538393 C23.8579589,19.0555085 22.1540405,20.7592654 20.0520452,20.7592654 C17.9504568,20.7592654 16.2466191,19.0554277 16.2466191,16.9538393 C16.2466191,14.8521687 17.950539,13.1479256 20.0520452,13.1479256 Z M29.2580366,13.1479256 C31.3599497,13.1479256 33.0639504,14.8520879 33.0639504,16.9538393 C33.0639504,19.0555085 31.3600319,20.7592654 29.2580366,20.7592654 C27.1564482,20.7592654 25.4526106,19.0554277 25.4526106,16.9538393 C25.4526106,14.8521687 27.1565304,13.1479256 29.2580366,13.1479256 Z M10.8462489,13.1479256 C12.948162,13.1479256 14.6521626,14.8520879 14.6521626,16.9538393 C14.6521626,19.0555085 12.9482442,20.7592654 10.8462489,20.7592654 C8.74466046,20.7592654 7.04082283,19.0554277 7.04082283,16.9538393 C7.04082283,14.8521687 8.74474268,13.1479256 10.8462489,13.1479256 Z M10.8462489,13.6560094 C9.02537122,13.6560094 7.54890667,15.1327541 7.54890667,16.9538393 C7.54890667,18.7748208 9.02526741,20.2511815 10.8462489,20.2511815 C12.667648,20.2511815 14.1440788,18.7748908 14.1440788,16.9538393 C14.1440788,15.132684 12.6675442,13.6560094 10.8462489,13.6560094 Z M20.0520452,13.6560094 C18.2311675,13.6560094 16.754703,15.1327541 16.754703,16.9538393 C16.754703,18.7748208 18.2310637,20.2511815 20.0520452,20.2511815 C21.8734443,20.2511815 23.3498751,18.7748908 23.3498751,16.9538393 C23.3498751,15.132684 21.8733405,13.6560094 20.0520452,13.6560094 Z M29.2580366,13.6560094 C27.437159,13.6560094 25.9606944,15.1327541 25.9606944,16.9538393 C25.9606944,18.7748208 27.4370552,20.2511815 29.2580366,20.2511815 C31.0794358,20.2511815 32.5558665,18.7748908 32.5558665,16.9538393 C32.5558665,15.132684 31.0793319,13.6560094 29.2580366,13.6560094 Z M37.0351824,0.106331995 C38.2055789,0.106331995 38.9968675,1.2993303 38.5418071,2.37749999 L35.7869072,8.90624205 C35.5311151,9.511944 34.9375269,9.90576534 34.2803112,9.90576534 L5.09760131,9.90576534 C4.48503915,9.90576534 3.92371372,9.56295646 3.64296332,9.01763035 L0.289105545,2.48892379 C-0.269822853,1.40051466 0.520061527,0.106331995 1.74327245,0.106331995 L37.0351824,0.106331995 Z M37.0351824,0.614415835 L1.74327245,0.614415835 C0.900212736,0.614415835 0.355755191,1.50647996 0.741060867,2.25679112 L4.09479896,8.78526492 C4.2883964,9.16130605 4.67544458,9.3976815 5.09760131,9.3976815 L34.2803112,9.3976815 C34.7332646,9.3976815 35.142496,9.12617331 35.3188207,8.70864594 L38.0737006,2.17995144 C38.3874048,1.43669523 37.8420057,0.614415835 37.0351824,0.614415835 Z M30.2116094,3.17986633 L30.4636819,3.62101106 L24.4730076,7.04411416 L24.2209351,6.60296943 L30.2116094,3.17986633 Z M14.8116939,3.17986633 L15.0637664,3.62101106 L9.07309207,7.04411416 L8.82101963,6.60296943 L14.8116939,3.17986633 Z M26.3777844,3.84539944 L26.6178156,4.29320987 L23.3873779,6.0247596 L23.1473467,5.57694916 L26.3777844,3.84539944 Z M10.9778689,3.84539944 L11.2179001,4.29320987 L7.98746242,6.0247596 L7.74743116,5.57694916 L10.9778689,3.84539944 Z" id="Combined-Shape"></path>
                            </g>
                        </g>
                        <g id="Combined-Shape-9" opacity="0.400000006" transform="translate(102.398538, 76.395507)" fill="url(#linearGradient-11)" fill-rule="nonzero">
                            <path d="M46.0851334,8.424 L56.7251077,27.1968339 L46.2730528,38.4853786 C46.2873702,38.5071305 46.29856,38.5314716 46.3058199,38.5579449 L46.3058199,38.5579449 L51.9324404,59.0754427 L14.1899629,59.6831513 L19.9021396,38.3039694 C19.9066427,38.2871154 19.9127386,38.2711122 19.9202222,38.2560782 L9.72,27.2394608 L9.81157844,27.0778827 L20.3599723,8.46663027 L20.42,8.537 L26.6055889,8.53741457 L26.6684134,8.69978508 C27.6951511,11.3533959 30.2746428,13.1872353 33.1040515,13.1872353 C34.3924668,13.1872353 35.632385,12.8024249 36.6972862,12.1312393 C36.7266718,12.0243332 36.8243218,11.9469579 36.9400438,11.9469579 C36.9500655,11.9469579 36.9599516,11.9475382 36.9696705,11.948667 C38.1061538,11.1590052 39.0177324,10.0316554 39.536468,8.69928846 L39.536468,8.69928846 L39.5994909,8.53741457 L45.8331369,8.53741457 C45.878652,8.53741457 45.9213715,8.54938422 45.9583192,8.57034745 L46.0851334,8.424 Z M26.2595814,9.04549841 L20.905868,9.04549841 L20.8560082,9.05404669 C21.3897886,9.728811 21.8115286,10.454434 22.1287537,11.223497 C22.9963511,13.3268517 23.0391808,15.5595795 22.5935536,17.6353866 C22.5342425,17.911668 22.4705924,18.1600824 22.4067692,18.3770334 C22.3680366,18.5086951 22.3374698,18.6016045 22.2958531,18.7002828 L22.2958531,18.7002828 L19.581,23.054 L20.5708649,33.1022137 C20.5763223,33.1576664 20.5635165,33.2107062 20.5373469,33.2553644 L23.3061331,37.8053824 L21.3971792,39.8512754 L20.324,38.692 L14.8544979,59.1643016 L51.2691738,58.5779725 L45.876,38.913 L45.0479494,39.8081247 L43.138955,37.7627735 L46.2978328,32.5727897 C46.2547857,32.5249771 46.2297641,32.4608873 46.2328471,32.3915373 L46.2328471,32.3915373 L46.6591498,22.8021661 C46.6605774,22.7700529 46.6679075,22.7395978 46.6800462,22.7118017 L44.1263805,18.6095413 L44.0610263,18.4086944 L43.990996,18.1657654 C43.9433657,17.9913829 43.8964189,17.799805 43.8519139,17.5925493 C43.4061745,15.5167813 43.4489011,13.2841407 44.3163929,11.1808733 C44.6283359,10.4245557 45.0413679,9.71025017 45.5626474,9.04501267 L39.944724,9.04549841 C39.3691356,10.4275743 38.3967769,11.5936008 37.1952074,12.4123127 L37.1940857,28.7755889 C37.1940857,30.869454 35.4965082,32.5668699 33.402317,32.5668699 C31.3085328,32.5668699 29.6110361,30.8693732 29.6110361,28.7755889 L29.6110361,28.7755889 L29.6110361,12.9209343 C29.6110361,12.877436 29.6219685,12.836491 29.6412355,12.8006972 C28.146545,11.9885629 26.9308982,10.6667593 26.2595814,9.04549841 L26.2595814,9.04549841 Z M47.5017219,53.0378408 C47.6370626,53.0008549 47.7767609,53.0805873 47.8137468,53.215928 L47.8137468,53.215928 L48.6067921,56.1178816 C48.643778,56.2532223 48.5640456,56.3929206 48.4287049,56.4299065 C48.2933642,56.4668924 48.1536659,56.3871601 48.11668,56.2518193 L48.11668,56.2518193 L47.3236347,53.3498657 C47.2866488,53.214525 47.3663812,53.0748267 47.5017219,53.0378408 Z M46.987401,51.1558101 C47.1227417,51.1188242 47.26244,51.1985566 47.2994259,51.3338973 L47.2994259,51.3338973 L47.5565864,52.2749126 C47.5935722,52.4102534 47.5138399,52.5499517 47.3784992,52.5869376 C47.2431584,52.6239234 47.1034601,52.5441911 47.0664743,52.4088504 L47.0664743,52.4088504 L46.8093138,51.467835 C46.7723279,51.3324943 46.8520602,51.192796 46.987401,51.1558101 Z M46.47308,49.2737794 C46.6084207,49.2367935 46.748119,49.3165258 46.7851049,49.4518666 L46.7851049,49.4518666 L47.0422654,50.3928819 C47.0792513,50.5282226 46.9995189,50.667921 46.8641782,50.7049068 C46.7288375,50.7418927 46.5891392,50.6621604 46.5521533,50.5268197 L46.5521533,50.5268197 L46.2949928,49.5858043 C46.2580069,49.4504636 46.3377393,49.3107653 46.47308,49.2737794 Z M44.5443768,42.2161654 C44.6797175,42.1791795 44.8194158,42.2589118 44.8564017,42.3942526 L44.8564017,42.3942526 L46.3993643,48.0403438 C46.4363502,48.1756845 46.3566178,48.3153828 46.2212771,48.3523687 C46.0859364,48.3893546 45.9462381,48.3096222 45.9092522,48.1742815 L45.9092522,48.1742815 L44.3662896,42.5281903 C44.3293037,42.3928496 44.4090361,42.2531513 44.5443768,42.2161654 Z M20.4428704,9.35078812 L10.3451805,27.1668326 L21.3986155,39.1049787 L22.671811,37.7404504 L16.3263013,27.3151981 L21.8413287,18.4796153 L21.8807077,18.3608943 L21.9645681,18.0740225 C22.0097005,17.908696 22.0543521,17.7264157 22.0967879,17.5287426 C22.5226837,15.5448472 22.4817655,13.411763 21.6590586,11.4172381 C21.356721,10.6842679 20.9539953,9.99336707 20.4428704,9.35078812 L20.4428704,9.35078812 Z M46.0022357,9.30815839 L45.8156318,9.55137759 C45.392007,10.1241172 45.0506168,10.7332546 44.7860936,11.3746012 C43.9634912,13.3690322 43.9226717,15.5020244 44.3486738,17.4858777 C44.3911303,17.6835937 44.4358036,17.8659144 44.480958,18.0312783 L44.5262086,18.1909322 C44.5619956,18.3125498 44.5893884,18.3957906 44.5809069,18.3888689 L50.1188005,27.2730684 L43.7733125,37.6977988 L45.0464674,39.0618934 L56.0999233,27.1241989 L46.0022357,9.30815839 Z M19.141,23.76 L16.9230452,27.3183916 L19.986,32.351 L19.141,23.76 Z M36.6865624,12.730238 C35.6081556,13.3462894 34.3790911,13.6953191 33.1040515,13.6953191 C32.0575501,13.6953191 31.0438626,13.4627718 30.1194026,13.0418505 L30.1191199,28.7755889 C30.1191199,30.5887662 31.5891397,32.0587861 33.402317,32.0587861 C35.215912,32.0587861 36.6860019,30.5888362 36.6860019,28.7755889 L36.6860019,28.7755889 Z M47.138,23.447 L46.767,31.801 L49.522114,27.276155 L47.138,23.447 Z M35.3205327,26.5088031 C35.4608362,26.5088031 35.5745746,26.6225415 35.5745746,26.762845 L35.5745746,26.762845 L35.5745746,27.4588795 C35.5745746,27.599183 35.4608362,27.7129214 35.3205327,27.7129214 C35.1802292,27.7129214 35.0664908,27.599183 35.0664908,27.4588795 L35.0664908,27.4588795 L35.0664908,26.762845 C35.0664908,26.6225415 35.1802292,26.5088031 35.3205327,26.5088031 Z M35.3205327,19.1923961 C35.4608362,19.1923961 35.5745746,19.3061345 35.5745746,19.446438 L35.5745746,19.446438 L35.5745746,25.2995636 C35.5745746,25.4398671 35.4608362,25.5536055 35.3205327,25.5536055 C35.1802292,25.5536055 35.0664908,25.4398671 35.0664908,25.2995636 L35.0664908,25.2995636 L35.0664908,19.446438 C35.0664908,19.3061345 35.1802292,19.1923961 35.3205327,19.1923961 Z" id="Combined-Shape" transform="translate(33.222554, 34.053576) rotate(-30.000000) translate(-33.222554, -34.053576) "></path>
                        </g>
                        <g id="Combined-Shape-5" opacity="0.300000012" transform="translate(232.632000, 138.456000)" fill="url(#linearGradient-12)" fill-rule="nonzero">
                            <path d="M9.9253188,13.4258189 L34.2004532,19.9303216 L34.1571404,20.1615795 L34.0728802,20.6539554 C34.047289,20.8005292 34.027532,20.8987045 34.0026827,20.9996173 L29.7061446,37.0434116 C29.1612507,39.0691446 27.603283,40.0129949 25.5735893,39.5691822 L25.3261865,39.509409 L24.107518,39.1830373 L23.9351741,39.6495409 C23.914474,39.7108434 23.8993715,39.7611608 23.8817531,39.8240164 L23.0869856,42.8113448 L22.8743673,43.5849811 L22.6248534,44.4480007 C22.1957932,45.8872116 21.1371517,46.7373129 19.7887764,46.7435545 C17.675041,46.7542713 16.2714454,44.9966492 16.7494013,42.9143648 L16.8432259,42.5140437 C16.9387067,42.1163227 17.0421214,41.7145637 17.1801557,41.2022197 L17.6283133,39.5715488 L18.157166,37.6108549 C17.7827228,37.4944336 17.3929498,37.3816738 16.9682971,37.2659462 L16.4941188,37.1389569 L15.1182829,36.788171 L14.9558952,37.2353861 C14.9261509,37.3215857 14.9102291,37.3750717 14.8873916,37.456522 L13.6572333,41.9585288 C13.1703221,43.7209133 11.7159251,44.6547933 10.038212,44.2718213 C8.32783474,43.8814029 7.34674986,42.2683144 7.74631329,40.4948513 L7.83619951,40.1099683 C7.88265512,39.9184507 7.93308412,39.7215373 7.99515729,39.4887106 L8.28140257,38.4453622 L9.16154684,35.1783567 L7.98173362,34.8627868 L7.67182928,34.7708908 C5.83851843,34.1726108 4.93222244,32.6339561 5.30025873,30.7156187 C5.31633175,30.6325068 5.3351495,30.5521906 5.36158327,30.4516722 L9.9253188,13.4258189 Z M10.2845883,14.048092 L5.83193886,30.6634238 L5.79917122,30.8117196 C5.47002151,32.5273674 6.28531775,33.8469118 7.97647851,34.3329512 L8.11975934,34.373807 L9.78393094,34.8187257 L8.48709802,39.6158671 L8.37349159,40.0534907 C8.36217431,40.0985728 8.35119818,40.1428478 8.34046911,40.1866894 L8.24197744,40.6065037 C7.90317885,42.1102619 8.71752666,43.4492032 10.1512826,43.7764787 C11.5099403,44.0866199 12.6712264,43.3803669 13.1232893,41.9714442 L13.1675035,41.8231999 L14.3946444,37.3320242 L14.4579236,37.1214627 L14.7942259,36.1824273 L16.4214523,36.5949231 L17.4077191,36.8602648 C17.708035,36.9444854 17.9926434,37.0280768 18.2690486,37.113595 L18.7735093,37.2737157 L18.3448039,38.873666 L17.6591725,41.377415 C17.5486691,41.7884183 17.4607773,42.1275228 17.3809834,42.4526289 L17.2446383,43.0278967 C16.8398617,44.7913649 18.0003264,46.2445317 19.7863124,46.2354766 C20.9036961,46.2303043 21.7709429,45.5338951 22.137945,44.3028475 L22.2763812,43.8304587 C22.3452691,43.5913005 22.4145499,43.3446077 22.4882204,43.0764811 L23.4070249,39.6359562 L23.451579,39.493227 L23.6532751,38.947447 L23.7892034,38.5714272 L25.451701,39.0170717 L25.6985359,39.0764145 C27.403127,39.4432949 28.6647379,38.7140997 29.1703213,37.0684175 L29.2154953,36.9114553 L33.4919954,20.9456866 C33.5227869,20.8300169 33.5435209,20.7320908 33.5735572,20.5596704 L33.6171871,20.300043 L10.2845883,14.048092 Z M28.0952488,36.0771491 C28.2114112,36.1082747 28.2870937,36.2150645 28.2834788,36.3302844 L28.2748836,36.3882856 L27.8704053,37.897819 C27.8340921,38.0333417 27.6947915,38.113767 27.5592688,38.0774538 C27.4431064,38.0463281 27.3674239,37.9395383 27.3710387,37.8243184 L27.379634,37.7663172 L27.7841123,36.2567838 C27.8204255,36.1212611 27.959726,36.0408359 28.0952488,36.0771491 Z M37.9372665,20.1987955 C39.0757804,20.4998498 40.1511409,22.0146223 39.9740385,23.1372157 L39.9568558,23.253041 L39.8999853,23.7212909 L39.8541662,24.0521071 C39.8325243,24.1849351 39.8083769,24.3014913 39.7779942,24.4170201 L39.1181195,26.9101032 C38.7898863,28.1446099 38.4640542,29.3615945 38.1399243,30.5634445 L37.4937272,32.9476722 L37.438864,33.1440048 L37.3575015,33.4180606 C37.3141455,33.5592569 37.2655992,33.7105597 37.206561,33.8893121 L36.8146474,35.0545041 C36.34064,36.4877431 35.1112847,37.261426 33.5804084,37.0948369 C32.2865211,36.9545074 31.1850852,35.7851211 31.0861088,34.4236682 C31.0518132,33.9454286 31.115496,33.4242222 31.2584686,32.8595727 L31.5023483,31.9088144 C31.5307617,31.7996984 31.5597868,31.6887497 31.5895969,31.5752942 L33.7323686,23.5883935 L33.9648896,22.7533825 C34.1096605,22.2373966 34.2939159,21.7911403 34.5330075,21.4175044 C35.2898107,20.2318395 36.5025985,19.820015 37.9372665,20.1987955 Z M34.9611269,21.6911153 C34.752134,22.0177151 34.5863349,22.4192713 34.4540245,22.8908459 L34.2221344,23.7235998 L32.0811824,31.7037248 L31.7510528,32.9841118 C31.6203112,33.5004571 31.5629554,33.9698809 31.5928732,34.387077 C31.6742237,35.5060783 32.5879091,36.4761313 33.6352825,36.589725 C34.8802918,36.7252062 35.8564801,36.1461983 36.2836269,35.031393 L36.3322312,34.8950559 L36.7343833,33.698787 C36.8115549,33.4644088 36.8700343,33.2786654 36.9229402,33.0987331 L37.0035568,32.813948 L37.6494047,30.4310075 C37.9733648,29.2297861 38.2990333,28.0134123 38.6271033,26.7795194 L39.2866505,24.2876736 C39.3128651,24.1879934 39.3341226,24.0849479 39.3535684,23.9648462 L39.3909764,23.6978446 L39.4537995,23.1816318 L39.4721725,23.0579711 C39.6072479,22.201773 38.7019466,20.926549 37.8074726,20.6900265 C36.578158,20.3654609 35.5939665,20.6996613 34.9611269,21.6911153 Z M28.6002157,34.192587 C28.716378,34.2237126 28.7920606,34.3305024 28.7884457,34.4457224 L28.7798504,34.5037236 L28.527367,35.4460046 C28.4910538,35.5815273 28.3517532,35.6619526 28.2162305,35.6256394 C28.1000681,35.5945137 28.0243856,35.487724 28.0280004,35.372504 L28.0365957,35.3145028 L28.2890791,34.3722218 C28.3253923,34.236699 28.4646929,34.1562738 28.6002157,34.192587 Z M35.8020217,31.9065395 C35.9181841,31.9376651 35.9938666,32.0444549 35.9902517,32.1596748 L35.9816565,32.217676 L35.5773045,33.7267382 C35.5409913,33.862261 35.4016907,33.9426862 35.2661679,33.906373 C35.1500056,33.8752474 35.074323,33.7684576 35.0779379,33.6532377 L35.0865332,33.5952365 L35.4908852,32.0861742 C35.5271984,31.9506515 35.666499,31.8702263 35.8020217,31.9065395 Z M29.1051825,32.308025 C29.2213449,32.3391506 29.2970275,32.4459404 29.2934126,32.5611603 L29.2848173,32.6191615 L29.0323339,33.5614425 C28.9960207,33.6969653 28.8567201,33.7773905 28.7211973,33.7410773 C28.605035,33.7099517 28.5293524,33.6031619 28.5329673,33.487942 L28.5415626,33.4299408 L28.794046,32.4876597 C28.8303592,32.352137 28.9696598,32.2717118 29.1051825,32.308025 Z M36.3069886,30.0219774 C36.423151,30.053103 36.4988335,30.1598928 36.4952186,30.2751127 L36.4866234,30.333114 L36.2341399,31.275395 C36.1978267,31.4109177 36.0585261,31.491343 35.9230034,31.4550297 C35.806841,31.4239041 35.7311585,31.3171143 35.7347734,31.2018944 L35.7433686,31.1438932 L35.9958521,30.2016122 C36.0321653,30.0660894 36.1714658,29.9856642 36.3069886,30.0219774 Z M30.3675996,27.5966203 C30.483762,27.6277459 30.5594445,27.7345357 30.5558296,27.8497557 L30.5472344,27.9077569 L29.6635424,31.2057402 C29.6272292,31.341263 29.4879286,31.4216882 29.3524059,31.385375 C29.2362435,31.3542494 29.160561,31.2474596 29.1641758,31.1322396 L29.1727711,31.0742384 L30.0564631,27.7762551 C30.0927763,27.6407323 30.2320769,27.5603071 30.3675996,27.5966203 Z M36.8119555,28.1374154 C36.9281178,28.168541 37.0038004,28.2753308 37.0001855,28.3905507 L36.9915902,28.4485519 L36.7391068,29.3908329 C36.7027936,29.5263557 36.563493,29.6067809 36.4279703,29.5704677 C36.3118079,29.5393421 36.2361254,29.4325523 36.2397402,29.3173324 L36.2483355,29.2593312 L36.5008189,28.3170501 C36.5371322,28.1815274 36.6764327,28.1011022 36.8119555,28.1374154 Z M7.08143049,11.9496148 C8.46268986,12.4620528 9.22818192,13.9366623 8.88643521,15.4610924 L8.79573214,15.8543832 C8.71879506,16.1782435 8.63562156,16.5037938 8.52479491,16.9165019 L8.05727196,18.6138166 L6.10164913,25.8870876 L6.06141512,26.0332848 C5.95831388,26.4066404 5.81504961,26.7841311 5.63839128,27.1546006 C4.99095921,28.5112708 3.62766453,29.0683434 2.23356831,28.7075431 C0.853510392,28.3503948 -0.0309570717,27.1609475 0.000829247593,25.6886326 C0.00829964182,25.3591411 0.0683673294,25.0209021 0.179769482,24.6027858 L1.2404101,20.6245525 L2.96124167,14.22205 L3.04108596,13.9513155 C3.11844299,13.7057291 3.1918901,13.5274102 3.29339431,13.3427709 C4.06362438,11.9442357 5.57746459,11.3915616 7.08143049,11.9496148 Z M3.73853999,13.5877086 C3.6119901,13.8179069 3.53236036,14.0526456 3.40869115,14.5115987 L1.73124389,20.7558211 L0.670769106,24.7334324 C0.568801686,25.1161383 0.515177431,25.4180945 0.508788635,25.6998742 C0.482056586,26.9380854 1.21073008,27.9180183 2.36086601,28.2156645 C3.52879789,28.5179322 4.64185585,28.0631119 5.17981299,26.9358424 C5.34401255,26.5915002 5.4767437,26.2417634 5.57161852,25.898198 L5.6117795,25.752266 L7.56729574,18.4793805 L7.95288295,17.0845266 C8.07413806,16.6399115 8.16417396,16.2976627 8.24299334,15.978124 L8.39065875,15.3499398 C8.67765605,14.0697305 8.0437171,12.848539 6.90469197,12.4259684 C5.63544106,11.9550072 4.38664625,12.4109182 3.73853999,13.5877086 Z M38.0743725,23.4260107 C38.1905349,23.4571363 38.2662174,23.5639261 38.2626026,23.6791461 L38.2540073,23.7371473 L37.3703153,27.0351306 C37.3340021,27.1706534 37.1947016,27.2510786 37.0591788,27.2147654 C36.9430164,27.1836398 36.8673339,27.07685 36.8709488,26.96163 L36.879544,26.9036288 L37.763236,23.6056455 C37.7995492,23.4701227 37.9388498,23.3896975 38.0743725,23.4260107 Z M4.69678225,24.160202 C4.81294461,24.1913276 4.88862715,24.2981174 4.88501228,24.4133373 L4.87641701,24.4713385 L4.47206501,25.9804008 C4.43575179,26.1159235 4.29645122,26.1963488 4.16092847,26.1600355 C4.04476611,26.1289099 3.96908356,26.0221201 3.97269844,25.9069002 L3.9812937,25.848899 L4.38564571,24.3398368 C4.42195892,24.204314 4.56125949,24.1238888 4.69678225,24.160202 Z M5.20174913,22.27564 C5.31791149,22.3067656 5.39359403,22.4135554 5.38997916,22.5287753 L5.38138389,22.5867765 L5.12890045,23.5290575 C5.09258724,23.6645803 4.95328667,23.7450055 4.81776391,23.7086923 C4.70160155,23.6775667 4.62591901,23.5707769 4.62953388,23.455557 L4.63812915,23.3975557 L4.89061259,22.4552747 C4.9269258,22.319752 5.06622637,22.2393267 5.20174913,22.27564 Z M5.70671601,20.3910779 C5.82287837,20.4222035 5.89856091,20.5289933 5.89494604,20.6442132 L5.88635077,20.7022144 L5.63386733,21.6444955 C5.59755412,21.7800182 5.45825355,21.8604434 5.32273079,21.8241302 C5.20656843,21.7930046 5.13088589,21.6862148 5.13450076,21.5709949 L5.14309603,21.5129937 L5.39557947,20.5707127 C5.43189268,20.4351899 5.57119325,20.3547647 5.70671601,20.3910779 Z M6.96913308,15.6796733 C7.08529544,15.7107989 7.16097798,15.8175887 7.15736311,15.9328086 L7.14876784,15.9908098 L6.26507587,19.2887931 C6.22876265,19.4243159 6.08946208,19.5047411 5.95393933,19.4684279 C5.83777697,19.4373023 5.76209443,19.3305125 5.7657093,19.2152926 L5.77430456,19.1572914 L6.65799654,15.859308 C6.69430975,15.7237853 6.83361032,15.6433601 6.96913308,15.6796733 Z M19.1485741,0.715129407 L19.2698097,1.23211346 C19.3120464,1.40792387 19.3577129,1.59387467 19.411624,1.80993985 L20.0155723,4.18342677 C22.030062,4.02401458 23.7527852,4.12309761 25.3791217,4.5488262 C26.9778578,4.96765542 28.4878275,5.71071921 30.2138323,6.86095716 L32.2639857,4.75301263 L32.5763079,4.41594079 C32.687944,4.29923013 32.7682763,4.22774731 32.8729458,4.15285358 C33.3406574,3.8194454 33.7910904,3.97289395 34.0233252,4.58474007 L34.0795721,4.73292828 L31.2468853,7.75592163 C34.4544728,11.115245 35.6605837,14.6349861 34.6993756,18.735031 L34.5714696,19.2465769 L10.1736431,12.709199 L10.2345151,12.466682 C10.7552486,10.3920551 11.8199931,8.68327203 13.4472402,7.196838 C14.7545754,6.00253423 16.3279645,5.17666909 18.3320035,4.57420356 L18.6700258,4.47583628 L17.711953,0.257867451 L17.8875009,0.167901436 C18.5761044,-0.184998928 18.991544,0.0282189363 19.1485741,0.715129407 Z M18.355232,0.516302365 L18.296375,0.537134026 L19.2733662,4.83806556 L19.0376253,4.90157393 C16.8294321,5.49645901 15.1533473,6.32641806 13.7899196,7.57196469 C12.2979583,8.93481979 11.3069585,10.4828422 10.7910527,12.3486263 L34.2039854,18.6221027 C35.119963,14.7185745 33.9865946,11.3803688 30.9217309,8.15123968 L30.5446623,7.7622545 L33.4868638,4.62239291 C33.4000258,4.45291532 33.3223573,4.45645288 33.1682368,4.56631721 C33.0920202,4.62085243 33.0284673,4.67792723 32.9330032,4.77823678 L32.6633519,5.07078 L30.2820512,7.51967848 L29.7793291,7.18267769 C28.1604134,6.11892782 26.7408914,5.43080579 25.2504084,5.04033618 C23.6296713,4.61607336 21.8990014,4.52827486 19.8455804,4.70740838 L19.6312647,4.72610457 L19.4216555,3.91730848 L18.8504334,1.65771133 L18.6343985,0.750523412 C18.5779433,0.53354381 18.5195951,0.466624838 18.355232,0.516302365 Z M29.5586938,10.7210495 L29.6618931,10.7495022 C30.3021721,10.9527635 30.6846272,11.5869456 30.5355315,12.2397089 C30.3944427,12.8579194 29.5972948,13.3686401 28.979795,13.2355799 C28.3818908,13.1070225 27.8769057,12.278 28.0078922,11.6591889 C28.1512769,10.9854414 28.8664447,10.5576213 29.5586938,10.7210495 Z M28.5049046,11.7646775 C28.4306741,12.1153599 28.7688449,12.6705271 29.0867101,12.7388724 C29.4317611,12.8132247 29.9608589,12.4742397 30.040194,12.1266164 C30.1340531,11.7156872 29.8759637,11.3175488 29.4423074,11.2156235 L29.3578785,11.200416 C28.9653111,11.1514409 28.5821415,11.4017511 28.5049046,11.7646775 Z M18.4961861,7.76495533 L18.5966114,7.78355023 L18.6964194,7.8106691 C19.3750117,8.02642728 19.7441695,8.72780946 19.5284886,9.39836271 C19.3258444,10.0298939 18.6558732,10.4199865 18.0288879,10.2859639 L17.9303218,10.2604057 L17.8438416,10.2291743 C17.2781943,9.99371247 16.8989095,9.21399181 17.0881777,8.63182557 C17.279754,8.04022893 17.8926695,7.67850867 18.4961861,7.76495533 Z M17.571458,8.78863525 C17.4676448,9.10795227 17.7031781,9.59885743 18.0119066,9.74803857 L18.0790861,9.77458842 L18.156754,9.79330976 C18.5223135,9.85865718 18.9238647,9.61970563 19.0447549,9.2429575 C19.1737591,8.84188247 18.9548617,8.425988 18.5427635,8.29496131 C18.1460845,8.16936906 17.6980655,8.39766561 17.571458,8.78863525 Z" id="Combined-Shape"></path>
                        </g>
                    </g>
                </g>
            </g>
        </g>
    </g>
</svg>