<?xml version="1.0" encoding="utf-8"?>
<!-- Generator: Adobe Illustrator 27.5.0, SVG Export Plug-In . SVG Version: 6.00 Build 0)  -->
<svg version="1.1" xmlns="http://www.w3.org/2000/svg" xmlns:xlink="http://www.w3.org/1999/xlink" x="0px" y="0px"
	 viewBox="0 0 820 312" style="enable-background:new 0 0 820 312;" xml:space="preserve">
<g id="BACKGROUND">
	<rect style="fill:#B8E2FF;" width="820" height="312"/>
</g>
<g id="OBJECTS">
	<path style="fill:#E6F4FF;" d="M820,70.37v183.31c-0.03-0.01-0.07-0.02-0.1-0.04c-5.67-2.09-9.68-7.21-10.43-13.21
		c-0.88-6.98-1.31-16.53-1.53-24.51c-0.23-8.2-3.8-15.96-9.97-21.38c-4.89-4.29-10.07-11.01-11.53-20.81l-0.81-2.35
		c-0.96-2.77-5.05-2.16-5.15,0.77l-0.87,24.55c-0.03,0.69-0.3,1.3-0.73,1.78c-0.43,0.48-1.02,0.81-1.7,0.91
		c-1.55,0.22-2.97-0.86-3.18-2.41l-6.85-49.97c-0.36-2.63-4.16-2.61-4.49,0.02l-1.71,13.37c-0.28,2.17-2.13,3.78-4.28,3.78
		c-0.16,0-0.32-0.01-0.48-0.03c-2.22-0.28-3.85-2.24-3.85-4.48V132.5c0-3.73-1.51-7.1-3.96-9.55c-2.44-2.44-5.82-3.95-9.55-3.95
		c-7.05,0-13.99-1.7-20.25-4.96l-7.48-3.89c-2.47-1.28-5.45,0.41-5.61,3.19l-0.91,15.49c-0.08,1.44-1.02,2.6-2.12,2.61l-0.9,0.01
		c-1.04,0.01-1.87-1.04-1.9-2.41l-0.47-22.79c-0.03-1.43-0.84-2.72-2.1-3.38l-0.31-0.16c-2.24-1.17-4.95,0.37-5.1,2.89l-2.72,46.69
		c-0.19,3.37-2.4,6.07-4.96,6.09l-2.08,0.02c-2.45,0.02-4.38-2.43-4.45-5.63l-0.79-38.44c-0.14-6.73-4.99-12.57-11.64-13.65
		c-4.36-0.7-8.6-1.97-12.64-3.76c-4.04-1.8-7.86-4.12-11.36-6.95c-4.78-3.87-8.79-8.52-11.88-13.73c-1.46-2.46-5.23-1.49-5.35,1.37
		l-0.59,14.29c-0.1,2.55-2.23,4.55-4.78,4.5l-2.08-0.04c-2.44-0.05-4.43-1.97-4.58-4.4l-2.72-43.53c-0.14-2.21-1.12-4.17-2.62-5.58
		s-3.52-2.27-5.74-2.27c-3.46,0-6.85-0.63-10.03-1.83c-3.18-1.21-6.15-2.98-8.74-5.27c-7.98-7.04-19.23-9.02-29.14-5.13l-13.7,5.38
		c-8.95,3.52-18.33,5.24-27.66,5.24c-16.24,0-32.32-5.23-45.66-15.33c-6-6-15.08-7.68-22.83-4.24l-15.78,7.02
		c-4.44,1.97-9.35,2.63-14.15,1.91l-22.1-3.35c-21.49-3.25-43.47-0.17-63.24,8.87l-16.4,7.5c-19.13,8.74-40.74,10.47-61.02,4.88
		l-1.87-0.52c-4.47-1.23-9.02-1.83-13.53-1.83c-13.33,0-26.33,5.23-36.01,14.91c-8.52,9.3-18.94,16.36-30.36,20.87
		c-6.18,2.43-10.46,8.15-11.06,14.77l-1.18,12.83c-0.24,2.57-2.52,4.5-5.15,4.24c-2.23-0.23-3.94-2.1-4.2-4.33l-2.05-17.56
		c-0.28-2.44-2.36-4.3-4.82-4.25h-0.1c-3.26,0.07-5.91,2.62-6.02,5.88l-1.37,39.68c-0.09,2.56-2.2,4.57-4.75,4.53l-2.08-0.03
		c-2.44-0.03-4.45-1.93-4.61-4.36l-2.63-38.04c-0.16-2.33-2.69-3.74-4.74-2.61c-0.13,0.07-0.27,0.15-0.41,0.22
		c-1.34,0.75-2.2,2.13-2.29,3.66l-1.42,24.44c-0.09,1.44-1.03,2.6-2.13,2.61l-0.89,0.01c-1.05,0.01-1.88-1.04-1.91-2.41l-0.37-17.91
		c-0.04-1.83-1.54-3.12-3.18-3.12c-0.51,0-1.04,0.13-1.54,0.41c-3.08,0.74-5.71,2.49-7.57,4.84c-1.87,2.36-2.95,5.33-2.95,8.5
		c0,3.7-1.51,7.05-3.94,9.48s-5.78,3.94-9.48,3.94c-7.26,0-13.2,5.76-13.42,13.01l-1.68,55.67c-0.04,1.15-0.5,2.2-1.24,2.98
		c-0.74,0.79-1.76,1.31-2.91,1.42c-2.31,0.21-4.41-1.35-4.88-3.62l-4.67-22.66c-0.86-4.2-6.95-3.91-7.42,0.34l-5.77,51.9
		c-0.12,1.08-0.63,2.03-1.39,2.7c-0.77,0.69-1.79,1.1-2.9,1.09c-2.36-0.04-4.21-2.08-4.21-4.44v-19.26c0-0.22-0.01-0.43-0.02-0.65
		c-0.6-8.57-13.31-8.58-14.24-0.04c-1.92,17.6-4.88,41.39-6.84,41.39H0V64.7h66.3L5.62,44.29L49.27,0h738.71l-52.41,70.37H820z"/>
	<g>
		<path style="fill:#FFFFFF;" d="M513.998,56.616c0,2.164,1.754,3.917,3.917,3.917c2.164,0,3.917-1.754,3.917-3.917
			s-1.754-3.917-3.917-3.917C515.752,52.699,513.998,54.452,513.998,56.616z"/>
		<path style="fill:#FFFFFF;" d="M638.532,144.371c0,2.164,1.754,3.918,3.917,3.918c2.164,0,3.917-1.754,3.917-3.918
			c0-2.164-1.754-3.917-3.917-3.917C640.286,140.453,638.532,142.207,638.532,144.371z"/>
		<circle style="fill:#FFFFFF;" cx="589.853" cy="61.518" r="3.918"/>
		<circle style="fill:#FFFFFF;" cx="607.174" cy="252.409" r="3.917"/>
		<circle style="fill:#FFFFFF;" cx="679.668" cy="75.117" r="3.918"/>
		<circle style="fill:#FFFFFF;" cx="501.202" cy="292.903" r="3.918"/>
		<circle style="fill:#FFFFFF;" cx="523.222" cy="19.228" r="2.712"/>
		<path style="fill:#FFFFFF;" d="M207.375,23.384c0,1.664-1.349,3.013-3.014,3.013s-3.014-1.349-3.014-3.013
			c0-1.664,1.349-3.013,3.014-3.013S207.375,21.72,207.375,23.384z"/>
		<path style="fill:#FFFFFF;" d="M31.039,264.07c0,1.664-1.349,3.013-3.014,3.013c-1.664,0-3.014-1.349-3.014-3.013
			s1.349-3.013,3.014-3.013C29.69,261.056,31.039,262.405,31.039,264.07z"/>
		<circle style="fill:#FFFFFF;" cx="306.34" cy="67.891" r="2.411"/>
		<path style="fill:#FFFFFF;" d="M203.585,154.298c0,1.997-1.619,3.616-3.616,3.616c-1.997,0-3.616-1.619-3.616-3.616
			c0-1.997,1.619-3.616,3.616-3.616C201.966,150.682,203.585,152.301,203.585,154.298z"/>
		<path style="fill:#FFFFFF;" d="M446.421,34.574c0,1.997-1.619,3.616-3.616,3.616c-1.997,0-3.616-1.619-3.616-3.616
			c0-1.997,1.619-3.616,3.616-3.616C444.802,30.958,446.421,32.577,446.421,34.574z"/>
		<path style="fill:#FFFFFF;" d="M232.963,62.192c0,1.997-1.619,3.616-3.616,3.616c-1.997,0-3.616-1.619-3.616-3.616
			c0-1.997,1.619-3.616,3.616-3.616C231.344,58.576,232.963,60.195,232.963,62.192z"/>
		<circle style="fill:#FFFFFF;" cx="587.918" cy="197.901" r="2.411"/>
		<path style="fill:#FFFFFF;" d="M790.008,145.318c0,1.331,1.079,2.411,2.411,2.411c1.331,0,2.411-1.079,2.411-2.411
			c0-1.331-1.079-2.411-2.411-2.411C791.088,142.908,790.008,143.987,790.008,145.318z"/>
		<circle style="fill:#FFFFFF;" cx="326.967" cy="13.736" r="2.465"/>
		<path style="fill:#FFFFFF;" d="M254.063,110.666c0,1.498-1.214,2.712-2.712,2.712c-1.498,0-2.712-1.214-2.712-2.712
			c0-1.498,1.214-2.712,2.712-2.712C252.849,107.954,254.063,109.169,254.063,110.666z"/>
		<path style="fill:#FFFFFF;" d="M20.07,171.898c0,1.498-1.214,2.712-2.712,2.712c-1.498,0-2.712-1.214-2.712-2.712
			c0-1.498,1.214-2.712,2.712-2.712C18.856,169.186,20.07,170.4,20.07,171.898z"/>
		<circle style="fill:#FFFFFF;" cx="329.057" cy="299.202" r="1.967"/>
		<path style="fill:#FFFFFF;" d="M518.295,84.998c0,0.811,0.657,1.468,1.468,1.468c0.811,0,1.468-0.657,1.468-1.468
			c0-0.811-0.657-1.468-1.468-1.468C518.952,83.53,518.295,84.187,518.295,84.998z"/>
		<path style="fill:#FFFFFF;" d="M592.824,294.29c0,0.811,0.657,1.468,1.468,1.468c0.811,0,1.468-0.657,1.468-1.468
			c0-0.811-0.657-1.468-1.468-1.468C593.481,292.822,592.824,293.479,592.824,294.29z"/>
		<circle style="fill:#FFFFFF;" cx="569.059" cy="121.196" r="2.036"/>
		<circle style="fill:#FFFFFF;" cx="563.072" cy="244.763" r="2.036"/>
		<circle style="fill:#FFFFFF;" cx="255.841" cy="157.651" r="2.443"/>
		<path style="fill:#FFFFFF;" d="M284.896,256.842c0,1.349-1.094,2.443-2.443,2.443c-1.349,0-2.443-1.094-2.443-2.443
			c0-1.349,1.094-2.443,2.443-2.443C283.802,254.399,284.896,255.493,284.896,256.842z"/>
	</g>
	<g>
		<path style="fill:#FFFFFF;" d="M178.704,0L136.24,46.834c-3.914,4.305-8.632,7.686-13.839,9.991
			c-5.207,2.316-10.882,3.544-16.698,3.544c-17.101,0-32.418,10.545-38.517,26.515l-11.219,29.418
			c-6.099,15.97-21.417,26.526-38.506,26.526H0V0H178.704z"/>
		<path style="fill:#FFFFFF;" d="M820,0v127.934l-19.943-23.824c-5.306-6.348-13.036-9.769-20.907-9.769
			c-3.958,0-7.938,0.866-11.687,2.642c-14.307,6.786-31.367,0.011-37.112-14.746l-9.856-25.315
			c-4.692-12.049-17.202-19.142-29.953-16.993l-26.093,4.396c-9.889,1.666-19.899-2.226-26.06-10.141L611.801,0H820z"/>
	</g>
	<g>
		<defs>
			<rect id="SVGID_1_" width="820" height="312"/>
		</defs>
		<clipPath id="SVGID_00000043453920106816904950000015314338166013150396_">
			<use xlink:href="#SVGID_1_"  style="overflow:visible;"/>
		</clipPath>
		<g style="clip-path:url(#SVGID_00000043453920106816904950000015314338166013150396_);">
			<path style="fill:none;stroke:#16274F;stroke-miterlimit:10;" d="M-31.556,78.18c0,2.201,94.968-2.542,134.233-88.021"/>
			<g>
				<path style="fill:#7EB2E6;" d="M93.754,7.692c0.925,0.136,1.608,1.026,1.525,1.989c-0.083,0.963-0.9,1.633-1.825,1.498
					c-0.925-0.136-1.608-1.026-1.525-1.989C92.012,8.226,92.829,7.556,93.754,7.692z"/>
				<path style="fill:#F22929;" d="M104.017,5.93c5.385,0.79,9.549,3.776,9.3,6.669c-0.249,2.893-4.817,4.598-10.203,3.808
					c-5.385-0.79-9.549-3.776-9.3-6.668S98.631,5.14,104.017,5.93z"/>
				<path style="fill:#FFB691;" d="M97.16,13.38c1.441,0.952,2.833,1.333,3.11,0.85c0.277-0.483-0.667-1.646-2.108-2.598
					c-1.441-0.952-2.833-1.333-3.11-0.85C94.775,11.265,95.719,12.428,97.16,13.38z"/>
			</g>
			<g>
				<path style="fill:#7EB2E6;" d="M56.903,47.236c0.64,0.682,0.62,1.804-0.045,2.506c-0.664,0.702-1.721,0.718-2.361,0.036
					c-0.639-0.682-0.619-1.804,0.045-2.506C55.206,46.57,56.263,46.554,56.903,47.236z"/>
				<path style="fill:#F22929;" d="M66.032,52.246c3.723,3.97,5.124,8.899,3.128,11.008c-1.996,2.109-6.632,0.6-10.355-3.37
					c-3.723-3.97-5.124-8.899-3.128-11.008C57.672,46.767,62.308,48.276,66.032,52.246z"/>
				<path style="fill:#FFB691;" d="M56.028,53.809c0.535,1.642,1.388,2.806,1.905,2.601c0.517-0.206,0.502-1.703-0.033-3.346
					c-0.535-1.642-1.388-2.806-1.905-2.601C55.478,50.669,55.493,52.167,56.028,53.809z"/>
			</g>
			<g>
				<path style="fill:#7EB2E6;" d="M2.851,73.843c0.211,0.911-0.369,1.871-1.296,2.145c-0.927,0.274-1.849-0.242-2.06-1.153
					s0.369-1.871,1.296-2.145C1.717,72.417,2.639,72.933,2.851,73.843z"/>
				<path style="fill:#F22929;" d="M8.235,82.756c1.229,5.302-0.031,10.268-2.816,11.092c-2.784,0.823-6.038-2.807-7.268-8.11
					c-1.229-5.302,0.031-10.268,2.816-11.092C3.752,73.823,7.006,77.454,8.235,82.756z"/>
				<path style="fill:#FFB691;" d="M-1.203,79.091c-0.361,1.689-0.207,3.124,0.343,3.205c0.55,0.081,1.289-1.222,1.65-2.911
					c0.361-1.689,0.207-3.124-0.343-3.205C-0.104,76.098-0.842,77.402-1.203,79.091z"/>
			</g>
			<g>
				<path style="fill:#7EB2E6;" d="M77.306,28.749c0.836,0.418,1.207,1.477,0.827,2.366s-1.365,1.27-2.202,0.852
					c-0.836-0.418-1.206-1.477-0.827-2.366C75.484,28.713,76.47,28.331,77.306,28.749z"/>
				<path style="fill:#FF8345;" d="M87.606,30.283c4.869,2.433,7.891,6.571,6.75,9.241c-1.141,2.67-6.013,2.862-10.882,0.429
					c-4.869-2.433-7.891-6.571-6.75-9.241C77.865,28.042,82.737,27.85,87.606,30.283z"/>
				<path style="fill:#FFB691;" d="M78.765,35.217c1.071,1.355,2.275,2.151,2.688,1.779c0.414-0.372-0.12-1.772-1.191-3.127
					c-1.071-1.355-2.275-2.151-2.688-1.779C77.16,32.463,77.693,33.862,78.765,35.217z"/>
			</g>
			<g>
				<path style="fill:#7EB2E6;" d="M32.579,62.11c0.439,0.826,0.126,1.903-0.698,2.407c-0.825,0.504-1.849,0.243-2.288-0.583
					c-0.439-0.826-0.126-1.903,0.698-2.407S32.14,61.284,32.579,62.11z"/>
				<path style="fill:#FF8345;" d="M40.08,69.332c2.555,4.806,2.618,9.929,0.14,11.443c-2.478,1.514-6.558-1.155-9.113-5.961
					c-2.555-4.806-2.618-9.929-0.14-11.443C33.444,61.857,37.525,64.526,40.08,69.332z"/>
				<path style="fill:#FFB691;" d="M30.016,68.224c0.087,1.725,0.606,3.072,1.158,3.008c0.553-0.063,0.93-1.513,0.843-3.238
					c-0.087-1.725-0.606-3.072-1.158-3.008C30.306,65.05,29.929,66.5,30.016,68.224z"/>
			</g>
		</g>
		<g style="clip-path:url(#SVGID_00000043453920106816904950000015314338166013150396_);">
			<path style="fill:none;stroke:#16274F;stroke-miterlimit:10;" d="M847.977,67.611c0,2.201-94.968-2.542-134.233-88.021"/>
			<g>
				<path style="fill:#7EB2E6;" d="M722.668-2.877c-0.925,0.136-1.608,1.026-1.525,1.989c0.083,0.963,0.9,1.633,1.825,1.498
					c0.925-0.136,1.608-1.026,1.525-1.989C724.41-2.342,723.593-3.013,722.668-2.877z"/>
				<path style="fill:#F22929;" d="M712.405-4.638c-5.385,0.79-9.549,3.776-9.3,6.669c0.249,2.893,4.817,4.598,10.203,3.808
					c5.385-0.79,9.549-3.776,9.3-6.668C722.358-3.723,717.79-5.428,712.405-4.638z"/>
				<path style="fill:#FFB691;" d="M719.261,2.812c-1.441,0.952-2.833,1.333-3.11,0.85s0.667-1.646,2.108-2.598
					c1.441-0.952,2.833-1.333,3.11-0.85S720.702,1.859,719.261,2.812z"/>
			</g>
			<g>
				<path style="fill:#7EB2E6;" d="M759.519,36.668c-0.64,0.682-0.62,1.804,0.045,2.506s1.721,0.718,2.361,0.036
					c0.64-0.682,0.62-1.804-0.045-2.506C761.215,36.002,760.158,35.986,759.519,36.668z"/>
				<path style="fill:#F22929;" d="M750.39,41.678c-3.723,3.97-5.124,8.899-3.128,11.008c1.996,2.109,6.632,0.6,10.356-3.37
					s5.124-8.899,3.128-11.008C758.75,36.198,754.113,37.707,750.39,41.678z"/>
				<path style="fill:#FFB691;" d="M760.393,43.24c-0.535,1.642-1.388,2.806-1.905,2.601c-0.517-0.206-0.502-1.704,0.033-3.346
					c0.535-1.642,1.388-2.807,1.905-2.601C760.943,40.1,760.929,41.598,760.393,43.24z"/>
			</g>
			<g>
				<path style="fill:#7EB2E6;" d="M813.571,63.275c-0.211,0.911,0.369,1.871,1.296,2.145c0.927,0.274,1.849-0.242,2.06-1.153
					c0.211-0.911-0.369-1.871-1.295-2.145C814.705,61.848,813.782,62.364,813.571,63.275z"/>
				<path style="fill:#F22929;" d="M808.187,72.188c-1.23,5.302,0.031,10.268,2.816,11.092c2.784,0.824,6.039-2.807,7.268-8.11
					c1.229-5.302-0.031-10.268-2.816-11.092C812.67,63.255,809.416,66.886,808.187,72.188z"/>
				
					<ellipse transform="matrix(0.9764 -0.216 0.216 0.9764 4.4488 178.0388)" style="fill:#FFB691;" cx="816.628" cy="68.669" rx="1.005" ry="3.128"/>
			</g>
			<g>
				<path style="fill:#7EB2E6;" d="M739.115,18.181c-0.836,0.418-1.206,1.477-0.827,2.366c0.38,0.889,1.365,1.27,2.202,0.852
					c0.836-0.418,1.207-1.477,0.827-2.366C740.937,18.144,739.951,17.763,739.115,18.181z"/>
				<path style="fill:#FF8345;" d="M728.816,19.715c-4.869,2.433-7.891,6.571-6.75,9.241c1.141,2.67,6.013,2.862,10.882,0.429
					c4.869-2.433,7.891-6.571,6.75-9.241C738.556,17.473,733.685,17.281,728.816,19.715z"/>
				<path style="fill:#FFB691;" d="M737.657,24.649c-1.071,1.355-2.275,2.151-2.688,1.779c-0.414-0.372,0.12-1.772,1.191-3.127
					c1.071-1.355,2.275-2.151,2.688-1.779C739.261,21.894,738.728,23.294,737.657,24.649z"/>
			</g>
			<g>
				<path style="fill:#7EB2E6;" d="M783.842,51.541c-0.439,0.826-0.126,1.903,0.698,2.407c0.825,0.504,1.849,0.243,2.288-0.583
					s0.126-1.903-0.698-2.407C785.305,50.455,784.281,50.715,783.842,51.541z"/>
				<path style="fill:#FF8345;" d="M776.342,58.764c-2.555,4.806-2.618,9.929-0.14,11.443c2.478,1.514,6.558-1.155,9.114-5.961
					c2.555-4.806,2.618-9.929,0.14-11.443C782.977,51.289,778.897,53.958,776.342,58.764z"/>
				<path style="fill:#FFB691;" d="M786.406,57.656c-0.087,1.725-0.606,3.072-1.158,3.008c-0.553-0.063-0.93-1.513-0.843-3.238
					c0.087-1.725,0.606-3.072,1.158-3.008C786.115,54.481,786.493,55.931,786.406,57.656z"/>
			</g>
		</g>
	</g>
	<g>
		<g>
			<g>
				<g>
					<g>
						<path style="fill:#2A4C9C;" d="M775.047,151.74h-43.181c-5.26,0-8.687-5.297-6.863-9.981c0.136-0.353,0.303-0.701,0.499-1.043
							l21.589-37.396c2.829-4.897,9.9-4.897,12.729,0l10.795,18.698l6.358,11.017l3.372,5.838l1.064,1.843
							C784.239,145.617,780.704,151.74,775.047,151.74z"/>
						<path style="fill:#2A4C9C;" d="M785.653,207.676h-64.391c-8.436,0-13.708-9.132-9.49-16.438l3.273-5.67l12.824-22.212
							l16.097-27.88c4.217-7.306,14.762-7.306,18.979,0l16.097,27.88l16.099,27.882
							C799.359,198.544,794.086,207.676,785.653,207.676z"/>
						<path style="fill:#2A4C9C;" d="M753.457,269.561h40.334c10.568,0,17.173-11.44,11.889-20.592l-20.167-34.93l-20.167-34.93
							c-5.284-9.152-18.494-9.152-23.778,0l-20.167,34.93l-20.167,34.93c-5.284,9.152,1.321,20.592,11.889,20.592H753.457z"/>
						<path style="fill:#FFFFFF;" d="M775.047,151.74h-22.245c1.929-3.333,5.516-5.467,9.477-5.467c1.454,0,2.873-0.287,4.191-0.834
							c1.315-0.544,2.526-1.346,3.553-2.374l0.918-0.918c2.052-2.052,4.836-3.205,7.741-3.205h0.426
							c0.416,0,0.829-0.023,1.239-0.071l1.064,1.843C784.239,145.617,780.704,151.74,775.047,151.74z"/>
						<path style="fill:#FFFFFF;" d="M771.204,207.676h-49.942c-8.436,0-13.708-9.132-9.49-16.438l3.273-5.67h10.131
							c4.629,0,9.071,1.839,12.346,5.112l1.437,1.439c3.275,3.273,7.716,5.114,12.346,5.114h2.222c4.632,0,9.073,1.839,12.346,5.114
							L771.204,207.676z"/>
					</g>
					<g>
						<defs>
							<path id="SVGID_00000147906416568473942210000010641932920921064616_" d="M805.685,248.969l-20.167-34.93l-3.674-6.363h3.814
								c8.434,0,13.706-9.132,9.49-16.438l-16.099-27.882l-6.706-11.615h2.71c5.657,0,9.192-6.123,6.363-11.025l-1.064-1.843
								l-3.372-5.838l-6.358-11.017l-10.795-18.698c-2.829-4.897-9.9-4.897-12.729,0l-21.589,37.396
								c-0.196,0.342-0.363,0.69-0.499,1.043c-1.825,4.685,1.603,9.981,6.863,9.981h2.71l-6.706,11.615l-12.824,22.212l-3.273,5.67
								c-4.219,7.306,1.054,16.438,9.49,16.438h3.813l-3.674,6.363l-20.167,34.93c-5.284,9.152,1.321,20.592,11.889,20.592h40.334
								h40.334C804.364,269.561,810.969,258.121,805.685,248.969z"/>
						</defs>
						<clipPath id="SVGID_00000177454316348692147010000014783025989351350668_">
							<use xlink:href="#SVGID_00000147906416568473942210000010641932920921064616_"  style="overflow:visible;"/>
						</clipPath>
						
							<path style="clip-path:url(#SVGID_00000177454316348692147010000014783025989351350668_);fill:none;stroke:#5876BC;stroke-miterlimit:10;" d="
							M729.129,131.834h7.211c2.511,0,4.831-1.34,6.086-3.515l6.734-11.672c1.255-2.175,3.575-3.515,6.086-3.515l0,0
							c2.53,0,4.865-1.361,6.113-3.562l6.133-10.824"/>
						
							<path style="clip-path:url(#SVGID_00000177454316348692147010000014783025989351350668_);fill:none;stroke:#5876BC;stroke-miterlimit:10;" d="
							M740.831,160.852l-7.023,12.249c-1.247,2.175-3.563,3.517-6.07,3.517h-18.018"/>
						
							<path style="clip-path:url(#SVGID_00000177454316348692147010000014783025989351350668_);fill:none;stroke:#5876BC;stroke-miterlimit:10;" d="
							M752.12,168.502l4.113,13.048c1.028,3.262,4.054,5.481,7.474,5.481h2.821c3.621,0,6.184-3.537,5.057-6.978l-0.321-0.979
							c-0.602-1.836,0.767-3.725,2.699-3.725h1.817c1.928,0,3.134-2.086,2.173-3.757l-4.73-8.222
							c-0.697-1.212,0.177-2.724,1.575-2.724h8.136"/>
						
							<path style="clip-path:url(#SVGID_00000177454316348692147010000014783025989351350668_);fill:none;stroke:#5876BC;stroke-miterlimit:10;" d="
							M706.251,234.817l6.015,0.328c3.315,0.181,6.453-1.511,8.123-4.381l2.816-4.838c1.583-2.72,4.494-4.394,7.641-4.394l0,0
							c3.369,0,6.445-1.914,7.932-4.936l4.212-8.556"/>
					</g>
				</g>
				<path style="fill:none;stroke:#5876BC;stroke-miterlimit:10;" d="M758.375,207.977l12,24.001
					c1.701,3.401,5.12,5.604,8.919,5.748l0,0c3.448,0.13,6.607,1.96,8.436,4.886l1.894,3.031c1.811,2.897,4.928,4.722,8.341,4.882
					l8.648,0.405"/>
			</g>
			<path style="fill:#FFFFFF;" d="M762.997,171.405h-14.401c-1.156,0-2.093-0.937-2.093-2.093v-1.738
				c0-3.569,2.893-6.462,6.462-6.462h4.638c2.784,0,5.271,1.742,6.223,4.358l1.137,3.126
				C765.46,169.962,764.45,171.405,762.997,171.405z"/>
		</g>
		<g>
			<path style="fill:#FF8345;" d="M784.555,153.873h-61.878c-2.795,0-4.615-2.949-3.352-5.448l0.484-0.954l1.229-2.439l2.721-5.395
				l1.223-2.432l1.505-2.983c0.645-1.27,1.941-2.069,3.366-2.069l46.393,0.081c1.33,0.007,2.56,0.712,3.231,1.854l1.834,3.117
				l1.438,2.432l3.177,5.395l1.438,2.439l0.437,0.739C789.271,150.716,787.464,153.873,784.555,153.873z"/>
			<polygon style="fill:#F22929;" points="782.748,139.638 723.758,139.638 724.981,137.206 781.31,137.206 			"/>
			<polygon style="fill:#F22929;" points="787.363,147.471 719.808,147.471 721.037,145.033 785.925,145.033 			"/>
			<line style="fill:none;stroke:#16274F;stroke-miterlimit:10;" x1="726.279" y1="135.936" x2="779.492" y2="135.936"/>
			<line style="fill:none;stroke:#16274F;stroke-miterlimit:10;" x1="722.527" y1="143.605" x2="784.203" y2="143.605"/>
			<g>
				<g>
					<path style="fill:#FF8345;" d="M746.021,153.759l-5.106,10.171l-8.048,16.042c-3.164,6.301-10.567,9.217-17.177,6.772
						l-6.718-2.492c-3.01-1.108-6.389-0.369-8.653,1.895l-15.223,15.223c-3.251,3.251-7.893,4.696-12.414,3.876l-22.841-4.158
						c-4.326-0.793-8.72,0.41-12.025,3.144c-0.846,0.705-1.619,1.505-2.304,2.398l-6.342,7.114l-20.08-12.441
						c3.319-3.03,7.128-6.523,10.728-9.835c3.07-2.815,5.986-5.502,8.317-7.658c3.305-3.05,7.82-4.42,12.267-3.715l27.315,4.313
						c4.165,0.652,8.404-0.598,11.541-3.419l16.412-14.739c2.459-2.21,5.999-2.727,8.988-1.317l4.756,2.251
						c3.312,1.559,7.269,0.376,9.177-2.754l0.302-0.497l6.194-10.171H746.021z"/>
					<polygon style="fill:#F22929;" points="746.021,153.759 740.916,163.93 718.895,163.93 725.088,153.759 					"/>
				</g>
				<path style="fill:#F22929;" d="M637.817,204.23c-0.846,0.705-1.619,1.505-2.304,2.398l-6.342,7.114l-1.397,1.572l-18.682-14.013
					c3.319-3.03,7.128-6.523,10.728-9.835L637.817,204.23z"/>
				<line style="fill:none;stroke:#16274F;stroke-miterlimit:10;" x1="718.877" y1="165.116" x2="739.125" y2="165.116"/>
				<path style="fill:#F22929;" d="M649.734,188.249l-8.686-1.391c-2.412-0.383-4.83,0.329-6.651,1.941l-6.483,5.838l-2.244-1.599
					l6.933-6.241c2.432-2.157,5.663-3.104,8.868-2.593l6.039,0.967L649.734,188.249z"/>
				<path style="fill:#F22929;" d="M654.585,194.946l-9.909-1.579c-2.405-0.383-4.83,0.322-6.651,1.941l-4.078,3.621l-2.25-1.606
					l4.541-4.031c2.425-2.15,5.656-3.09,8.861-2.58l7.255,1.156L654.585,194.946z"/>
				<polyline style="fill:none;stroke:#16274F;stroke-miterlimit:10;" points="638.63,202.262 633.947,198.93 631.697,197.324 
					627.915,194.637 625.671,193.038 621.969,190.405 				"/>
			</g>
		</g>
	</g>
	<g>
		<g>
			<g>
				<g>
					<path style="fill:#2A4C9C;" d="M172.633,196.993h-32.208c-4.217,0-6.858-4.99-4.749-8.986l13.362-25.287l2.742-5.186
						c2.109-3.996,7.384-3.996,9.493,0l1.811,3.42l6.244,11.817l4.743,8.98l3.312,6.257
						C179.491,192.003,176.85,196.993,172.633,196.993z"/>
					<path style="fill:#2A4C9C;" d="M180.542,242.583h-48.027c-6.295,0-10.227-7.441-7.08-13.4l0.386-0.735l2.052-3.882l5.75-10.886
						l3.819-7.219l5.003-9.467l7.004-13.254c3.147-5.953,11.013-5.953,14.16,0l1.52,2.875l5.484,10.379l5.003,9.467l11.38,21.538
						l0.627,1.184C190.769,235.142,186.837,242.583,180.542,242.583z"/>
					<path style="fill:#2A4C9C;" d="M156.528,293.017h30.086c7.883,0,12.81-9.323,8.868-16.782l-15.043-28.468l-15.043-28.468
						c-3.941-7.459-13.795-7.459-17.736,0l-15.043,28.468l-15.043,28.468c-3.941,7.459,0.985,16.782,8.868,16.782H156.528z"/>
					<path style="fill:#FFFFFF;" d="M172.632,196.994h-25.973c1.438-2.716,4.113-4.454,7.069-4.454c1.083,0,2.143-0.234,3.125-0.679
						c0.982-0.443,1.884-1.099,2.65-1.935l0.685-0.748c1.531-1.673,3.608-2.612,5.775-2.612h0.317c2.165,0,4.242-0.94,5.775-2.614
						l2.016-2.202l3.31,6.261C179.489,192.003,176.852,196.994,172.632,196.994z"/>
					<path style="fill:#FFFFFF;" d="M169.764,242.583h-37.249c-6.295,0-10.227-7.441-7.08-13.4l0.386-0.735l2.052-3.882h7.561
						c0.26,0,0.519,0.006,0.779,0.032c2.59,0.165,5.066,1.172,7.118,2.888c0.462,0.374,0.899,0.792,1.311,1.241l1.07,1.178
						c2.444,2.666,5.756,4.167,9.208,4.167h1.659c3.458,0,6.77,1.495,9.208,4.167L169.764,242.583z"/>
				</g>
				<path style="fill:#FFFFFF;" d="M165.397,206.994h0.396c2.859,0,5.514,1.617,7.018,4.274l1.103,1.949
					c1.331,2.352-0.218,5.387-2.749,5.387l0,0h-7.425c-2.281,0-3.844-2.512-3.005-4.829c0.575-1.587,1.188-3.275,1.664-4.57
					C162.891,207.869,164.078,206.994,165.397,206.994z"/>
				<path style="fill:none;stroke:#5876BC;stroke-width:0.75;stroke-miterlimit:10;" d="M150.384,161.189h3.2
					c1.596,0,3.069,0.937,3.857,2.454l4.876,9.387c0.788,1.517,2.261,2.454,3.857,2.454h3.782"/>
				<path style="fill:none;stroke:#5876BC;stroke-width:0.75;stroke-miterlimit:10;" d="M158.572,218.908h-4.362
					c-1.604,0-2.639-1.856-1.903-3.413l4.492-9.508c0.736-1.557-0.299-3.413-1.903-3.413l0,0c-1.685,0-2.71-2.029-1.812-3.587
					l0.666-1.156"/>
				<path style="fill:none;stroke:#5876BC;stroke-width:0.75;stroke-miterlimit:10;" d="M185.58,225.998h-9.607
					c-1.794,0-3.457-1.029-4.38-2.71l-2.221-4.044"/>
				<path style="fill:none;stroke:#5876BC;stroke-width:0.75;stroke-miterlimit:10;" d="M152.129,243.445l4.631,11.478
					c1.227,3.041,3.982,5.003,7.024,5.003h3.161c2.596,0,5.016,1.434,6.432,3.81l0,0c1.417,2.377,3.837,3.81,6.432,3.81h10.112"/>
			</g>
			<path style="fill:#FFFFFF;" d="M180.542,242.583h-0.735c-1.26-1.545-2.02-3.508-2.02-5.655c0-4.933,3.996-8.936,8.929-8.936
				c0.095,0,0.184,0,0.279,0.006l0.627,1.184C190.769,235.142,186.837,242.583,180.542,242.583z"/>
			<path style="fill:#FFFFFF;" d="M137.226,220.583c0,1.456-0.367,2.824-1.013,4.015c-1.431,2.622-4.211,4.401-7.403,4.401
				c-1.051,0-2.058-0.196-2.989-0.551l2.052-3.882l5.75-10.886C135.802,215.2,137.226,217.727,137.226,220.583z"/>
			<path style="fill:#FFFFFF;" d="M163.083,160.954c-1.792,2.4-4.654,3.952-7.878,3.952c-2.337,0-4.484-0.817-6.168-2.185
				l2.742-5.186c2.109-3.996,7.384-3.996,9.493,0L163.083,160.954z"/>
		</g>
		<g>
			<path style="fill:#FF8345;" d="M169.085,173.61l-25.837-0.203c-1.767-0.019-2.831-1.97-1.881-3.458l0.158-0.247l1.115-1.754
				l1.349-2.122l1.115-1.748l7.264-11.412c2.083-3.274,6.896-3.154,8.815,0.215l6.364,11.196l0.994,1.748l1.21,2.122l0.994,1.754
				l0.31,0.545C171.916,171.755,170.814,173.623,169.085,173.61z"/>
			<path style="fill:#F22929;" d="M161.389,145.574c0,2.602-2.109,4.711-4.711,4.711c-2.602,0-4.71-2.109-4.71-4.711
				c0-2.602,2.109-4.71,4.71-4.71C159.28,140.864,161.389,142.973,161.389,145.574z"/>
			<polygon style="fill:#F22929;" points="170.744,169.703 141.525,169.703 142.639,167.949 169.75,167.949 			"/>
			<polygon style="fill:#F22929;" points="168.54,165.827 143.988,165.827 145.103,164.08 167.546,164.08 			"/>
			
				<line style="fill:none;stroke:#16274F;stroke-linecap:round;stroke-miterlimit:10;" x1="144.24" y1="166.228" x2="168.032" y2="166.228"/>
			
				<line style="fill:none;stroke:#16274F;stroke-linecap:round;stroke-miterlimit:10;" x1="141.751" y1="170.569" x2="170.12" y2="170.569"/>
		</g>
	</g>
	<g>
		<g>
			<path style="fill:#2A4C9C;" d="M82.492,154.159H37.304c-5.919,0-9.619-6.408-6.66-11.536l22.594-39.134
				c2.96-5.126,10.36-5.126,13.321,0l11.297,19.567l6.654,11.527l4.643,8.04C92.112,147.751,88.413,154.159,82.492,154.159z"/>
			<path style="fill:#2A4C9C;" d="M93.592,212.696H26.206c-8.828,0-14.346-9.557-9.931-17.202l3.425-5.934l13.42-23.245
				l16.846-29.177c4.413-7.646,15.449-7.646,19.861,0l16.846,29.177l16.848,29.179C107.935,203.139,102.417,212.696,93.592,212.696z
				"/>
			<path style="fill:#2A4C9C;" d="M59.898,277.459h42.21c11.059,0,17.971-11.972,12.442-21.549l-21.105-36.555L72.34,182.8
				c-5.53-9.578-19.354-9.578-24.883,0l-21.105,36.555L5.247,255.91c-5.53,9.577,1.382,21.549,12.442,21.549H59.898z"/>
			<path style="fill:#FFFFFF;" d="M82.492,154.159H46.052c2.017-3.487,5.77-5.719,9.917-5.719c1.519,0,3.007-0.301,4.384-0.872
				c1.377-0.569,2.644-1.41,3.718-2.484l0.961-0.961c2.148-2.148,5.062-3.355,8.102-3.355h0.445c3.038,0,5.952-1.207,8.102-3.357
				l2.828-2.828l4.643,8.04C92.112,147.751,88.413,154.159,82.492,154.159z"/>
			<path style="fill:#FFFFFF;" d="M78.471,212.696H26.206c-8.828,0-14.346-9.557-9.931-17.202l3.425-5.934h10.602
				c4.845,0,9.492,1.924,12.92,5.35l1.503,1.506c3.428,3.425,8.075,5.352,12.92,5.352h2.325c4.847,0,9.495,1.924,12.92,5.352
				L78.471,212.696z"/>
		</g>
		<path style="fill:#FFFFFF;" d="M72.341,167h0.555c4.011,0,7.736,2.077,9.846,5.489l1.547,2.503
			c1.867,3.02-0.305,6.917-3.856,6.917l0,0H70.016c-3.2,0-5.393-3.225-4.216-6.2c0.806-2.038,1.667-4.205,2.335-5.868
			C68.826,168.123,70.49,167,72.341,167z"/>
		<path style="fill:none;stroke:#5876BC;stroke-miterlimit:10;" d="M51.279,108.183h4.49c2.239,0,4.306,1.203,5.411,3.15
			l6.841,12.053c1.105,1.947,3.172,3.15,5.411,3.15h5.306"/>
		<path style="fill:none;stroke:#5876BC;stroke-miterlimit:10;" d="M62.766,182.298h-6.119c-2.25,0-3.702-2.383-2.67-4.383
			l6.302-12.209c1.032-2-0.42-4.383-2.67-4.383l0,0c-2.365,0-3.803-2.605-2.543-4.606L56,155.233"/>
		<path style="fill:none;stroke:#5876BC;stroke-miterlimit:10;" d="M100.657,191.402H87.179c-2.517,0-4.85-1.321-6.145-3.479
			l-3.115-5.192"/>
		<path style="fill:none;stroke:#5876BC;stroke-miterlimit:10;" d="M53.728,213.805l6.498,14.739
			c1.722,3.905,5.586,6.425,9.854,6.425h4.435c3.642,0,7.037,1.841,9.024,4.893l0,0c1.987,3.052,5.382,4.893,9.024,4.893h14.187"/>
	</g>
	<path style="fill:#FFFFFF;" d="M311.62,312H0v-76.13h30.39c16.69,0,32.88,5.74,45.84,16.25l7.58,6.15
		c18,14.6,41.71,20.16,64.32,15.08c1.57-0.36,3.15-0.71,4.71-1.06c9.39-2.09,19.08-2.38,28.54-0.85c3.44,0.56,6.78,1.61,9.94,3.06
		l35.31,16.14c5.99,2.73,12.69,3.52,19.13,2.17c17.93-3.76,33.97-5.9,48.51,6.36l5.65,4.77C303.6,307.04,307.52,309.73,311.62,312z"
		/>
	<path style="fill:#FFFFFF;" d="M820,262.62V312H506.29c0.19-0.1,0.4-0.22,0.59-0.33l56.65-32.59c6.09-3.51,13-5.36,20.02-5.36
		h25.86c10.588,0,20.815-4.112,28.271-11.63c3.785-3.817,8.268-6.799,13.139-8.82c4.83-2,10.05-3.05,15.36-3.05l13.054,2.598
		c15.912,3.166,32.428,0.806,46.816-6.69h0c21.818-11.367,47.957-10.672,69.139,1.839L820,262.62z"/>
	<g>
		<path style="fill:none;stroke:#16274F;stroke-miterlimit:10;" d="M204.284,282.358c0,0,1.003,19.452-11.369,27.946"/>
		<circle style="fill:#F22929;" cx="204.933" cy="281.54" r="7.375"/>
		<path style="fill:none;stroke:#16274F;stroke-miterlimit:10;" d="M193.026,294.03c0,0-0.789,7.495,3.55,12.492"/>
		<path style="fill:#F22929;" d="M195.95,292.631c0,2.101-1.703,3.804-3.804,3.804c-2.101,0-3.804-1.703-3.804-3.804
			s1.703-3.804,3.804-3.804C194.247,288.828,195.95,290.53,195.95,292.631z"/>
		<path style="fill:#2A4C9C;" d="M205.048,277.712c0,0.471,0.499,0.852,1.114,0.852c0.615,0,1.114-0.381,1.114-0.852
			c0-0.471-0.499-0.852-1.114-0.852C205.547,276.86,205.048,277.241,205.048,277.712z"/>
		<g>
			<path style="fill:none;stroke:#16274F;stroke-miterlimit:10;" d="M209.879,295.275c0,0-3.355,4.395-9.432,5.791"/>
			<path style="fill:#F22929;" d="M208.445,294.499c-0.401,1.883,0.802,3.735,2.685,4.136s3.735-0.802,4.136-2.685
				c0.4-1.884-0.802-3.735-2.685-4.136C210.697,291.413,208.845,292.615,208.445,294.499z"/>
			<path style="fill:#2A4C9C;" d="M212.765,293.119c0.231-0.136,0.563-0.001,0.741,0.302c0.178,0.303,0.134,0.658-0.098,0.794
				c-0.232,0.136-0.563,0.001-0.741-0.302C212.489,293.61,212.533,293.254,212.765,293.119z"/>
		</g>
		<path style="fill:#2A4C9C;" d="M192.289,292.381c-0.198-0.181-0.551-0.118-0.788,0.141c-0.237,0.259-0.268,0.616-0.07,0.797
			c0.198,0.181,0.551,0.118,0.788-0.142S192.487,292.562,192.289,292.381z"/>
	</g>
	<g>
		<path style="fill:none;stroke:#16274F;stroke-miterlimit:10;" d="M758.292,264.846c0,0,7.552,17.954-1.198,30.146"/>
		<path style="fill:#F22929;" d="M751.688,266.362c1.384,3.831,5.611,5.814,9.442,4.431c3.831-1.384,5.814-5.611,4.431-9.442
			c-1.384-3.831-5.611-5.814-9.442-4.431C752.288,258.304,750.305,262.531,751.688,266.362z"/>
		<path style="fill:none;stroke:#16274F;stroke-miterlimit:10;" d="M751.669,279.648c0,0,1.804,7.318,7.583,10.543"/>
		<path style="fill:#F22929;" d="M753.944,277.339c0.714,1.976-0.309,4.156-2.285,4.87c-1.976,0.714-4.156-0.309-4.87-2.285
			c-0.714-1.976,0.309-4.156,2.285-4.87C751.05,274.34,753.23,275.363,753.944,277.339z"/>
		<path style="fill:#2A4C9C;" d="M757.432,260.216c0.16,0.443,0.759,0.632,1.337,0.423c0.579-0.209,0.918-0.737,0.758-1.18
			c-0.16-0.443-0.759-0.632-1.337-0.423C757.612,259.245,757.272,259.774,757.432,260.216z"/>
		<g>
			<path style="fill:none;stroke:#16274F;stroke-miterlimit:10;" d="M767.942,275.094c0,0-1.662,5.273-6.904,8.651"/>
			<path style="fill:#F22929;" d="M766.33,274.851c0.263,1.908,2.023,3.241,3.931,2.977c1.908-0.263,3.241-2.023,2.977-3.93
				c-0.263-1.908-2.023-3.241-3.93-2.977C767.4,271.184,766.067,272.943,766.33,274.851z"/>
			<path style="fill:#2A4C9C;" d="M769.924,272.085c0.172-0.206,0.53-0.192,0.8,0.033c0.27,0.225,0.35,0.574,0.178,0.78
				c-0.172,0.206-0.53,0.192-0.8-0.033C769.832,272.641,769.752,272.291,769.924,272.085z"/>
		</g>
		<path style="fill:#2A4C9C;" d="M750.416,278.348c-0.248-0.103-0.558,0.076-0.693,0.401c-0.135,0.324-0.043,0.671,0.205,0.773
			c0.248,0.103,0.558-0.077,0.693-0.401C750.755,278.797,750.663,278.451,750.416,278.348z"/>
	</g>
	<g>
		<g>
			<path style="fill:none;stroke:#16274F;stroke-miterlimit:10;" d="M49.588,265.75c0,0,6.641,20.025-9.456,37.257"/>
			<path style="fill:#F22929;" d="M58.119,267.052c-1.81,3.951-6.481,5.686-10.432,3.876c-3.951-1.81-5.686-6.481-3.876-10.432
				c1.81-3.951,6.481-5.686,10.432-3.876C58.194,258.431,59.93,263.102,58.119,267.052z"/>
			<path style="fill:#2A4C9C;" d="M50.715,259.606c-0.226,0.493,0.114,1.132,0.758,1.428c0.645,0.296,1.351,0.135,1.577-0.358
				c0.226-0.493-0.114-1.132-0.758-1.428C51.647,258.952,50.941,259.113,50.715,259.606z"/>
		</g>
		<g>
			<path style="fill:none;stroke:#16274F;stroke-miterlimit:10;" d="M35.135,270.533c0,0,1.317,12.103,13.898,17.287"/>
			<path style="fill:#F22929;" d="M30.97,273.263c1.898,1.64,4.765,1.43,6.405-0.467c1.639-1.898,1.43-4.765-0.467-6.405
				c-1.898-1.64-4.765-1.43-6.405,0.467C28.863,268.755,29.072,271.623,30.97,273.263z"/>
			<path style="fill:#2A4C9C;" d="M33.07,267.578c0.237,0.205,0.212,0.622-0.056,0.931c-0.268,0.31-0.677,0.395-0.913,0.19
				c-0.237-0.205-0.212-0.622,0.056-0.931C32.425,267.459,32.834,267.374,33.07,267.578z"/>
		</g>
	</g>
	<g>
		<defs>
			<rect id="SVGID_00000118375706962018816930000009245424769397576604_" width="820" height="312"/>
		</defs>
		<clipPath id="SVGID_00000122679542619250390060000014787759246315246730_">
			<use xlink:href="#SVGID_00000118375706962018816930000009245424769397576604_"  style="overflow:visible;"/>
		</clipPath>
		<g style="clip-path:url(#SVGID_00000122679542619250390060000014787759246315246730_);">
			<path style="fill:#7EB2E6;" d="M124.056,350.357l-12.245-9.257c-4.722-3.57-4.276-10.8,0.85-13.762l0,0l-10.76-9.671
				c-4.202-3.597-3.581-10.269,1.213-13.028l0,0l-4.853-7.379c-4.16-6.326-1.279-14.877,5.861-17.396l0.346-0.122
				c7.004-2.471,14.485,1.843,15.842,9.07c0.881,4.691,1.651,8.776,1.651,8.776l0.691-0.16c5.04-1.167,9.848,2.678,9.817,7.851
				l-0.08,13.397l0.476-0.061c5.584-0.71,10.231,4.243,9.167,9.77l-3.036,15.784L124.056,350.357z"/>
			<line style="fill:#7EB2E6;stroke:#FFFFFF;stroke-miterlimit:10;" x1="107.686" y1="290.034" x2="133.052" y2="351.275"/>
			<polyline style="fill:none;stroke:#FFFFFF;stroke-miterlimit:10;" points="110.39,313.248 123.087,327.366 123.4,307.321 			"/>
			<polyline style="fill:none;stroke:#FFFFFF;stroke-miterlimit:10;" points="118.355,336.509 132.262,349.409 133.134,331.055 			
				"/>
		</g>
		<g style="clip-path:url(#SVGID_00000122679542619250390060000014787759246315246730_);">
			<path style="fill:#7EB2E6;" d="M144.046,322.183l-0.92-9.98c-0.355-3.849,3.33-6.814,7.013-5.644l0,0l-0.067-9.446
				c-0.113-3.609,3.379-6.245,6.819-5.146l0,0l1.425-5.587c1.222-4.79,6.615-7.162,10.971-4.825l0.211,0.113
				c4.273,2.292,5.482,7.799,2.593,11.633c-1.876,2.489-3.508,4.657-3.508,4.657l0.381,0.263c2.78,1.918,3.04,5.929,0.531,8.19
				l-6.498,5.855l0.239,0.203c2.799,2.382,2.454,6.802-0.681,8.721l-8.951,5.479L144.046,322.183z"/>
			<line style="fill:#7EB2E6;stroke:#FFFFFF;stroke-miterlimit:10;" x1="165.948" y1="287.749" x2="147.561" y2="326.927"/>
			<polyline style="fill:none;stroke:#FFFFFF;stroke-miterlimit:10;" points="155.938,299.265 154.712,311.601 164.521,302.935 			
				"/>
			<polyline style="fill:none;stroke:#FFFFFF;stroke-miterlimit:10;" points="148.219,313.34 148.113,325.725 157.352,318.072 			
				"/>
		</g>
		<g style="clip-path:url(#SVGID_00000122679542619250390060000014787759246315246730_);">
			<path style="fill:#7EB2E6;" d="M659.53,329.55l-11.408-4.132c-4.4-1.594-5.75-7.158-2.571-10.591h0l-10.383-4.791
				c-4.013-1.735-5.101-6.919-2.125-10.121l0,0l-5.387-4.439c-4.618-3.806-4.439-10.936,0.365-14.505l0.232-0.173
				c4.712-3.501,11.369-1.99,14.08,3.151c1.761,3.337,3.296,6.242,3.296,6.242l0.484-0.282c3.533-2.058,8.062-0.277,9.247,3.637
				l3.067,10.135l0.346-0.157c4.051-1.84,8.716,0.815,9.204,5.238l1.392,12.628L659.53,329.55z"/>
			<line style="fill:#7EB2E6;stroke:#FFFFFF;stroke-miterlimit:10;" x1="633.085" y1="287.818" x2="666.538" y2="328.143"/>
			<polyline style="fill:none;stroke:#FFFFFF;stroke-miterlimit:10;" points="640.547,304.717 653.431,312.414 648.988,297.204 			
				"/>
			<polyline style="fill:none;stroke:#FFFFFF;stroke-miterlimit:10;" points="651.992,320.423 665.505,326.918 661.879,312.854 			
				"/>
		</g>
		<g style="clip-path:url(#SVGID_00000122679542619250390060000014787759246315246730_);">
			<path style="fill:#7EB2E6;" d="M701.221,318.264l-2.358-11.902c-0.91-4.59,3.156-8.622,7.738-7.675l0,0l-1.265-11.365
				c-0.589-4.332,3.287-7.943,7.566-7.05l0,0l1.016-6.906c0.871-5.921,7.068-9.452,12.606-7.184l0.268,0.11
				c5.432,2.225,7.579,8.705,4.58,13.682c-1.947,3.232-3.641,6.048-3.641,6.048l0.492,0.269c3.588,1.961,4.404,6.759,1.665,9.796
				l-7.092,7.864l0.313,0.215c3.668,2.517,3.807,7.883,0.273,10.586l-10.092,7.718L701.221,318.264z"/>
			<line style="fill:#7EB2E6;stroke:#FFFFFF;stroke-miterlimit:10;" x1="723.281" y1="274.057" x2="706.047" y2="323.536"/>
			<polyline style="fill:none;stroke:#FFFFFF;stroke-miterlimit:10;" points="712.67,289.179 712.739,304.187 723.464,292.522 			
				"/>
			<polyline style="fill:none;stroke:#FFFFFF;stroke-miterlimit:10;" points="705.138,307.094 706.562,322.02 716.728,311.647 			
				"/>
		</g>
		<g style="clip-path:url(#SVGID_00000122679542619250390060000014787759246315246730_);">
			<path style="fill:#2A4C9C;" d="M583.833,323.161c0,0,18.044-7.625,18.469-27.821c0.114-5.417-6.148-8.471-10.42-5.138
				C584.713,295.795,577.021,306.21,583.833,323.161z"/>
			<path style="fill:#7EB2E6;stroke:#FFFFFF;stroke-miterlimit:10;" d="M595.304,298.455c0,0-11.076,24.747-11.471,24.707"/>
		</g>
		<g style="clip-path:url(#SVGID_00000122679542619250390060000014787759246315246730_);">
			<path style="fill:#2A4C9C;" d="M579.702,323.179c0,0,3.328-14.613-9.024-23.902c-3.313-2.492-8.008,0.033-7.848,4.175
				C563.101,310.403,566.131,319.833,579.702,323.179z"/>
			<path style="fill:#7EB2E6;stroke:#FFFFFF;stroke-miterlimit:10;" d="M569.485,305.014c0,0,10.418,17.937,10.217,18.165"/>
		</g>
		<g style="clip-path:url(#SVGID_00000122679542619250390060000014787759246315246730_);">
			<g>
				<path style="fill:none;stroke:#16274F;stroke-miterlimit:10;" d="M682.203,286.003c0,0,14.38,15.439,6.923,37.81"/>
				
					<ellipse transform="matrix(0.1598 -0.9872 0.9872 0.1598 293.5649 912.1723)" style="fill:#F22929;" cx="682.632" cy="283.633" rx="7.869" ry="7.869"/>
				<path style="fill:#2A4C9C;" d="M680.668,279.948c0,0.542,0.575,0.982,1.284,0.982s1.284-0.44,1.284-0.982
					c0-0.542-0.575-0.982-1.284-0.982S680.668,279.405,680.668,279.948z"/>
			</g>
			<g>
				<path style="fill:none;stroke:#16274F;stroke-miterlimit:10;" d="M671.056,296.372c0,0,6.239,10.455,19.836,9.926"/>
				<path style="fill:#F22929;" d="M668.406,300.589c2.408,0.7,4.928-0.685,5.628-3.093c0.7-2.408-0.685-4.928-3.093-5.628
					c-2.408-0.7-4.928,0.685-5.628,3.093S665.998,299.888,668.406,300.589z"/>
				<path style="fill:#2A4C9C;" d="M667.948,294.546c0.301,0.087,0.452,0.477,0.337,0.87c-0.114,0.393-0.451,0.641-0.751,0.553
					c-0.3-0.087-0.452-0.477-0.337-0.87C667.311,294.706,667.647,294.459,667.948,294.546z"/>
			</g>
		</g>
	</g>
	<g>
		<defs>
			<rect id="SVGID_00000031903884341203192820000007177858573620030102_" width="820" height="312"/>
		</defs>
		<clipPath id="SVGID_00000137109410041076711030000018004190962176604816_">
			<use xlink:href="#SVGID_00000031903884341203192820000007177858573620030102_"  style="overflow:visible;"/>
		</clipPath>
		<g style="clip-path:url(#SVGID_00000137109410041076711030000018004190962176604816_);">
			<path style="fill:#C7E8FF;" d="M716.909,312l6.365-11.893c8.162-15.25,27.101-21.056,42.408-13l4.012,2.112l7.028-10.308
				c9.887-14.501,29.726-18.114,44.09-8.028l0,0l10.311-7.07c18.318-12.56,43.035,1.628,41.427,23.781l-1.847,24.399L716.909,312z"
				/>
			<g>
				<defs>
					<path id="SVGID_00000129173102304305344970000000599808702803150743_" d="M716.909,312l6.365-11.893
						c8.162-15.25,27.101-21.056,42.408-13l4.012,2.112l7.028-10.308c9.887-14.501,29.726-18.114,44.09-8.028l0,0l10.311-7.07
						c18.318-12.56,43.035,1.628,41.427,23.781l-1.847,24.399L716.909,312z"/>
				</defs>
				<use xlink:href="#SVGID_00000129173102304305344970000000599808702803150743_"  style="overflow:visible;fill:#87CEFF;"/>
				<clipPath id="SVGID_00000093858553605708002470000009548087366876613505_">
					<use xlink:href="#SVGID_00000129173102304305344970000000599808702803150743_"  style="overflow:visible;"/>
				</clipPath>
				<g style="clip-path:url(#SVGID_00000093858553605708002470000009548087366876613505_);">
					<line style="fill:#7EB2E6;stroke:#FFFFFF;stroke-miterlimit:10;" x1="799.492" y1="282.611" x2="808.704" y2="329.774"/>
					<line style="fill:#7EB2E6;stroke:#FFFFFF;stroke-miterlimit:10;" x1="843.339" y1="278.926" x2="833.022" y2="328.3"/>
					<line style="fill:#7EB2E6;stroke:#FFFFFF;stroke-miterlimit:10;" x1="745.697" y1="298.086" x2="758.225" y2="329.405"/>
					<polyline style="fill:none;stroke:#FFFFFF;stroke-miterlimit:10;" points="791.573,295.996 803.627,304.136 813.647,289.107 
											"/>
					<line style="fill:#7EB2E6;stroke:#FFFFFF;stroke-miterlimit:10;" x1="832.277" y1="294.9" x2="837.916" y2="305.042"/>
					<line style="fill:none;stroke:#FFFFFF;stroke-miterlimit:10;" x1="755.791" y1="300.006" x2="750.457" y2="309.208"/>
				</g>
			</g>
		</g>
		<g style="clip-path:url(#SVGID_00000137109410041076711030000018004190962176604816_);">
			<path style="fill:#87CEFF;" d="M77.918,312l-4.32-8.072c-5.54-10.352-18.396-14.292-28.785-8.824l-2.723,1.433l-4.77-6.997
				c-6.711-9.843-20.177-12.295-29.927-5.449l0,0l-6.999-4.799c-12.434-8.525-29.211,1.105-28.119,16.142l1.254,16.561L77.918,312z"
				/>
			<g>
				<defs>
					<path id="SVGID_00000078731963425328399070000009338011903208244656_" d="M77.918,312l-4.32-8.072
						c-5.54-10.352-18.396-14.292-28.785-8.824l-2.723,1.433l-4.77-6.997c-6.711-9.843-20.177-12.295-29.927-5.449l0,0l-6.999-4.799
						c-12.434-8.525-29.211,1.105-28.119,16.142l1.254,16.561L77.918,312z"/>
				</defs>
				<clipPath id="SVGID_00000164496802707366952480000004677499960849524357_">
					<use xlink:href="#SVGID_00000078731963425328399070000009338011903208244656_"  style="overflow:visible;"/>
				</clipPath>
				<g style="clip-path:url(#SVGID_00000164496802707366952480000004677499960849524357_);">
					<line style="fill:#7EB2E6;stroke:#FFFFFF;stroke-miterlimit:10;" x1="21.863" y1="292.052" x2="15.611" y2="324.064"/>
					<line style="fill:#7EB2E6;stroke:#FFFFFF;stroke-miterlimit:10;" x1="-7.899" y1="289.551" x2="-0.896" y2="323.064"/>
					<line style="fill:#7EB2E6;stroke:#FFFFFF;stroke-miterlimit:10;" x1="58.378" y1="302.556" x2="49.874" y2="323.814"/>
					<polyline style="fill:none;stroke:#FFFFFF;stroke-miterlimit:10;" points="27.239,301.137 19.056,306.662 12.255,296.461 					
						"/>
					<line style="fill:#7EB2E6;stroke:#FFFFFF;stroke-miterlimit:10;" x1="-0.39" y1="300.393" x2="-4.218" y2="307.277"/>
					<line style="fill:none;stroke:#FFFFFF;stroke-miterlimit:10;" x1="51.526" y1="303.859" x2="55.147" y2="310.105"/>
				</g>
			</g>
		</g>
	</g>
</g>
<g id="TEXTS">
	<g>
			<text transform="matrix(1 0 0 1 329.4917 93.6976)" style="fill:#F22929; font-family:'GreatVibes-Regular'; font-size:57.1039px;">Winter</text>
	</g>
	<g>
		<text transform="matrix(1 0 0 1 281.6631 201.0019)" style="fill:#16274F; font-size:106.1535px;">BIG SALE</text>
	</g>
	<g>
		<text transform="matrix(0.9989 0 0 1 283.4648 233.5283)"><tspan x="0" y="0" style="fill:#F22929; font-family:'Montserrat-Bold'; font-size:30.5442px;">UP TO </tspan><tspan x="108.37" y="0" style="fill:#F22929; font-family:'Montserrat-Black'; font-size:30.5442px;">40%</tspan><tspan x="179.262" y="0" style="fill:#F22929; font-family:'Montserrat-Bold'; font-size:30.5442px;"> OFF</tspan></text>
	</g>
</g>
</svg>
